<?xml version="1.0" encoding="UTF-8"?>
<svg width="340px" height="282px" viewBox="0 0 340 282" version="1.1" xmlns="http://www.w3.org/2000/svg" xmlns:xlink="http://www.w3.org/1999/xlink">
    <title>403</title>
    <defs>
        <linearGradient x1="49.9684134%" y1="-2.3164557%" x2="49.9684134%" y2="101.075949%" id="linearGradient-1">
            <stop stop-color="#FDFEFF" offset="0%"></stop>
            <stop stop-color="#ECF0F5" offset="99.64%"></stop>
        </linearGradient>
        <path d="M311.865787,68.6573958 L311.865787,216.225522 C311.865787,222.377523 306.933391,227.224554 300.886798,227.224554 L77.9003162,227.224554 C71.8537233,227.224554 66.8438419,222.297627 66.8438419,216.225522 L66.8438419,68.6573958 C66.8438419,62.611923 71.7762372,57.6583638 77.9003162,57.6583638 L300.886798,57.6583638 C306.933391,57.6583638 311.865787,62.611923 311.865787,68.6573958 Z" id="path-2"></path>
        <filter x="-20.2%" y="-20.3%" width="140.4%" height="158.4%" filterUnits="objectBoundingBox" id="filter-3">
            <feOffset dx="0" dy="15" in="SourceAlpha" result="shadowOffsetOuter1"></feOffset>
            <feGaussianBlur stdDeviation="14" in="shadowOffsetOuter1" result="shadowBlurOuter1"></feGaussianBlur>
            <feColorMatrix values="0 0 0 0 0.396078431   0 0 0 0 0.478431373   0 0 0 0 0.576470588  0 0 0 0.27 0" type="matrix" in="shadowBlurOuter1"></feColorMatrix>
        </filter>
        <linearGradient x1="159.151664%" y1="-2.2974607%" x2="175.089141%" y2="101.995163%" id="linearGradient-4">
            <stop stop-color="#B0BACC" offset="0%"></stop>
            <stop stop-color="#969EAE" offset="100%"></stop>
        </linearGradient>
        <linearGradient x1="84.4517495%" y1="0%" x2="100.201257%" y2="100%" id="linearGradient-5">
            <stop stop-color="#B0BACC" offset="0%"></stop>
            <stop stop-color="#969EAE" offset="100%"></stop>
        </linearGradient>
        <linearGradient x1="24.4231591%" y1="-2.2974607%" x2="34.4324115%" y2="101.995163%" id="linearGradient-6">
            <stop stop-color="#B0BACC" offset="0%"></stop>
            <stop stop-color="#969EAE" offset="100%"></stop>
        </linearGradient>
        <path d="M221.8125,160.540157 C228.305658,160.540157 233.186645,159.441024 236.455461,157.242756 C239.724276,155.044488 241.358684,151.591654 241.358684,146.884252 C241.358684,144.042047 240.635987,141.655039 239.190592,139.723228 C237.745197,137.791417 235.599342,136.53685 232.753026,135.959528 L232.753026,135.959528 L232.753026,135.559843 C235.3325,134.716063 237.211513,133.461496 238.390066,131.796142 C239.568618,130.130787 240.157895,128.07685 240.157895,125.634331 C240.157895,123.28063 239.76875,121.293307 238.990461,119.672362 C238.212171,118.051417 237.089211,116.741339 235.621579,115.742126 C234.153947,114.742913 232.375,114.032362 230.284737,113.610472 C228.194474,113.188583 225.859605,112.977638 223.280132,112.977638 C221.367763,112.977638 219.455395,113.121969 217.543026,113.41063 C215.630658,113.699291 214.140789,114.02126 213.073421,114.376535 L213.073421,114.376535 L213.073421,122.170394 C214.363158,121.770709 215.830789,121.44874 217.476316,121.204488 C219.121842,120.960236 220.656184,120.83811 222.079342,120.83811 C224.658816,120.83811 226.704605,121.215591 228.216711,121.970551 C229.728816,122.725512 230.484868,124.146614 230.484868,126.233858 C230.484868,128.587559 229.528684,130.197402 227.616316,131.063386 C225.703947,131.92937 223.124474,132.362362 219.877895,132.362362 L219.877895,132.362362 L216.408947,132.362362 L216.408947,139.756535 L219.944605,139.756535 C223.5025,139.756535 226.282105,140.189528 228.283421,141.055512 C230.284737,141.921496 231.285395,143.597953 231.285395,146.084882 C231.285395,147.417165 231.018553,148.494094 230.484868,149.315669 C229.951184,150.137244 229.239605,150.792283 228.350132,151.280787 C227.460658,151.769291 226.404408,152.102362 225.181382,152.28 C223.958355,152.457638 222.6575,152.546457 221.278816,152.546457 C219.499868,152.546457 217.832105,152.446535 216.275526,152.246693 C214.718947,152.04685 213.073421,151.769291 211.338947,151.414016 L211.338947,151.414016 L211.338947,159.674173 C214.229737,160.251496 217.720921,160.540157 221.8125,160.540157 Z" id="path-7"></path>
        <linearGradient x1="-0.0452588994%" y1="50.0138568%" x2="100.015702%" y2="50.0138568%" id="linearGradient-8">
            <stop stop-color="#B0BACC" offset="0%"></stop>
            <stop stop-color="#969EAE" offset="100%"></stop>
        </linearGradient>
        <linearGradient x1="-0.0463103854%" y1="50.0198439%" x2="100.018524%" y2="50.0198439%" id="linearGradient-9">
            <stop stop-color="#B0BACC" offset="0%"></stop>
            <stop stop-color="#969EAE" offset="100%"></stop>
        </linearGradient>
    </defs>
    <g id="6.12-默认图片-视频图-/-Default-picture" stroke="none" stroke-width="1" fill="none" fill-rule="evenodd">
        <g id="6.14空状态" transform="translate(-636.000000, -1014.000000)">
            <g id="403" transform="translate(636.000000, 1014.000000)">
                <path d="M326.243478,146.209893 C326.243478,184.027388 310.746245,218.116397 285.897233,242.617873 C261.582609,266.853028 227.916206,281.500649 190.776285,281.500649 C153.903557,281.500649 120.237154,266.586708 95.655336,242.617873 C70.8063241,218.116397 55.3090909,184.027388 55.3090909,146.209893 C55.3090909,71.3738638 115.962055,10.9191359 190.776285,10.9191359 C265.590514,10.9191359 326.243478,71.6401842 326.243478,146.209893 Z" id="Path" fill="#EAEEF9" fill-rule="nonzero"></path>
                <path d="M314.486957,57.5252036 C320.538893,57.5252036 325.441897,52.6515406 325.441897,46.6060678 C325.441897,40.587227 320.538893,35.6869319 314.486957,35.6869319 C308.437692,35.6869319 303.532016,40.587227 303.532016,46.6060678 C303.532016,52.6515406 308.437692,57.5252036 314.486957,57.5252036 Z" id="Path" fill="#EAEEF9" fill-rule="nonzero"></path>
                <path d="M330.518577,14.9139417 C334.652063,14.9139417 338,11.5849368 338,7.45697084 C338,3.35563688 334.652063,0 330.518577,0 C326.387763,0 323.037154,3.35563688 323.037154,7.45697084 C323.037154,11.5849368 326.387763,14.9139417 330.518577,14.9139417 Z" id="Path" fill="#EAEEF9" fill-rule="nonzero"></path>
                <path d="M59.5841897,57.2588832 C63.7176759,57.2588832 67.0656126,53.9298784 67.0656126,49.8019124 C67.0656126,45.7005784 63.7176759,42.3449416 59.5841897,42.3449416 C55.4533755,42.3449416 52.1027668,45.7005784 52.1027668,49.8019124 C52.1027668,53.9298784 55.4533755,57.2588832 59.5841897,57.2588832 Z" id="Path" fill="#EAEEF9" fill-rule="nonzero"></path>
                <path d="M13.8940711,201.071892 C21.5678735,201.071892 27.7881423,194.866627 27.7881423,187.223232 C27.7881423,179.579837 21.5678735,173.374572 13.8940711,173.374572 C6.22294071,173.374572 0,179.579837 0,187.223232 C0,194.866627 6.22294071,201.071892 13.8940711,201.071892 Z" id="Path" fill="#EAEEF9" fill-rule="nonzero"></path>
                <g id="Path" fill-rule="nonzero">
                    <use fill="black" fill-opacity="1" filter="url(#filter-3)" xlink:href="#path-2"></use>
                    <use fill="url(#linearGradient-1)" xlink:href="#path-2"></use>
                </g>
                <path d="M311.865787,68.6573958 L311.865787,85.1692598 L66.8438419,85.1692598 L66.8438419,68.6573958 C66.8438419,62.611923 71.7762372,57.6583638 77.9003162,57.6583638 L300.886798,57.6583638 C306.933391,57.6583638 311.865787,62.611923 311.865787,68.6573958 Z" id="Path" fill="#D5DDEA" fill-rule="nonzero"></path>
                <path d="M82.2769486,75.5284618 C84.5614545,75.5284618 86.4131067,73.6642191 86.4131067,71.3738638 C86.4131067,69.0835084 84.5614545,67.2458978 82.2769486,67.2458978 C79.9924427,67.2458978 78.1407905,69.0835084 78.1407905,71.3738638 C78.1407905,73.6642191 79.9924427,75.5284618 82.2769486,75.5284618 Z" id="Path" fill="#989FB0" fill-rule="nonzero"></path>
                <path d="M95.7996206,75.5284618 C98.0841265,75.5284618 99.9357787,73.6642191 99.9357787,71.3738638 C99.9357787,69.0835084 98.0841265,67.2458978 95.7996206,67.2458978 C93.5151146,67.2458978 91.6634625,69.0835084 91.6634625,71.3738638 C91.6634625,73.6642191 93.5151146,75.5284618 95.7996206,75.5284618 Z" id="Path" fill="#989FB0" fill-rule="nonzero"></path>
                <path d="M109.244806,75.5284618 C111.529312,75.5284618 113.380964,73.6642191 113.380964,71.3738638 C113.380964,69.0835084 111.529312,67.2458978 109.244806,67.2458978 C106.9603,67.2458978 105.108648,69.0835084 105.108648,71.3738638 C105.108648,73.6642191 106.9603,75.5284618 109.244806,75.5284618 Z" id="Path" fill="#989FB0" fill-rule="nonzero"></path>
                <line x1="117.995399" y1="185.678574" x2="260.714229" y2="185.678574" id="Path" stroke="#D5DDEA" stroke-width="2.650704" stroke-linecap="round" stroke-linejoin="round"></line>
                <line x1="140.509138" y1="200.9121" x2="238.20049" y2="200.9121" id="Path" stroke="#D5DDEA" stroke-width="2.650704" stroke-linecap="round" stroke-linejoin="round"></line>
                <path d="M165.489075,142.77436 L165.489075,150.977028 L160.476522,150.977028 L160.476522,158.886743 L151.090008,158.886743 L151.090008,150.977028 L130.406545,150.977028 L130.406545,141.575918 L149.577692,114.837351 L160.55668,114.837351 L160.55668,142.854256 L165.489075,142.854256 L165.489075,142.77436 Z M151.090008,125.783119 L139.157138,142.77436 L151.090008,142.77436 L151.090008,125.783119 Z" id="Shape" fill="url(#linearGradient-4)" fill-rule="nonzero"></path>
                <path d="M189.036854,159.7656 C179.011747,159.7656 170.180996,150.977028 170.180996,136.782151 C170.180996,122.587274 178.931589,113.825333 189.036854,113.825333 C199.139447,113.825333 207.89004,122.587274 207.89004,136.782151 C207.89004,150.977028 199.139447,159.7656 189.036854,159.7656 Z M189.036854,151.296612 C193.728775,151.296612 198.423368,146.582741 198.423368,136.862047 C198.423368,127.141353 193.728775,122.427482 189.036854,122.427482 C184.342261,122.427482 179.647668,127.141353 179.647668,136.862047 C179.647668,146.582741 184.342261,151.296612 189.036854,151.296612 Z" id="Shape" fill="url(#linearGradient-5)" fill-rule="nonzero"></path>
                <g id="3" fill-rule="nonzero">
                    <use fill="#444444" xlink:href="#path-7"></use>
                    <use fill="url(#linearGradient-6)" xlink:href="#path-7"></use>
                </g>
                <polygon id="Path" fill="#858B9B" fill-rule="nonzero" points="301.031083 259.82217 247.73396 206.744517 259.952727 194.547043 313.207099 247.67796"></polygon>
                <path d="M319.558292,278.491229 L278.69102,237.74421 C275.278957,234.361941 275.278957,228.822477 278.69102,225.413576 C282.103083,222.004675 287.666055,222.004675 291.078119,225.413576 L331.945391,266.133963 C335.357455,269.542864 335.357455,275.082328 331.945391,278.491229 C328.533328,281.90013 322.970356,281.90013 319.558292,278.491229 Z" id="Path" fill="#858B9B" fill-rule="nonzero"></path>
                <path d="M316.651225,281.101169 L264.070182,228.689316 C262.849107,227.464243 262.849107,225.493472 264.070182,224.241766 L277.510024,210.845851 C278.733771,209.620777 280.713676,209.620777 281.977502,210.845851 L334.558545,263.257703 C335.779621,264.456144 335.779621,266.426915 334.558545,267.705253 L321.118704,281.101169 C319.852206,282.29961 317.8723,282.29961 316.651225,281.101169 Z" id="Path" fill="url(#linearGradient-8)" fill-rule="nonzero"></path>
                <path d="M187.401628,35.6869319 C131.619605,35.6869319 86.4131067,80.7483414 86.4131067,136.356038 C86.4131067,191.910471 131.619605,236.998513 187.361549,236.998513 C243.143573,236.998513 288.350071,191.937103 288.350071,136.356038 C288.350071,80.7483414 243.143573,35.6869319 187.401628,35.6869319 Z M187.401628,218.356085 C142.617296,218.356085 106.340411,181.630504 106.340411,136.302774 C106.340411,91.0016763 142.617296,54.302727 187.401628,54.302727 C232.188632,54.302727 268.462846,91.0283083 268.462846,136.356038 C268.462846,181.657136 232.145881,218.356085 187.401628,218.356085 Z" id="Shape" fill="url(#linearGradient-9)" fill-rule="nonzero"></path>
            </g>
        </g>
    </g>
</svg>