<?xml version="1.0" encoding="UTF-8"?>
<svg width="406px" height="283px" viewBox="0 0 406 283" version="1.1" xmlns="http://www.w3.org/2000/svg" xmlns:xlink="http://www.w3.org/1999/xlink">
    <title>404</title>
    <defs>
        <linearGradient x1="50.0052403%" y1="3.47076146%" x2="50.0052403%" y2="59.5919226%" id="linearGradient-1">
            <stop stop-color="#B0BACC" offset="0%"></stop>
            <stop stop-color="#969EAE" offset="100%"></stop>
        </linearGradient>
        <linearGradient x1="3.56476054%" y1="46.8265298%" x2="59.5562148%" y2="50.7185554%" id="linearGradient-2">
            <stop stop-color="#E3E7EE" offset="0%"></stop>
            <stop stop-color="#D1D6DF" offset="100%"></stop>
        </linearGradient>
        <linearGradient x1="50.0071076%" y1="3.47479351%" x2="50.0071076%" y2="59.598405%" id="linearGradient-3">
            <stop stop-color="#BDC4D1" stop-opacity="0.53" offset="0%"></stop>
            <stop stop-color="#5D7CB8" stop-opacity="0" offset="100%"></stop>
        </linearGradient>
        <linearGradient x1="49.9978647%" y1="0%" x2="49.9978647%" y2="100%" id="linearGradient-4">
            <stop stop-color="#B6BFD7" offset="0%"></stop>
            <stop stop-color="#838DA7" stop-opacity="0" offset="100%"></stop>
        </linearGradient>
        <linearGradient x1="48.1796542%" y1="41.2122627%" x2="50.7618317%" y2="52.7738285%" id="linearGradient-5">
            <stop stop-color="#B0BACC" offset="0%"></stop>
            <stop stop-color="#969EAE" offset="100%"></stop>
        </linearGradient>
        <linearGradient x1="50.0106255%" y1="3.55029586%" x2="50.0106255%" y2="59.4674556%" id="linearGradient-6">
            <stop stop-color="#B0BACC" offset="0%"></stop>
            <stop stop-color="#969EAE" offset="100%"></stop>
        </linearGradient>
        <linearGradient x1="3.48107723%" y1="49.0255213%" x2="59.587657%" y2="50.2128172%" id="linearGradient-7">
            <stop stop-color="#B0BACC" offset="0%"></stop>
            <stop stop-color="#969EAE" offset="100%"></stop>
        </linearGradient>
        <linearGradient x1="52.263617%" y1="43.740569%" x2="50.2177721%" y2="51.2936157%" id="linearGradient-8">
            <stop stop-color="#B0BACC" offset="0%"></stop>
            <stop stop-color="#969EAE" offset="100%"></stop>
        </linearGradient>
        <linearGradient x1="49.9954289%" y1="55.0293931%" x2="57.3516008%" y2="45.284209%" id="linearGradient-9">
            <stop stop-color="#B0BACC" offset="0%"></stop>
            <stop stop-color="#969EAE" offset="100%"></stop>
        </linearGradient>
        <linearGradient x1="50.0072502%" y1="3.47928069%" x2="50.0072502%" y2="59.5777952%" id="linearGradient-10">
            <stop stop-color="#D6DCE6" offset="0%"></stop>
            <stop stop-color="#C4CBDA" offset="100%"></stop>
        </linearGradient>
        <linearGradient x1="50.0083881%" y1="3.46646571%" x2="50.0083881%" y2="59.6081387%" id="linearGradient-11">
            <stop stop-color="#D6DCE6" offset="0%"></stop>
            <stop stop-color="#C4CBDA" offset="100%"></stop>
        </linearGradient>
        <linearGradient x1="50.0193349%" y1="3.47928069%" x2="50.0193349%" y2="59.5777952%" id="linearGradient-12">
            <stop stop-color="#D6DCE6" offset="0%"></stop>
            <stop stop-color="#C4CBDA" offset="100%"></stop>
        </linearGradient>
        <linearGradient x1="50.0072502%" y1="3.47928069%" x2="50.0072502%" y2="59.5777952%" id="linearGradient-13">
            <stop stop-color="#EAEEF5" offset="0%"></stop>
            <stop stop-color="#D4DAE4" offset="100%"></stop>
        </linearGradient>
        <linearGradient x1="50.0105166%" y1="3.46646571%" x2="50.0105166%" y2="59.6081387%" id="linearGradient-14">
            <stop stop-color="#EAEEF5" offset="0%"></stop>
            <stop stop-color="#D4DAE4" offset="100%"></stop>
        </linearGradient>
        <linearGradient x1="50.0193349%" y1="3.47928069%" x2="50.0193349%" y2="59.5777952%" id="linearGradient-15">
            <stop stop-color="#EAEEF5" offset="0%"></stop>
            <stop stop-color="#D4DAE4" offset="100%"></stop>
        </linearGradient>
    </defs>
    <g id="6.12-默认图片-视频图-/-Default-picture" stroke="none" stroke-width="1" fill="none" fill-rule="evenodd">
        <g id="6.14空状态" transform="translate(-598.000000, -659.000000)">
            <g id="编组-2" transform="translate(600.000000, 659.000000)">
                <g id="404" transform="translate(0.000000, -0.000000)">
                    <path d="M286.703407,56.5514984 C286.703407,86.2593805 263.124309,110.80685 233.794557,112.534878 C232.643953,112.534878 231.49335,112.534878 230.342747,112.534878 C220.568525,112.534878 210.791941,109.670612 202.740081,105.101989 C185.488119,95.3966255 173.989174,77.0984639 173.989174,55.9833795 C173.989174,41.6857215 179.163345,28.5479728 188.363446,18.8426089 C198.716513,7.40921682 213.667268,0 230.342747,0 C252.185308,0 271.180894,12.5696298 280.371545,30.8441199 C284.388025,38.8451272 286.703407,47.4142533 286.703407,56.5514984 Z" id="Path" fill="url(#linearGradient-1)" fill-rule="nonzero"></path>
                    <path d="M286.207254,56.5514984 C286.207254,86.2593805 262.628155,110.80685 233.300766,112.534878 C222.373578,110.80685 212.022874,107.942584 202.24629,105.670108 C184.994329,95.9647444 173.493021,77.6902543 173.493021,56.5514984 C173.493021,42.2538403 178.669554,29.1160917 187.869655,19.4107278 C206.846341,18.8426089 228.698353,20.5469655 251.122122,24.5474692 C261.470464,26.2754974 271.251773,28.5479728 280.46605,30.8441199 C283.915498,38.8451272 286.207254,47.4142533 286.207254,56.5514984 Z" id="Path" fill="#000000" fill-rule="nonzero" opacity="0.1"></path>
                    <path d="M354.959935,94.3550743 C359.307184,70.1153362 305.793499,40.407454 235.441313,27.9561823 C165.089128,15.5285822 104.539515,25.0919164 100.199355,49.3079829 C95.859194,73.547721 149.372879,103.255603 219.722702,115.706875 C290.081975,128.134475 350.612687,118.571141 354.959935,94.3550743 Z" id="Path" fill="url(#linearGradient-2)" fill-rule="nonzero"></path>
                    <path d="M217.50655,41.8040796 C217.825506,37.7088894 211.410952,33.8740871 203.179531,33.2349534 C194.945748,32.6194913 188.011414,35.4127424 187.692458,39.5079325 C187.373502,43.579451 193.788056,47.4142533 202.019477,48.0533871 C210.25326,48.6925208 217.185232,45.8992697 217.50655,41.8040796 Z" id="Path" fill="#FFFFFF" fill-rule="nonzero"></path>
                    <path d="M145.148488,52.2906069 C153.063315,49.9707882 158.52809,44.8813901 157.35386,40.9519013 C156.177268,37.0224125 148.808209,35.7204734 140.893382,38.0639637 C132.976191,40.407454 127.513779,45.4731806 128.688009,49.4026694 C129.862238,53.3321581 137.231297,54.6340972 145.148488,52.2906069 Z" id="Path" fill="#FFFFFF" fill-rule="nonzero"></path>
                    <path d="M275.669901,56.8355578 C276.378692,52.7877109 270.377598,48.3611181 262.250134,46.9171493 C254.122669,45.4731806 246.940258,47.5799547 246.231468,51.6278016 C245.499051,55.6519768 251.500144,60.1022412 259.627609,61.54621 C267.755073,62.9665072 274.937484,60.8597331 275.669901,56.8355578 Z" id="Path" fill="#FFFFFF" fill-rule="nonzero"></path>
                    <path d="M319.307771,86.6854697 C321.221506,83.0400403 316.803378,77.0511206 309.455583,73.2873332 C302.107788,69.5235457 294.641861,69.4288592 292.751753,73.0742886 C290.838018,76.719718 295.256146,82.7323092 302.603941,86.4960967 C309.951736,90.2598842 317.417663,90.330899 319.307771,86.6854697 Z" id="Path" fill="#FFFFFF" fill-rule="nonzero"></path>
                    <polygon id="Path" fill="url(#linearGradient-3)" fill-rule="nonzero" points="220.410229 77.0037774 166.3555 76.4356585 89.3737606 219.885671 305.439103 242.657769 281.363852 96.4145052"></polygon>
                    <path d="M333.696219,280.816419 L57.0859893,280.816419 C64.5613668,274.117351 75.4861915,267.394611 88.1381025,262.376228 C95.0393596,259.843364 103.088857,256.481994 111.140718,254.824981 C135.291574,248.102241 164.621326,243.912365 195.673439,243.912365 C233.052689,243.912365 267.566063,249.782926 294.003949,259.014858 C303.218226,262.376228 311.251186,265.713926 318.15008,269.927474 C324.481942,273.265173 329.656113,276.626542 333.696219,280.816419 Z" id="Path" fill="url(#linearGradient-4)" fill-rule="nonzero" opacity="0.5"></path>
                    <path d="M114.970549,258.872828 C115.332033,262.281541 109.404181,266.35306 102.543089,267.08688 C95.6819964,267.8207 89.6620021,265.595568 88.7263986,262.25787 C95.4079307,259.819693 103.17155,256.695039 111.055663,254.706623 C113.463188,255.582473 114.788626,257.168471 114.970549,258.872828 Z" id="Path" fill="url(#linearGradient-5)" fill-rule="nonzero" opacity="0.3"></path>
                    <path d="M163.470723,256.481994 C172.680274,256.481994 180.146201,254.682951 180.146201,252.481491 C180.146201,250.256359 172.680274,248.480987 163.470723,248.480987 C154.258808,248.480987 146.792882,250.256359 146.792882,252.481491 C146.792882,254.682951 154.258808,256.481994 163.470723,256.481994 Z" id="Path" fill="url(#linearGradient-6)" fill-rule="nonzero" opacity="0.3"></path>
                    <path d="M253.366626,256.150592 C253.555637,253.309997 246.255094,250.516746 237.064444,249.924956 C227.873793,249.309494 220.270833,251.132209 220.081822,253.949131 C219.892812,256.789726 227.188629,259.582977 236.379279,260.174767 C245.56993,260.790229 253.177615,258.967514 253.366626,256.150592 Z" id="Path" fill="url(#linearGradient-7)" fill-rule="nonzero" opacity="0.3"></path>
                    <path d="M316.685246,269.027953 C314.39349,268.743893 311.652834,268.83858 308.274265,267.868043 C299.201747,266.258373 292.113841,262.565601 292.44461,259.725006 C292.491863,259.156887 292.491863,259.156887 293.129774,258.659783 C302.013282,261.97381 310.093495,265.19315 316.685246,269.027953 Z" id="Path" fill="url(#linearGradient-8)" fill-rule="nonzero" opacity="0.3"></path>
                    <path d="M281.033083,97.9058172 C282.970444,87.0168723 258.706181,73.6424075 226.803519,68.0085621 C194.910308,62.3747167 167.477752,66.6119365 165.530941,77.4772098 C163.581767,88.342483 187.857842,101.740619 219.751053,107.374465 C251.641902,113.00831 279.072096,108.77109 281.033083,97.9058172 Z" id="Path" fill="url(#linearGradient-9)" fill-rule="nonzero"></path>
                    <path d="M74.5222364,150.551498 C74.5222364,150.551498 54.6572005,155.593553 60.6771947,159.6414 C66.6948263,163.476202 80.941516,170.151599 94.3849097,165.701335 C107.828303,161.25107 94.3849097,155.001763 94.5857337,155.001763 C94.7865577,155.001763 74.5222364,150.551498 74.5222364,150.551498 Z" id="Path" fill="#CED7E2" fill-rule="nonzero"></path>
                    <path d="M50.2414354,148.918157 C57.4663736,151.143289 79.7365721,147.521531 93.9832617,138.218585 C105.219954,152.161168 109.432533,155.806598 113.44665,156.209015 C107.225831,162.458323 86.5598622,172.566104 74.9215217,159.428356 C61.277304,168.139511 50.2414354,148.918157 50.2414354,148.918157 Z" id="Path" fill="#E9EEF8" fill-rule="nonzero"></path>
                    <path d="M288.829779,167.121632 C296.46109,167.524049 317.134147,158.221103 328.356664,145.698816 C342.815991,156.398388 347.61214,158.836565 351.841257,158.221103 C347.210492,165.914379 333.176439,182.673886 313.306678,183.90481 C298.870978,175.406699 288.829779,167.121632 288.829779,167.121632 Z" id="Path" fill="#E9EEF8" fill-rule="nonzero"></path>
                    <path d="M222.753963,167.38202 C221.244239,159.878116 207.108593,142.124402 192.198003,134.360111 C198.952777,117.671619 200.098655,112.392848 198.463711,108.439688 C207.037714,111.019894 226.751541,120.46487 232.873129,139.449509 C228.26599,155.569882 222.753963,167.38202 222.753963,167.38202 Z" id="Path" fill="#FFFFFF" fill-rule="nonzero"></path>
                    <polyline id="Path" stroke="#D5DAE8" stroke-width="2.64" stroke-linecap="round" stroke-linejoin="round" points="402 280.816419 384.540127 280.816419 22.55844 280.816419 0 280.816419"></polyline>
                    <path d="M155.995345,234.940821 L155.995345,246.350541 L149.094088,246.350541 L149.094088,257.215815 L135.868057,257.215815 L135.868057,246.350541 L107.114788,246.350541 L107.114788,233.212793 L133.56685,196.663813 L149.094088,196.663813 L149.094088,234.940821 L155.995345,234.940821 Z M136.442177,211.505918 L119.766699,234.940821 L136.442177,234.940821 L136.442177,211.505918 Z" id="Shape" fill="url(#linearGradient-10)" fill-rule="nonzero"></path>
                    <path d="M198.498921,258.352052 C184.698769,258.352052 172.620979,246.350541 172.620979,226.939814 C172.620979,207.505414 184.698769,195.527575 198.498921,195.527575 C212.301435,195.527575 224.376863,207.505414 224.376863,226.939814 C224.950984,245.782423 212.875556,258.352052 198.498921,258.352052 Z M198.498921,246.350541 C204.826058,246.350541 211.724952,240.077562 211.724952,226.371695 C211.724952,213.233946 205.400178,206.369177 198.498921,206.369177 C192.174147,206.369177 185.27289,212.642156 185.27289,226.371695 C185.84701,240.077562 192.174147,246.350541 198.498921,246.350541 Z" id="Shape" fill="url(#linearGradient-11)" fill-rule="nonzero"></path>
                    <path d="M288.829779,234.940821 L288.829779,246.350541 L281.930884,246.350541 L281.930884,257.215815 L268.700128,257.215815 L268.700128,246.350541 L239.951584,246.350541 L239.951584,233.212793 L266.408371,196.663813 L281.363852,196.663813 L281.363852,234.940821 L288.829779,234.940821 Z M268.700128,211.505918 L252.019924,234.940821 L268.700128,234.940821 L268.700128,211.505918 Z" id="Shape" fill="url(#linearGradient-12)" fill-rule="nonzero"></path>
                    <path d="M150.818812,234.940821 L150.818812,246.350541 L143.917555,246.350541 L143.917555,257.215815 L130.691523,257.215815 L130.691523,246.350541 L101.938254,246.350541 L101.938254,233.212793 L128.392679,196.663813 L143.343434,196.663813 L143.343434,234.940821 L150.818812,234.940821 Z M131.268006,211.505918 L114.590165,234.940821 L131.268006,234.940821 L131.268006,211.505918 Z" id="Shape" fill="url(#linearGradient-13)" fill-rule="nonzero"></path>
                    <path d="M193.32475,258.352052 C179.522236,258.352052 167.446808,246.350541 167.446808,226.939814 C167.446808,207.505414 179.522236,195.527575 193.32475,195.527575 C207.124902,195.527575 219.20033,207.505414 219.20033,226.939814 C219.776813,245.782423 207.701385,258.352052 193.32475,258.352052 Z M193.32475,246.350541 C199.649524,246.350541 206.550781,240.077562 206.550781,226.371695 C206.550781,213.233946 200.223645,206.369177 193.32475,206.369177 C186.997613,206.369177 180.098719,212.642156 180.098719,226.371695 C180.672839,240.077562 186.997613,246.350541 193.32475,246.350541 Z" id="Shape" fill="url(#linearGradient-14)" fill-rule="nonzero"></path>
                    <path d="M283.655608,234.940821 L283.655608,246.350541 L276.756713,246.350541 L276.756713,257.215815 L263.525957,257.215815 L263.525957,246.350541 L234.777413,246.350541 L234.777413,233.212793 L261.234201,196.663813 L276.189681,196.663813 L276.189681,234.940821 L283.655608,234.940821 Z M263.525957,211.505918 L246.845753,234.940821 L263.525957,234.940821 L263.525957,211.505918 Z" id="Shape" fill="url(#linearGradient-15)" fill-rule="nonzero"></path>
                </g>
            </g>
        </g>
    </g>
</svg>