<?xml version="1.0" encoding="UTF-8"?>
<svg width="52px" height="52px" viewBox="0 0 52 52" version="1.1" xmlns="http://www.w3.org/2000/svg" xmlns:xlink="http://www.w3.org/1999/xlink">
    <title>账户管理</title>
    <defs>
        <linearGradient x1="49.868%" y1="2.976%" x2="49.868%" y2="101.08%" id="linearGradient-1">
            <stop stop-color="#777777" stop-opacity="0.3" offset="0%"></stop>
            <stop stop-color="#A2A6AB" stop-opacity="0" offset="100%"></stop>
        </linearGradient>
    </defs>
    <g id="深蓝色页面" stroke="none" stroke-width="1" fill="none" fill-rule="evenodd">
        <g id="连山个人版-个人版购买-月卡未悬浮状态" transform="translate(-876.000000, -753.000000)" fill-rule="nonzero">
            <g id="编组-18" transform="translate(876.000000, 668.000000)">
                <g id="编组-13" transform="translate(0.000000, 85.000000)">
                    <circle id="椭圆形备份-2" fill="url(#linearGradient-1)" opacity="0.4" cx="26" cy="26" r="26"></circle>
                    <g id="阿里云-全球云计算服务及云解决方案提供商" transform="translate(9.000000, 10.000000)">
                        <g id="编组">
                            <polygon id="路径" fill="#444444" points="9.09674533 15.814759 6.81641066 15.814759 6.81641066 13.2228257 3.412308 12.082579 3.412308 7.85004368 5.68444866 7.85004368 5.68444866 10.442079 9.09674533 11.5822123"></polygon>
                            <polygon id="路径" fill="#444444" points="27.2902133 15.814759 25.0098333 15.814759 25.0098333 11.5822123 28.4221866 10.442079 28.4221866 7.85004368 30.6942933 7.85004368 30.6942933 12.082579 27.2902133 13.2228257"></polygon>
                            <polygon id="路径" fill="#444444" points="18.18524 7.85004368 15.9131333 7.85004368 15.9131333 15.806599 18.18524 15.806599"></polygon>
                            <path d="M4.54422466,8.87525702 C3.66654866,8.87525702 2.80858133,8.61499835 2.07881667,8.12738168 C1.349052,7.63977635 0.780265999,6.94670902 0.444391333,6.13584302 C0.108516667,5.32496569 0.020638,4.43270369 0.191862,3.57189169 C0.363097333,2.71107969 0.785739999,1.92036435 1.40635333,1.29975102 C2.02696667,0.679137688 2.81767066,0.256495022 3.678494,0.0852710221 C4.539306,-0.0859575111 5.431568,0.00192568881 6.242434,0.337800355 C7.05331133,0.673663688 7.74636733,1.24244969 8.23398399,1.97221435 C8.72160066,2.70197902 8.98185933,3.55994635 8.98185933,4.43763369 C8.98185933,5.61456635 8.51432533,6.74328702 7.68210733,7.57550502 C6.84988933,8.40772302 5.72115733,8.87525702 4.54422466,8.87525702 L4.54422466,8.87525702 Z M4.54422466,2.05066369 C4.07213466,2.05066369 3.61063,2.19065302 3.2181,2.45294035 C2.82555866,2.71522769 2.51961533,3.08801502 2.33895067,3.52417835 C2.158286,3.96034169 2.111026,4.44027435 2.20312067,4.90330902 C2.29522667,5.36633235 2.522562,5.79164969 2.85638533,6.12547302 C3.19020866,6.45929635 3.615526,6.68663168 4.07854933,6.77873768 C4.541584,6.87083235 5.02151666,6.82357235 5.45768,6.64290768 C5.89384333,6.46224302 6.266642,6.15629968 6.528918,5.76375835 C6.79120533,5.37122835 6.93119466,4.90972369 6.93119466,4.43763369 C6.92903,3.80523369 6.67686333,3.19935369 6.229684,2.75217435 C5.78250466,2.30500635 5.17662466,2.05282835 4.54422466,2.05066369 Z" id="形状" fill="#444444"></path>
                            <path d="M29.56232,8.87526458 C28.6843266,8.87687768 27.8254866,8.61799035 27.0947133,8.13137102 C26.3638266,7.64474035 25.79376,6.95225102 25.4567067,6.14152102 C25.11954,5.33079102 25.03046,4.43827969 25.2008,3.57692369 C25.3710267,2.71556769 25.79308,1.92409302 26.4133533,1.30265235 C27.0336266,0.681223022 27.8243533,0.257764355 28.6853466,0.0858716888 C29.5464533,-0.0860221111 30.4390666,0.00138168881 31.25042,0.337007022 C32.0617733,0.672643688 32.7553733,1.24141835 33.2432733,1.97135302 C33.7312866,2.70129902 33.9917266,3.55959502 33.9917266,4.43762235 C33.9895733,5.61246969 33.5225266,6.73870835 32.6924733,7.57022368 C31.8625333,8.40172768 30.7371333,8.87091635 29.56232,8.87526458 L29.56232,8.87526458 Z M29.56232,2.05065235 C29.0902866,2.05065235 28.6287933,2.19065302 28.2362066,2.45292902 C27.84362,2.71521635 27.5377333,3.08800369 27.35708,3.52416702 C27.1764266,3.96033035 27.1291666,4.44027435 27.2211933,4.90329769 C27.3133333,5.36632102 27.54068,5.79163835 27.8744466,6.12546168 C28.2083266,6.45928502 28.6336666,6.68662035 29.0966333,6.77872635 C29.5597133,6.87083235 30.03968,6.82356102 30.4757866,6.64289635 C30.9120066,6.46223168 31.28476,6.15628835 31.5470133,5.76374702 C31.8092666,5.37121702 31.9493466,4.90972369 31.9493466,4.43762235 C31.9493466,3.80456502 31.69786,3.19742702 31.2501933,2.74978302 C30.8025266,2.30213902 30.1954,2.05065235 29.56232,2.05065235 L29.56232,2.05065235 Z" id="形状" fill="#444444"></path>
                            <path d="M17.0532667,8.87525702 C16.1756133,8.87525702 15.31768,8.61499835 14.5879267,8.12738168 C13.8581733,7.63977635 13.2893533,6.94670902 12.9534333,6.13584302 C12.6176267,5.32496569 12.52968,4.43270369 12.7009267,3.57189169 C12.8721733,2.71107969 13.2947933,1.92036435 13.9154067,1.29975102 C14.53602,0.679137688 15.3267467,0.256495022 16.1875133,0.0852710221 C17.0483933,-0.0859575111 17.9406667,0.00192568881 18.7514533,0.337800355 C19.5623533,0.673663688 20.2553867,1.24244969 20.74306,1.97221435 C21.23062,2.70197902 21.4909467,3.55994635 21.4909467,4.43763369 C21.4887933,5.61389769 21.0205,6.74137168 20.1887467,7.57311368 C19.3569933,8.40485568 18.2295533,8.87309235 17.0532667,8.87525702 Z M17.0532667,2.05066369 C16.5812333,2.05066369 16.11974,2.19065302 15.7271533,2.45294035 C15.33468,2.71522769 15.02868,3.08801502 14.8480267,3.52417835 C14.6673733,3.96034169 14.6201133,4.44027435 14.71214,4.90330902 C14.80428,5.36633235 15.0316267,5.79164969 15.3655067,6.12547302 C15.6992733,6.45929635 16.1246133,6.68663168 16.58758,6.77873768 C17.05066,6.87083235 17.5306267,6.82357235 17.9667333,6.64290768 C18.4029533,6.46224302 18.7757067,6.15629968 19.03796,5.76375835 C19.3003267,5.37122835 19.4402933,4.90972369 19.4402933,4.43763369 C19.4402933,3.80456502 19.1888067,3.19742702 18.74114,2.74979435 C18.2934733,2.30215035 17.6863467,2.05066369 17.0532667,2.05066369 Z" id="形状" fill="#444444"></path>
                            <path d="M34.1066466,33.999999 L0,33.999999 L0,18.0868657 L34.1066466,18.0868657 L34.1066466,33.999999 Z M2.28854,31.7688057 L31.8181066,31.7688057 L31.8181066,20.3589723 L2.28854,20.3589723 L2.28854,31.7688057 Z" id="形状" fill="#444444"></path>
                            <polygon id="路径" fill="#444444" points="7.95657799 22.6313057 5.68444866 22.6313057 5.68444866 24.9034123 7.95657799 24.9034123"></polygon>
                            <polygon id="路径" fill="#444444" points="22.0978467 22.6313057 12.0085733 22.6313057 12.0085733 24.9034123 22.0978467 24.9034123"></polygon>
                            <polygon id="路径" fill="#444444" points="28.4221866 22.6313057 26.1499666 22.6313057 26.1499666 24.9034123 28.4221866 24.9034123"></polygon>
                            <polygon id="路径" fill="#444444" points="7.95657799 27.1834523 5.68444866 27.1834523 5.68444866 29.455559 7.95657799 29.455559"></polygon>
                            <polygon id="路径" fill="#181818" points="20.46562 27.1834523 13.6410267 27.1834523 13.6410267 29.455559 20.46562 29.455559"></polygon>
                            <polygon id="路径" fill="#444444" points="28.4221866 27.1834523 26.1499666 27.1834523 26.1499666 29.455559 28.4221866 29.455559"></polygon>
                        </g>
                        <polygon id="路径" fill="#3056D3" points="22.0978467 27.1754057 12.0085733 27.1754057 12.0085733 29.4475123 22.0978467 29.4475123"></polygon>
                    </g>
                </g>
            </g>
        </g>
    </g>
</svg>