<?xml version="1.0" encoding="UTF-8"?>
<svg width="23px" height="26px" viewBox="0 0 23 26" version="1.1" xmlns="http://www.w3.org/2000/svg" xmlns:xlink="http://www.w3.org/1999/xlink">
    <title>编组</title>
    <g id="页面-1" stroke="none" stroke-width="1" fill="none" fill-rule="evenodd">
        <g id="0421首页-1" transform="translate(-307.000000, -556.000000)" fill-rule="nonzero">
            <g id="编组-20" transform="translate(298.000000, 550.000000)">
                <g id="编组" transform="translate(9.000000, 6.000000)">
                    <path d="M10.3878499,0 C13.8658647,0 16.6852324,2.80359465 16.6852324,6.26165777 C16.6852324,9.72021481 13.8658647,12.5238095 10.3878499,12.5238095 L10.1146553,12.5238095 C6.63664047,12.5238095 3.81727282,9.72021481 3.81727282,6.26165777 C3.81727282,2.80359465 6.63664047,0 10.1141586,0 L10.3878499,0 Z M10.3878499,0.987876892 L10.1146553,0.987876892 C7.1850164,0.987876892 4.8107075,3.34890269 4.8107075,6.26165777 C4.8107075,9.12748867 7.10901866,11.4593721 9.97309088,11.5339568 L10.1141586,11.5359326 L10.3878499,11.5359326 C13.316992,11.5359326 15.6917977,9.17490678 15.6917977,6.26165777 C15.6917977,3.39582688 13.3929898,1.06394344 10.5294143,0.989358703 L10.3878499,0.987876892 Z M11.0375562,13.8900432 C12.2957412,13.8900432 13.5251166,14.0826792 14.6884287,14.454121 C14.8605766,14.5054654 14.9914058,14.6452762 15.0305308,14.819709 C15.0696558,14.9941419 15.0109732,15.1759856 14.8770831,15.2952079 C14.743193,15.4144302 14.5549819,15.4524327 14.3849343,15.3945798 C13.3029214,15.0504281 12.1735692,14.8761154 11.0375562,14.8779202 C5.53988857,14.8779202 1.08930115,18.867955 0.994924851,23.7999304 L0.993434703,23.9594726 L0.993434703,24.1718661 C0.993434703,24.4879867 1.01131654,24.8021316 1.04658345,25.1128188 C1.07239226,25.381045 0.877259927,25.620349 0.608013482,25.6506668 C0.338767038,25.6809847 0.0947648889,25.4911284 0.0596060893,25.223955 C0.0298030446,24.9631555 0.0114245145,24.7003802 0.00397374653,24.4366171 L0,24.17236 L0,23.9599665 C0,18.3883407 4.9512785,13.8900432 11.0375562,13.8900432 Z" id="形状" fill="#333333"></path>
                    <path d="M22.5032826,20.3408795 C22.6350203,20.3408794 22.7613623,20.3929192 22.8545149,20.4855507 C22.9476674,20.5781821 23,20.7038173 23,20.8348179 L23,20.8960663 C23,21.0270669 22.9476674,21.1527021 22.8545149,21.2453335 C22.7613623,21.3379649 22.6350203,21.3900047 22.5032826,21.3900047 L14.8717173,21.3900047 C14.5973879,21.3900047 14.375,21.1688609 14.375,20.8960663 L14.375,20.834324 C14.375,20.5615293 14.5973879,20.3403855 14.8717173,20.3403855 L22.5032826,20.3403855 L22.5032826,20.3408795 Z" id="路径" fill="#3056D3"></path>
                    <path d="M19.2264383,24.5684987 C19.2264383,24.6994993 19.1741057,24.8251345 19.0809532,24.9177659 C18.9878006,25.0103973 18.8614586,25.0624371 18.729721,25.0624371 L18.645279,25.0624371 C18.5135414,25.0624371 18.3871994,25.0103973 18.2940468,24.9177659 C18.2008942,24.8251345 18.1485617,24.6994993 18.1485617,24.5684987 L18.1485617,17.1618916 C18.1485617,17.0308909 18.2008942,16.9052558 18.2940468,16.8126243 C18.3871994,16.7199929 18.5135414,16.6679531 18.645279,16.6679531 L18.729721,16.6679531 C18.8614586,16.6679531 18.9878006,16.7199929 19.0809532,16.8126243 C19.1741057,16.9052558 19.2264383,17.0308909 19.2264383,17.1618916 L19.2264383,24.5689926 L19.2264383,24.5684987 Z" id="路径" fill="#3056D3"></path>
                </g>
            </g>
        </g>
    </g>
</svg>