<?xml version="1.0" encoding="UTF-8"?>
<svg width="23px" height="23px" viewBox="0 0 23 23" version="1.1" xmlns="http://www.w3.org/2000/svg" xmlns:xlink="http://www.w3.org/1999/xlink">
    <title></title>
    <g id="页面-1" stroke="none" stroke-width="1" fill="none" fill-rule="evenodd" stroke-linecap="round" stroke-linejoin="round">
        <g id="0421首页" transform="translate(-312.000000, -559.000000)" stroke-width="0.81">
            <g id="编组" transform="translate(313.000000, 560.000000)">
                <polygon id="Stroke-1" stroke="#333333" points="3.69793157e-16 0 16.4999937 0 16.4999937 21 3.69793157e-16 21"></polygon>
                <path d="M21,10.5 L19.8750004,13.5 L18.7500009,10.5 L18.7500009,1.125 C18.7500009,0.504 19.2540007,0 19.8750004,0 C20.4960002,0 21,0.504 21,1.125 L21,10.5 Z" id="Stroke-3" stroke="#333333"></path>
                <line x1="18.7500009" y1="3.14504847" x2="21" y2="3.14504847" id="Stroke-5" stroke="#333333"></line>
                <path d="M3.75000106,18.7499978 L3.75000106,16.8749978 C3.75000106,15.0112478 5.26125048,13.4999978 7.12499977,13.4999978 C8.98874905,13.4999978 10.4999985,11.9887478 10.4999985,10.1249978 L10.4999985,7.49999778" id="Stroke-7" stroke="#3056D3"></path>
                <polyline id="Stroke-9" stroke="#3056D3" points="8.25000156 9.74999778 10.5000007 7.49999778 12.7499998 9.74999778"></polyline>
                <path d="M12.0000007,3.74999961 C12.0000007,4.57799961 11.3279998,5.24999961 10.5000007,5.24999961 C9.67200046,5.24999961 9.00000071,4.57799961 9.00000071,3.74999961 C9.00000071,2.92199961 9.67200046,2.24999961 10.5000007,2.24999961 C11.3279998,2.24999961 12.0000007,2.92199961 12.0000007,3.74999961 Z" id="Stroke-11" stroke="#3056D3"></path>
                <line x1="9.00000071" y1="15.7499973" x2="11.9999996" y2="18.7499973" id="Stroke-13" stroke="#333333"></line>
                <line x1="11.9999996" y1="15.7499973" x2="9.00000071" y2="18.7499973" id="Stroke-15" stroke="#333333"></line>
                <line x1="2.99999913" y1="8.2499995" x2="5.99999798" y2="11.2499995" id="Stroke-17" stroke="#333333"></line>
                <line x1="5.99999798" y1="8.2499995" x2="2.99999913" y2="11.2499995" id="Stroke-19" stroke="#333333"></line>
            </g>
        </g>
    </g>
</svg>