<?xml version="1.0" encoding="UTF-8"?>
<svg width="53px" height="53px" viewBox="0 0 53 53" version="1.1" xmlns="http://www.w3.org/2000/svg" xmlns:xlink="http://www.w3.org/1999/xlink">
    <title>支付平台-支付宝</title>
    <g id="深蓝色页面" stroke="none" stroke-width="1" fill="none" fill-rule="evenodd">
        <g id="连山个人版-个人版购买-确认订单" transform="translate(-824.000000, -523.000000)" fill-rule="nonzero">
            <g id="编组-28" transform="translate(418.000000, 318.000000)">
                <g id="编组-26" transform="translate(337.000000, 176.000000)">
                    <g id="支付平台-支付宝" transform="translate(69.000000, 29.000000)">
                        <path d="M0,26.5 C0,41.1696597 11.8303403,53 26.5,53 C41.1696597,53 53,41.1696597 53,26.5 C53,11.8303403 41.1696597,0 26.5,0 C11.8303403,0 0,11.8303403 0,26.5 Z" id="路径" fill="#5A9EF7"></path>
                        <path d="M32.0839257,29.8125079 C32.0839257,29.8125079 33.0303529,28.4875047 33.9767801,25.8375047 C35.0178513,23.1875047 35.1124953,21.6732199 35.1124953,21.6732199 L27.5410398,21.5785772 L27.5410398,19.0232212 L36.7214241,18.9285784 L36.7214241,17.035724 L27.4464524,17.035724 L27.4464524,12.8714392 L22.9035916,12.8714392 L22.9035916,17.035724 L14.1964586,17.035724 L14.1964586,18.9285784 L22.8089414,18.8339357 L22.8089414,21.6732237 L15.9946251,21.6732237 L15.9946251,23.1875085 L30.1910335,23.1875085 C30.0963908,24.1339357 29.812462,24.9857252 29.5285319,25.8375085 C28.960675,27.2571493 28.3928167,28.5821525 28.3928167,28.5821525 C28.3928167,28.5821525 21.767801,26.2160781 18.1714052,26.2160781 C14.669622,26.2160781 10.410712,27.635719 9.93746072,31.7053661 C9.5588892,35.7750069 11.9249591,38.046431 15.3321047,38.8035703 C18.6446063,39.5607158 21.7678199,38.8035703 24.512489,37.4785671 C27.257133,36.153564 29.907133,33.1249943 29.907133,33.1249943 L44.0088911,40.033898 C44.0088911,40.033898 44.8606743,38.7088949 45.5231759,37.478542 C45.9963901,36.6267587 46.3749591,35.6803252 46.7535351,34.828542 L32.0838754,29.8124676 L32.0839257,29.8125079 Z M17.5089162,36.5321738 C12.4928419,36.5321738 11.5464147,34.0714618 11.5464147,32.367889 C11.5464147,30.6643162 12.5874859,28.6768178 16.8464147,28.3928859 C21.0106995,28.1089571 26.7839382,31.4214555 26.7839382,31.4214555 C26.7839382,31.4214555 22.5250094,36.5321738 17.5089665,36.5321738 L17.5089162,36.5321738 Z" id="形状" fill="#FFFFFF"></path>
                    </g>
                </g>
            </g>
        </g>
    </g>
</svg>