<?xml version="1.0" standalone="no"?><!DOCTYPE svg PUBLIC "-//W3C//DTD SVG 1.1//EN" "http://www.w3.org/Graphics/SVG/1.1/DTD/svg11.dtd"><svg t="1642421888620" class="icon" viewBox="0 0 1024 1024" version="1.1" xmlns="http://www.w3.org/2000/svg" p-id="4347" xmlns:xlink="http://www.w3.org/1999/xlink" width="36" height="36"><defs><style type="text/css"></style></defs><path d="M827.076923 1024H196.923077c-87.276308 0-157.538462-68.765538-157.538462-153.6v-716.8C39.384615 68.765538 109.646769 0 196.923077 0h474.505846c46.158769 0 89.796923 19.456 119.571692 53.326769l67.741539 76.169846 86.016 95.232c25.993846 28.120615 39.857231 64.354462 39.857231 101.848616v543.822769c0 84.834462-70.892308 153.6-157.538462 153.6zM779.657846 196.923077l-57.580308-64.827077V256h110.67077l-53.090462-59.076923zM616.999385 307.2V102.4H196.923077a51.830154 51.830154 0 0 0-52.539077 51.2v716.8c0 28.278154 23.473231 51.2 52.539077 51.2h630.153846c29.144615 0 52.539077-22.921846 52.539077-51.2v-512H669.538462a51.751385 51.751385 0 0 1-52.539077-51.2z m67.111384 237.095385a50.648615 50.648615 0 0 0-7.640615-72.073847 53.641846 53.641846 0 0 0-74.043077 7.561847L471.591385 637.400615l-51.2-56.871384a53.405538 53.405538 0 0 0-74.043077-4.568616 50.176 50.176 0 0 0-5.12 72.231385l92.396307 102.4a53.484308 53.484308 0 0 0 80.344616-1.575385l170.141538-204.8z" p-id="4348"></path></svg>