<?xml version="1.0" encoding="UTF-8"?>
<svg width="26px" height="26px" viewBox="0 0 26 26" version="1.1" xmlns="http://www.w3.org/2000/svg" xmlns:xlink="http://www.w3.org/1999/xlink">
    <title>堆积图</title>
    <g id="页面-1" stroke="none" stroke-width="1" fill="none" fill-rule="evenodd">
        <g id="内部_数据/概览/视频消耗/分组详情1.2" transform="translate(-926.000000, -740.000000)" fill="#2396FF" fill-rule="nonzero">
            <g id="编组-19" transform="translate(772.000000, 693.000000)">
                <g id="编组-18" transform="translate(0.000000, 44.000000)">
                    <g id="编组-9" transform="translate(104.000000, 3.000000)">
                        <g id="堆积图组件" transform="translate(50.000000, 0.000000)">
                            <path d="M2.8287272,19.9675096 L2.8287272,22.9334624 L23.171149,22.9334624 L23.171149,17.659459 L17.9083572,20.5053539 C17.4593163,20.7481861 16.9130841,20.7316426 16.4798169,20.4620883 L8.62648705,15.5761558 L2.8287272,19.9675096 Z M1.77635684e-15,19.2890829 C1.77635684e-15,19.2795017 1.77635684e-15,19.2699199 1.77635684e-15,19.2603387 L1.77635684e-15,13.1075216 C1.77635684e-15,12.7692795 0.123292545,12.4424279 0.34702594,12.1871609 L6.93800905,4.66735273 C7.40000065,4.14019401 8.18262654,4.03049796 8.7738211,4.41000043 L17.1331394,9.77623914 L23.5176992,2.48571168 C24.3757876,1.50589487 25.9998022,2.10780334 25.9998022,3.40564899 L25.9998022,15.2683643 C26.0000659,15.2865473 26.0000659,15.3047304 25.9998022,15.3229134 L25.9998022,24.3362964 C25.9998022,25.1110683 25.3665948,25.7391304 24.5854756,25.7391304 L1.41440056,25.7391304 C0.633281411,25.7391304 1.77635684e-15,25.1110683 1.77635684e-15,24.3362964 L1.77635684e-15,19.2890829 Z M2.8287272,16.4373345 L7.6890185,12.756041 C8.15771511,12.4010233 8.79931012,12.3717561 9.29889488,12.6825615 L17.2813775,17.6488481 L23.171149,14.4639266 L23.171149,7.15987395 L18.4633649,12.5356525 C18.0014235,13.0631351 17.2185465,13.1730553 16.627151,12.7934034 L8.26738068,7.42691558 L2.8287272,13.632065 L2.8287272,16.4373594 L2.8287272,16.4373345 Z" id="形状"></path>
                        </g>
                    </g>
                </g>
            </g>
        </g>
    </g>
</svg>