<?xml version="1.0" encoding="UTF-8"?>
<svg width="23px" height="21px" viewBox="0 0 23 21" version="1.1" xmlns="http://www.w3.org/2000/svg" xmlns:xlink="http://www.w3.org/1999/xlink">
    <title>堆积图</title>
    <g id="成分分析" stroke="none" stroke-width="1" fill="none" fill-rule="evenodd">
        <g id="数据/视频分析/成分分析/折线图" transform="translate(-429.000000, -327.000000)" fill="#9FA9BA" fill-rule="nonzero">
            <g id="堆积图" transform="translate(429.000000, 327.000000)">
                <path d="M2.5023356,15.8943354 L2.5023356,18.5180629 L20.4975549,18.5180629 L20.4975549,13.8525984 L15.8420083,16.3701208 C15.4447798,16.5849339 14.9615744,16.5702992 14.5782996,16.3318473 L7.63112316,12.0096763 L2.5023356,15.8943354 Z M0,15.2941887 C0,15.2857131 0,15.2772368 0,15.2687612 L0,9.8258845 C0,9.52667035 0.109066482,9.2375324 0.306984486,9.01171922 L6.13746954,2.35958126 C6.54615442,1.89324855 7.23847733,1.79620973 7.76145713,2.13192346 L15.1562387,6.87898078 L20.8041185,0.429668024 C21.5631967,-0.437093003 22.999825,0.0953644929 22.9998251,1.24345872 L22.9998251,11.7373992 C23.0000583,11.7534842 23.0000583,11.7695692 22.9998251,11.7856541 L22.9998251,19.7590314 C22.9998251,20.4444066 22.43968,21 21.74869,21 L1.2512005,21 C0.560210479,21 0,20.4444066 0,19.7590314 L0,15.2941887 Z M2.5023356,12.7714882 L6.80182406,9.5149593 C7.21644029,9.20090524 7.78400511,9.175015 8.22594547,9.44995829 L15.2873724,13.8432118 L20.4975549,11.0257812 L20.4975549,4.56450388 L16.3329766,9.32000033 C15.9243362,9.78661949 15.2317911,9.88385661 14.7086336,9.54801068 L7.31345214,4.80073301 L2.5023356,10.2899036 L2.5023356,12.7715103 L2.5023356,12.7714882 Z" id="形状"></path>
            </g>
        </g>
    </g>
</svg>