<?xml version="1.0" encoding="UTF-8"?>
<svg width="16px" height="16px" viewBox="0 0 16 16" version="1.1" xmlns="http://www.w3.org/2000/svg" xmlns:xlink="http://www.w3.org/1999/xlink">
    <title>程序化创意</title>
    <g id="页面-1" stroke="none" stroke-width="1" fill="none" fill-rule="evenodd">
        <g id="跨账户页面-程序化创意" transform="translate(-148.000000, -758.000000)" fill="#3056D3" fill-rule="nonzero">
            <g id="程序化创意" transform="translate(148.000000, 758.000000)">
                <rect id="矩形" opacity="0" x="0" y="0" width="16" height="16"></rect>
                <path d="M9.39555556,12.3703704 L6.60444444,12.3703704 C6.35898455,12.3703704 6.16,12.5693549 6.16,12.8148148 L6.16,12.8503704 C6.16,13.0958303 6.35898455,13.2948148 6.60444444,13.2948148 L9.39555556,13.2948148 C9.64101545,13.2948148 9.84,13.0958303 9.84,12.8503704 L9.84,12.8148148 C9.84,12.5693549 9.64101545,12.3703704 9.39555556,12.3703704 L9.39555556,12.3703704 Z M8.9362963,14.1866667 L7.0637037,14.1866667 C6.81824382,14.1866667 6.61925927,14.3856512 6.61925927,14.6311111 L6.61925927,14.6666667 C6.61925927,14.9121266 6.81824382,15.1111111 7.0637037,15.1111111 L8.9362963,15.1111111 C9.18175618,15.1111111 9.38074073,14.9121266 9.38074073,14.6666667 L9.38074073,14.6311111 C9.38074073,14.3856512 9.18175618,14.1866667 8.9362963,14.1866667 L8.9362963,14.1866667 Z M8,4.04887233 C9.32337736,4.04469148 10.518782,4.8386444 11.0281277,6.060083 C11.5374734,7.2815216 11.2603033,8.68954514 10.326017,9.62680414 C9.39173075,10.5640631 7.98459481,10.8457048 6.76154431,10.3402419 C5.53849381,9.83477897 4.74072421,8.64190253 4.74072421,7.31851852 C4.73798462,6.45231382 5.08015277,5.62064181 5.69168143,5.00716738 C6.30321009,4.39369295 7.13379091,4.04887233 8,4.04887233 M8,3.15998698 C6.31709891,3.15580322 4.79757231,4.16632855 4.15064387,5.71992351 C3.50371544,7.27351847 3.85693631,9.0638697 5.04544422,10.2553489 C6.23395213,11.4468281 8.02341583,11.8045181 9.57862125,11.1614708 C11.1338267,10.5184235 12.1481611,9.00142484 12.1481611,7.31851852 C12.150903,6.21656553 11.7150837,5.15880169 10.9368563,4.37862865 C10.1586288,3.59845561 9.10195643,3.15998698 8,3.15998698 L8,3.15998698 Z M8.42222222,2.2562963 C8.42222222,2.43259259 8.22814814,2.5837037 8,2.5837037 C7.77185186,2.5837037 7.57777778,2.43555556 7.57777778,2.2562963 L7.57777778,1.21925927 C7.57777778,1.03703703 7.76740741,0.888888891 8,0.888888891 C8.23259259,0.888888891 8.42222222,1.03703703 8.42222222,1.2162963 L8.42222222,2.2562963 Z M5.91111111,2.70518519 C5.99851852,2.85333333 5.91111111,3.08592592 5.70814814,3.2 C5.50518517,3.31407408 5.2637037,3.28148148 5.18074073,3.12888889 L4.66222222,2.22222222 C4.57481481,2.07407408 4.66222222,1.84444444 4.86518519,1.72740741 C5.06814816,1.61037037 5.30962962,1.64592592 5.39259259,1.79851852 L5.91111111,2.70518519 Z" id="形状"></path>
                <path d="M3.96,4.35407408 C4.10814814,4.44296297 4.14518519,4.68592594 4.03111111,4.88444444 C3.91703703,5.08296294 3.69037037,5.18074073 3.53777778,5.08740741 L2.64,4.56740741 C2.49185186,4.47851852 2.45185186,4.24 2.56888889,4.03703703 C2.68592592,3.83407406 2.90962963,3.74074073 3.06222222,3.83407408 L3.96,4.35407408 Z M3.09037038,6.76296297 C3.26666667,6.76296297 3.4162963,6.95703705 3.4162963,7.18666667 C3.4162963,7.4162963 3.26814816,7.61037038 3.09037038,7.61037038 L2.05333333,7.61037038 C1.87703703,7.61037038 1.72740741,7.42074075 1.72740741,7.18666667 C1.72740741,6.95259259 1.87555555,6.76296297 2.05333333,6.76296297 L3.09037038,6.76296297 Z M3.53777778,9.28444444 C3.68592592,9.19555555 3.91703705,9.28444444 4.03111111,9.48740741 C4.14518517,9.69037038 4.11259259,9.93185184 3.96,10.0177778 L3.06222222,10.5377778 C2.91407408,10.6266667 2.68592592,10.5377778 2.56888889,10.3348148 C2.45185186,10.1318518 2.48740741,9.89037038 2.64,9.80444444 L3.53777778,9.28444444 Z M12.04,10.0177778 C11.8918519,9.92888889 11.8548148,9.68592592 11.9688889,9.48740741 C12.082963,9.28888889 12.3096296,9.19111111 12.4622222,9.28444444 L13.36,9.80444444 C13.5081481,9.89333333 13.5481481,10.1318518 13.4311111,10.3348148 C13.3140741,10.5377778 13.0903704,10.6311111 12.9377778,10.5377778 L12.04,10.0177778 Z M12.9096296,7.61037038 C12.7333333,7.61037038 12.5837037,7.4162963 12.5837037,7.18666667 C12.5837037,6.95703705 12.7318518,6.76296297 12.9096296,6.76296297 L13.9466667,6.76296297 C14.122963,6.76296297 14.2725926,6.95259259 14.2725926,7.18666667 C14.2725926,7.42074075 14.1244445,7.61037038 13.9466667,7.61037038 L12.9096296,7.61037038 Z M12.4622222,5.08740741 C12.3140741,5.1762963 12.082963,5.08740741 11.9688889,4.88444444 C11.8548148,4.68148147 11.8874074,4.44 12.04,4.35407408 L12.9377778,3.83407408 C13.0859259,3.74518519 13.3140741,3.83407408 13.4311111,4.03703703 C13.5481481,4.23999998 13.5125926,4.48148147 13.36,4.56740741 L12.4622222,5.08740741 Z M10.8148148,3.12888889 C10.7274074,3.27703703 10.4844444,3.31407408 10.2874074,3.2 C10.0903704,3.08592592 9.99111111,2.85777778 10.0844444,2.70518519 L10.602963,1.80444444 C10.6903704,1.6562963 10.9288889,1.6162963 11.1303704,1.73333333 C11.3318519,1.85037036 11.4266667,2.07555555 11.3333333,2.22814814 L10.8148148,3.12888889 Z" id="形状"></path>
            </g>
        </g>
    </g>
</svg>