<?xml version="1.0" encoding="UTF-8"?>
<svg width="120px" height="101px" viewBox="0 0 120 101" version="1.1" xmlns="http://www.w3.org/2000/svg" xmlns:xlink="http://www.w3.org/1999/xlink">
    <title>授权失败</title>
    <g id="6.12-默认图片-视频图-/-Default-picture" stroke="none" stroke-width="1" fill="none" fill-rule="evenodd">
        <g id="6.14空状态" transform="translate(-811.000000, -2256.000000)" fill-rule="nonzero">
            <g id="Path" transform="translate(811.000000, 2256.000000)">
                <path d="M115.825138,52.2004195 C115.825138,65.7021673 110.323162,77.8727569 101.501028,86.6203682 C92.8686166,95.2728968 80.9160474,100.502447 67.7302767,100.502447 C54.6393676,100.502447 42.6867984,95.177814 33.9595257,86.6203682 C25.1373913,77.8727569 19.635415,65.7021673 19.635415,52.2004195 C19.635415,25.482172 41.1690119,3.89839198 67.7302767,3.89839198 C94.2915415,3.89839198 115.825138,25.5772547 115.825138,52.2004195 Z" fill="#DE350B" opacity="0.1"></path>
                <path d="M111.652174,20.53787 C113.799842,20.53787 115.541502,18.7883477 115.541502,16.639478 C115.541502,14.4811 113.799842,12.741086 111.652174,12.741086 C109.503557,12.741086 107.762846,14.4811 107.762846,16.639478 C107.762846,18.7883477 109.503557,20.53787 111.652174,20.53787 Z" fill="#DE350B" opacity="0.1"></path>
                <path d="M117.343874,5.32463295 C118.810435,5.32463295 120,4.12659054 120,2.66231648 C120,1.18853414 118.810435,0 117.343874,0 C115.876364,0 114.687747,1.18853414 114.687747,2.66231648 C114.687747,4.12659054 115.876364,5.32463295 117.343874,5.32463295 Z" fill="#DE350B" opacity="0.1"></path>
                <path d="M21.1541502,20.4427872 C22.6207115,20.4427872 23.8102767,19.2447448 23.8102767,17.7804708 C23.8102767,16.3066884 22.6207115,15.1181543 21.1541502,15.1181543 C19.6866403,15.1181543 18.4980237,16.3066884 18.4980237,17.7804708 C18.4980237,19.2447448 19.6866403,20.4427872 21.1541502,20.4427872 Z" fill="#DE350B" opacity="0.1"></path>
                <path d="M4.93280632,71.7874621 C7.65628458,71.7874621 9.86561265,69.5720345 9.86561265,66.8431601 C9.86561265,64.1142857 7.65628458,61.8988581 4.93280632,61.8988581 C2.20837945,61.8988581 0,64.1142857 0,66.8431601 C0,69.5720345 2.20837945,71.7874621 4.93280632,71.7874621 Z" fill="#DE350B" opacity="0.1"></path>
                <path d="M101.6917,26.6231648 L101.6917,87.7816306 C93.0592885,96.6437649 81.1067194,102 67.9209486,102 C54.8300395,102 42.8774704,96.5463788 34.1501976,87.7816306 L34.1501976,26.6231648 L101.6917,26.6231648 Z" fill="#FFFFFF"></path>
                <polygon fill="#DE350B" points="75.68917 37.0822652 55.9683794 56.849965 60.4629249 61.3473782 80.1837154 41.5796784"></polygon>
                <polygon fill="#DE350B" transform="translate(68.076047, 49.214822) scale(-1, 1) translate(-68.076047, -49.214822) " points="75.68917 37.0822652 55.9683794 56.849965 60.4629249 61.3473782 80.1837154 41.5796784"></polygon>
                <polygon fill="#DE350B" opacity="0.1" points="84.9950988 69.9808902 50.4654545 69.9808902 50.4654545 74.3546959 84.9950988 74.3546959"></polygon>
                <polygon fill="#DE350B" opacity="0.1" points="84.9950988 79.5842461 50.4654545 79.5842461 50.4654545 83.9580517 84.9950988 83.9580517"></polygon>
                <polygon fill="#DE350B" opacity="0.1" points="76.5533597 89.2826847 58.9090909 89.2826847 58.9090909 93.6564903 76.5533597 93.6564903"></polygon>
            </g>
        </g>
    </g>
</svg>