<?xml version="1.0" encoding="UTF-8"?>
<svg width="120px" height="101px" viewBox="0 0 120 101" version="1.1" xmlns="http://www.w3.org/2000/svg" xmlns:xlink="http://www.w3.org/1999/xlink">
    <title>授权成功</title>
    <g id="6.12-默认图片-视频图-/-Default-picture" stroke="none" stroke-width="1" fill="none" fill-rule="evenodd">
        <g id="6.14空状态" transform="translate(-620.000000, -2256.000000)" fill-rule="nonzero">
            <g id="17备份-2" transform="translate(620.000000, 2256.000000)">
                <path d="M115.825138,52.4588458 C115.825138,66.0274361 110.323162,78.2582781 101.501028,87.0491958 C92.8686166,95.7445601 80.9160474,101 67.7302767,101 C54.6393676,101 42.6867984,95.6490066 33.9595257,87.0491958 C25.1373913,78.2582781 19.635415,66.0274361 19.635415,52.4588458 C19.635415,25.6083254 41.1690119,3.91769158 67.7302767,3.91769158 C94.2915415,3.91769158 115.825138,25.7038789 115.825138,52.4588458 Z" id="Path" fill="#04A670" opacity="0.1"></path>
                <path d="M111.652174,20.6395459 C113.799842,20.6395459 115.541502,18.8813623 115.541502,16.7218543 C115.541502,14.5527909 113.799842,12.8041627 111.652174,12.8041627 C109.503557,12.8041627 107.762846,14.5527909 107.762846,16.7218543 C107.762846,18.8813623 109.503557,20.6395459 111.652174,20.6395459 Z" id="Path" fill="#04A670" opacity="0.1"></path>
                <path d="M117.343874,5.35099338 C118.810435,5.35099338 120,4.14701987 120,2.67549669 C120,1.19441816 118.810435,0 117.343874,0 C115.876364,0 114.687747,1.19441816 114.687747,2.67549669 C114.687747,4.14701987 115.876364,5.35099338 117.343874,5.35099338 Z" id="Path" fill="#04A670" opacity="0.1"></path>
                <path d="M21.1541502,20.5439924 C22.6207115,20.5439924 23.8102767,19.3400189 23.8102767,17.8684957 C23.8102767,16.3874172 22.6207115,15.1929991 21.1541502,15.1929991 C19.6866403,15.1929991 18.4980237,16.3874172 18.4980237,17.8684957 C18.4980237,19.3400189 19.6866403,20.5439924 21.1541502,20.5439924 Z" id="Path" fill="#04A670" opacity="0.1"></path>
                <path d="M4.93280632,72.1428571 C7.65628458,72.1428571 9.86561265,69.9164617 9.86561265,67.1740776 C9.86561265,64.4316935 7.65628458,62.205298 4.93280632,62.205298 C2.20837945,62.205298 0,64.4316935 0,67.1740776 C0,69.9164617 2.20837945,72.1428571 4.93280632,72.1428571 Z" id="Path" fill="#04A670" opacity="0.1"></path>
                <path d="M101.501976,27.0416272 L101.501976,87.0491958 C92.8695652,95.7445601 80.916996,101 67.7312253,101 C54.6403162,101 42.687747,95.6490066 33.9604743,87.0491958 L33.9604743,27.0416272 L101.501976,27.0416272 Z" id="Path" fill="#FFFFFF"></path>
                <polygon id="Path" fill="#04A670" points="68.9236364 57.666509 55.7103557 44.355913 51.2158103 48.8851466 64.4300395 62.1957427"></polygon>
                <polygon id="Path" fill="#04A670" points="79.7625296 37.743614 60.0417391 57.6091769 64.5362846 62.1288553 84.2570751 42.2632923"></polygon>
                <polygon id="Path" fill="#04A670" opacity="0.1" points="84.9950988 70.3273415 50.4654545 70.3273415 50.4654545 74.7228004 84.9950988 74.7228004"></polygon>
                <polygon id="Path" fill="#04A670" opacity="0.1" points="84.9950988 79.9782403 50.4654545 79.9782403 50.4654545 84.3736991 84.9950988 84.3736991"></polygon>
                <polygon id="Path" fill="#04A670" opacity="0.1" points="76.5533597 89.7246925 58.9090909 89.7246925 58.9090909 94.1201514 76.5533597 94.1201514"></polygon>
            </g>
        </g>
    </g>
</svg>