<?xml version="1.0" encoding="UTF-8"?>
<svg width="52px" height="52px" viewBox="0 0 52 52" version="1.1" xmlns="http://www.w3.org/2000/svg" xmlns:xlink="http://www.w3.org/1999/xlink">
    <title>权限管理</title>
    <defs>
        <linearGradient x1="49.868%" y1="2.976%" x2="49.868%" y2="101.08%" id="linearGradient-1">
            <stop stop-color="#777777" stop-opacity="0.3" offset="0%"></stop>
            <stop stop-color="#A2A6AB" stop-opacity="0" offset="100%"></stop>
        </linearGradient>
    </defs>
    <g id="深蓝色页面" stroke="none" stroke-width="1" fill="none" fill-rule="evenodd">
        <g id="连山个人版-个人版购买-月卡未悬浮状态" transform="translate(-1140.000000, -753.000000)" fill-rule="nonzero">
            <g id="编组-19" transform="translate(1140.000000, 668.000000)">
                <g id="编组-8" transform="translate(0.000000, 85.000000)">
                    <circle id="椭圆形备份-3" fill="url(#linearGradient-1)" opacity="0.4" cx="26" cy="26" r="26"></circle>
                    <g id="阿里云-全球云计算服务及云解决方案提供商" transform="translate(9.000000, 9.000000)">
                        <polygon id="路径" fill="#444444" points="22.0554782 28.3898752 11.9367209 28.3898752 11.9367209 30.6686516 22.0554782 30.6686516"></polygon>
                        <polygon id="路径" fill="#3056D3" points="22.0554782 3.31543 11.9367209 3.31543 11.9367209 5.59419574 22.0554782 5.59419574"></polygon>
                        <g id="编组" fill="#444444">
                            <polygon id="路径" points="5.59413195 11.9367209 3.3153662 11.9367209 3.3153662 22.055372 5.59413195 22.055372"></polygon>
                            <polygon id="路径" points="30.6769391 11.9367209 28.398269 11.9367209 28.398269 22.055372 30.6769391 22.055372"></polygon>
                            <path d="M5.02645132,33.9921991 C4.03230897,33.9921991 3.06050068,33.6973512 2.23390635,33.1450558 C1.40731201,32.5927603 0.763058042,31.8077741 0.382618096,30.8892297 C0.00217804404,29.9707916 -0.0973626309,28.9601271 0.096584008,27.9851631 C0.290530966,27.0100929 0.769252506,26.1144989 1.47221044,25.4115388 C2.17517051,24.7085787 3.07080708,24.2298094 4.04583478,24.0359004 C5.02087312,23.8418851 6.03152696,23.9414428 6.94998636,24.3219295 C7.86844576,24.7023099 8.65347449,25.3466191 9.20579115,26.1731497 C9.75809718,26.9997865 10.052892,27.9715629 10.052892,28.9657584 C10.0507245,30.2981525 9.52045503,31.575402 8.57828029,32.5175343 C7.63610555,33.4597728 6.35887727,33.9899679 5.02645132,33.9921991 Z M5.02645132,25.9959112 C4.43943292,25.9975159 3.86605721,26.1731497 3.37876649,26.5004044 C2.89146514,26.8277653 2.5121047,27.2920845 2.28858338,27.8349235 C2.06507268,28.3777625 2.00743123,28.9745773 2.12294788,29.5501418 C2.23846454,30.1257063 2.52195422,30.6540951 2.9376208,31.0685823 C3.35327675,31.4830695 3.88245182,31.7651673 4.45831381,31.8790689 C5.03417581,31.9929705 5.63088435,31.9336822 6.17306461,31.7086414 C6.71524487,31.4836007 7.17857588,31.1030078 7.50454492,30.614782 C7.83050334,30.1265563 8.00447958,29.5526918 8.00447958,28.9657584 C8.00447958,28.5750716 7.9273941,28.1882098 7.77763258,27.8273796 C7.62787106,27.4664432 7.40837667,27.1387635 7.13172958,26.8628283 C6.85509312,26.5869994 6.52673342,26.3683337 6.16546763,26.2195816 C5.80420183,26.0708295 5.41713817,25.9948597 5.02645132,25.9959112 Z" id="形状"></path>
                            <path d="M28.9822274,33.9922056 C27.9878194,33.9937929 27.015193,33.7004325 26.1874936,33.1490933 C25.3597943,32.5977542 24.71421,31.8132992 24.3325546,30.8949673 C23.9508991,29.9766354 23.8501727,28.9657584 24.0431254,27.990157 C24.2361844,27.0145555 24.71421,26.1182177 25.4168513,25.4144076 C26.1194926,24.7105975 27.0150867,24.2310844 27.9903694,24.0364316 C28.9656521,23.8418851 29.9767416,23.9409115 30.895711,24.3210794 C31.8145742,24.7013536 32.6000917,25.3455566 33.1528121,26.1722997 C33.7054262,26.999149 34.0004867,27.9712442 34.0004867,28.9657584 C33.9982554,30.2967712 33.4691229,31.5727457 32.5287969,32.5146655 C31.5883647,33.4565852 30.3132402,33.9878428 28.9822274,33.9922056 L28.9822274,33.9922056 Z M28.9822274,25.9959112 C28.3945502,25.9943284 27.819517,26.1670934 27.3301225,26.4924355 C26.8406217,26.8177777 26.4586475,27.2810343 26.2326505,27.8235546 C26.0066535,28.3660748 25.9466214,28.9634209 26.0603105,29.5400479 C26.1739997,30.1166749 26.4560975,30.6465512 26.8711159,31.0627384 C27.2861343,31.4789257 27.8152669,31.7626172 28.3915752,31.8777939 C28.9678834,31.9930768 29.565442,31.9347447 30.1085997,31.7102352 C30.6517575,31.4857258 31.1160767,31.1050266 31.4428001,30.6164821 C31.7694173,30.1279376 31.943776,29.5534356 31.943776,28.9657584 C31.943776,28.1794972 31.6320341,27.4253239 31.0768699,26.8686722 C30.5217057,26.3119142 29.7684886,25.9980472 28.9822274,25.9959112 L28.9822274,25.9959112 Z" id="形状"></path>
                            <path d="M5.02645132,10.0528921 C4.03230897,10.0528921 3.06050068,9.75809722 2.23390635,9.20579119 C1.40731201,8.65347454 0.763058042,7.8684458 0.382618096,6.9499864 C0.00217804404,6.031527 -0.0973626309,5.02087316 0.096584008,4.04583483 C0.290530966,3.07080712 0.769252506,2.17517055 1.47221044,1.47221049 C2.17517051,0.769253611 3.07080708,0.290531008 4.04583478,0.0965841569 C5.02087312,-0.0973623757 6.03152696,0.00217750237 6.94998636,0.382617076 C7.86844576,0.763057022 8.65347449,1.40731206 9.20579115,2.23390639 C9.75809718,3.06050072 10.052892,4.03230901 10.052892,5.02645137 C10.052892,6.3595467 9.52332382,7.63803937 8.58068158,8.58068162 C7.63803933,9.52332386 6.35954666,10.0528921 5.02645132,10.0528921 Z M5.02645132,2.05663555 C4.43943292,2.05827263 3.86605721,2.23383201 3.37876649,2.56115045 C2.89146514,2.88845826 2.5121047,3.35284116 2.28858338,3.8956483 C2.06507268,4.43844482 2.00743123,5.03531274 2.12294788,5.61085598 C2.23846454,6.18639922 2.52195422,6.71479866 2.9376208,7.12930709 C3.35327675,7.54381553 3.88245182,7.82584956 4.45831381,7.93977244 C5.03417581,8.05369532 5.63088435,7.99440698 6.17306461,7.76938751 C6.71524487,7.54436803 7.17857588,7.16372196 7.50454492,6.67551747 C7.83050334,6.18732361 8.00447958,5.61346977 8.00447958,5.02645137 C8.00447958,4.6357539 7.9273941,4.24890273 7.77763258,3.88805132 C7.62787106,3.5271999 7.40837667,3.19944584 7.13172958,2.92357439 C6.85509312,2.64769231 6.52673342,2.42911168 6.16546763,2.28034893 C5.80420183,2.13158618 5.41713817,2.05556321 5.02645132,2.05663555 L5.02645132,2.05663555 Z" id="形状"></path>
                            <path d="M28.9822274,10.0528988 C27.9878194,10.0545177 27.015193,9.76110414 26.1874936,9.20978625 C25.3597943,8.65845773 24.71421,7.87400275 24.3325546,6.95569211 C23.9508991,6.03737084 23.8501727,5.02646199 24.0431254,4.05088177 C24.2361844,3.07531218 24.71421,2.1789106 25.4168513,1.47512178 C26.1194926,0.771341454 27.0150867,0.291801776 27.9903694,0.0971876656 C28.9656521,-0.0974265516 29.9767416,0.00163214518 30.895711,0.38182869 C31.8145742,0.762026383 32.6000917,1.40627079 33.1528121,2.23304575 C33.7054262,3.05982071 34.0004867,4.03195838 34.0004867,5.02644074 C33.9982554,6.35745354 33.4691229,7.63343868 32.5287969,8.57537967 C31.5883647,9.51731003 30.3132402,10.0485358 28.9822274,10.0528988 L28.9822274,10.0528988 Z M28.9822274,2.05663546 C28.3945502,2.0550107 27.819517,2.22780755 27.3301225,2.55313908 C26.8406217,2.87847062 26.4586475,3.34172725 26.2326505,3.88423689 C26.0066535,4.42674653 25.9466214,5.02413508 26.0603105,5.60076209 C26.1739997,6.17738909 26.4560975,6.70731855 26.8711159,7.12348451 C27.2861343,7.53963984 27.8152669,7.82329953 28.3915752,7.93856118 C28.9678834,8.05382283 29.565442,7.99549074 30.1085997,7.77096003 C30.6517575,7.54642931 31.1160767,7.16578324 31.4428001,6.67722812 C31.7694173,6.188673 31.943776,5.6141604 31.943776,5.02644074 C31.943776,4.24022199 31.6320341,3.48609119 31.0768699,2.92937572 C30.5217057,2.37267088 29.7684886,2.05882513 28.9822274,2.05663546 L28.9822274,2.05663546 Z" id="形状"></path>
                            <polygon id="路径" points="11.3530813 9.74222325 9.7417557 11.3535063 22.6440054 24.255841 24.255416 22.6445367"></polygon>
                        </g>
                    </g>
                </g>
            </g>
        </g>
    </g>
</svg>