<?xml version="1.0" encoding="UTF-8"?>
<svg width="13px" height="13px" viewBox="0 0 13 13" version="1.1" xmlns="http://www.w3.org/2000/svg" xmlns:xlink="http://www.w3.org/1999/xlink">
    <title>等待</title>
    <g id="页面-1" stroke="none" stroke-width="1" fill="none" fill-rule="evenodd">
        <g id="0412选择账户" transform="translate(-784.000000, -558.000000)" fill="#999999" fill-rule="nonzero">
            <g id="编组-10" transform="translate(172.000000, 93.000000)">
                <g id="编组-9" transform="translate(0.000000, 38.883038)">
                    <g id="编组-7" transform="translate(557.000000, 227.000000)">
                        <g id="编组-3" transform="translate(55.000000, 44.000000)">
                            <g id="等待" transform="translate(0.000000, 156.000000)">
                                <path d="M6.00421595,12.033799 C2.70179652,12.033799 0,9.32609692 0,6.01683239 C0,2.70756787 2.70179652,0 6.00421595,0 C9.30663539,0 12.0084319,2.70756787 12.0084319,6.01683239 C12.0084319,9.32609692 9.30650118,12.033799 6.00421595,12.033799 Z M7.94164431,10.6327034 L7.94164425,10.6327035 C9.14164455,10.1188266 10.0968403,9.16137191 10.6078731,7.96016633 L10.6078733,7.96016604 C11.1331036,6.71784296 11.1331036,5.31581458 10.607873,4.07349821 L10.607873,4.07349818 C10.0969516,2.87220804 9.14172226,1.91471847 7.94164411,1.40096106 L7.94164408,1.40096104 C6.70381191,0.875181777 5.30542619,0.875181777 4.06759268,1.40096107 L4.06759309,1.4009609 C2.86713779,1.91444316 1.91156484,2.87198374 1.40055888,4.07349802 L1.40055853,4.07349885 C0.875328213,5.31582193 0.875328213,6.71785031 1.40055923,7.96016668 L1.40055885,7.96016578 C1.91153393,9.16152705 2.86693777,10.1189992 4.0671904,10.6325687 L4.06719056,10.6325687 C5.30504152,11.1582554 6.70339503,11.1582554 7.94124196,10.6325686 L7.94164431,10.6327034 Z" id="形状"></path>
                                <path d="M5.48546565,6.08125675 L5.48546565,2.73924317 C5.48546565,2.40369964 5.65323742,2.23592788 5.98878095,2.23592788 L5.98878095,2.23592788 C6.32432448,2.23592788 6.49209625,2.40369964 6.49209625,2.73924317 L6.49209625,6.08125675 C6.49209625,6.41680028 6.32432448,6.58457205 5.98878095,6.58457205 L5.98878095,6.58457205 C5.65323742,6.58457205 5.48546565,6.41680028 5.48546565,6.08125675 Z" id="路径"></path>
                                <path d="M9.31737279,6.57115031 L5.97535921,6.57115031 C5.63981568,6.57115031 5.47204391,6.40337854 5.47204391,6.06783501 L5.47204391,6.06783501 C5.47204391,5.73229148 5.63981568,5.56451971 5.97535921,5.56451971 L9.31737279,5.56451971 C9.65291632,5.56451971 9.82068808,5.73229148 9.82068808,6.06783501 L9.82068808,6.06783501 C9.82068808,6.40337854 9.65291632,6.57115031 9.31737279,6.57115031 Z" id="路径"></path>
                            </g>
                        </g>
                    </g>
                </g>
            </g>
        </g>
    </g>
</svg>