<?xml version="1.0" encoding="UTF-8"?>
<svg width="52px" height="52px" viewBox="0 0 52 52" version="1.1" xmlns="http://www.w3.org/2000/svg" xmlns:xlink="http://www.w3.org/1999/xlink">
    <title>批量复制</title>
    <defs>
        <linearGradient x1="49.868%" y1="2.976%" x2="49.868%" y2="101.08%" id="linearGradient-1">
            <stop stop-color="#777777" stop-opacity="0.3" offset="0%"></stop>
            <stop stop-color="#A2A6AB" stop-opacity="0" offset="100%"></stop>
        </linearGradient>
    </defs>
    <g id="深蓝色页面" stroke="none" stroke-width="1" fill="none" fill-rule="evenodd">
        <g id="连山个人版-个人版购买-月卡未悬浮状态" transform="translate(-335.000000, -669.000000)" fill-rule="nonzero">
            <g id="批量复制" transform="translate(335.000000, 669.000000)">
                <circle id="椭圆形" fill="url(#linearGradient-1)" opacity="0.4" cx="26" cy="26" r="26"></circle>
                <g id="阿里云-全球云计算服务及云解决方案提供商" transform="translate(10.000000, 8.000000)">
                    <g id="编组" fill="#444444">
                        <path d="M20.8600875,26.66925 C20.9503125,26.1502875 21.18105,25.665975 21.527325,25.269075 C21.8736,24.872175 22.3221375,24.5777625 22.8241125,24.4180125 C23.3260875,24.25815 23.86215,24.2391375 24.37425,24.362775 C24.8862375,24.486525 25.354575,24.7483125 25.7281875,25.1195625 L26.9209125,23.92695 C26.4956625,23.4991125 25.989975,23.1595875 25.4329875,22.9278375 C24.876,22.6962 24.2787375,22.57695 23.6755125,22.57695 C23.072175,22.57695 22.4749125,22.6962 21.917925,22.9278375 C21.3609375,23.1595875 20.85525,23.4991125 20.43,23.92695 C19.69605,24.6645 19.2402,25.633575 19.1399625,26.66925 L18.2475,26.66925 L19.9351125,29.5821 L21.614625,26.66925 L20.8600875,26.66925 Z" id="路径"></path>
                        <path d="M25.7443875,27.650925 L26.5557375,27.650925 C26.4556125,28.2402 26.1716625,28.782675 25.7443875,29.2006125 C25.196175,29.7187875 24.470325,30.0074625 23.7160125,30.0074625 C22.9617,30.0074625 22.2359625,29.7187875 21.6876375,29.2006125 L20.4949125,30.3933375 C20.9196,30.8221875 21.425175,31.1626125 21.9821625,31.3948125 C22.5392625,31.627125 23.1368625,31.7467125 23.7403125,31.7467125 C24.343875,31.7467125 24.941475,31.627125 25.498575,31.3948125 C26.0555625,31.1626125 26.561025,30.8221875 26.985825,30.3933375 C27.7214625,29.6569125 28.1775375,28.687275 28.2758625,27.650925 L29.168325,27.650925 L27.4807125,24.7381875 L25.7443875,27.650925 Z" id="路径"></path>
                        <path d="M29.2089375,20.040525 L29.2089375,4.86815625 L14.6044125,9.99200722e-16 L0,4.86815625 L0,17.849925 C0,26.969625 6.06897,34.6044375 14.4340875,36 L14.620725,36 L14.80725,36 C16.22925,35.73 17.613225,35.2886625 18.929025,34.68555 C20.8724625,35.7820875 23.1543,36.1166625 25.330725,35.6241375 C27.5070375,35.1316125 29.422575,33.8473125 30.7045125,32.020875 C31.9865625,30.1944375 32.54355,27.9565875 32.2671375,25.74225 C31.990725,23.528025 30.9006,21.4957125 29.2089375,20.040525 Z M14.6044125,33.7768875 C7.42393125,32.48685 2.231235,25.8337125 2.231235,17.882325 L2.231235,6.52332375 L14.5882125,2.36917125 L26.9614125,6.4908675 L26.9614125,18.7099875 C25.0727625,17.9454375 22.9804875,17.8453125 21.0274875,18.4257 C19.074375,19.0062 17.3764125,20.2329 16.211925,21.9047625 C15.047325,23.576625 14.485275,25.5945375 14.6176875,27.62775 C14.7502125,29.66085 15.5694375,31.5887625 16.94115,33.0953625 C16.1773875,33.387975 15.390225,33.6160125 14.5882125,33.7768875 L14.6044125,33.7768875 Z M23.5861875,33.7768875 C22.2507,33.7768875 20.94525,33.380775 19.8349875,32.6386125 C18.724725,31.8965625 17.8594875,30.8417625 17.3487375,29.60775 C16.8381,28.37385 16.7049,27.0160875 16.9660125,25.706475 C17.227125,24.39675 17.87085,23.1939 18.8157375,22.2501375 C19.760625,21.306375 20.9642625,20.6641125 22.2742125,20.404575 C23.584275,20.1450375 24.9418125,20.279925 26.17515,20.792025 C27.4084875,21.3042375 28.4621625,22.1707125 29.202975,23.281875 C29.9437875,24.3930375 30.338325,25.69905 30.3367547,27.034425 C30.3377625,27.9223875 30.163725,28.8016875 29.824425,29.62215 C29.485125,30.4426125 28.9873125,31.18815 28.3595625,31.8159 C27.7317,32.4437625 26.986275,32.941575 26.1658125,33.2807625 C25.3452375,33.6200625 24.4659375,33.7942125 23.5780875,33.7930929" id="形状"></path>
                    </g>
                    <polygon id="路径" fill="#3056D3" points="19.57815 14.677425 9.5983875 14.677425 9.5983875 16.92495 19.57815 16.92495"></polygon>
                </g>
            </g>
        </g>
    </g>
</svg>