<?xml version="1.0" encoding="UTF-8"?>
<svg width="12px" height="12px" viewBox="0 0 12 12" version="1.1" xmlns="http://www.w3.org/2000/svg" xmlns:xlink="http://www.w3.org/1999/xlink">
    <title>删除</title>
    <g id="深蓝色页面" stroke="none" stroke-width="1" fill="none" fill-rule="evenodd">
        <g id="个人版购买-联系客服" transform="translate(-1171.000000, -215.000000)" fill="currentColor">
            <path d="M1182.56627,215.439157 C1183.10843,216.024699 1183.10843,216.975301 1182.56627,217.560843 L1179.13253,221 L1182.56627,224.439157 C1183.10843,225.026506 1183.10843,225.975301 1182.56627,226.560843 C1182.0241,227.146386 1181.12048,227.146386 1180.39759,226.560843 L1176.96386,223.121687 L1173.53012,226.560843 C1172.98795,227.146386 1172.08434,227.146386 1171.54217,226.560843 C1170.81928,225.975301 1170.81928,225.026506 1171.54217,224.439157 L1174.9759,221 L1171.54217,217.560843 C1170.81928,216.975301 1170.81928,216.024699 1171.54217,215.439157 C1172.08434,214.853614 1172.98795,214.853614 1173.53012,215.439157 L1176.96386,218.878313 L1180.39759,215.439157 C1181.12048,214.853614 1182.0241,214.853614 1182.56627,215.439157 Z" id="删除"></path>
        </g>
    </g>
</svg>