<?xml version="1.0" standalone="no"?><!DOCTYPE svg PUBLIC "-//W3C//DTD SVG 1.1//EN" "http://www.w3.org/Graphics/SVG/1.1/DTD/svg11.dtd"><svg t="1641972068622" class="icon" viewBox="0 0 1160 1024" version="1.1" xmlns="http://www.w3.org/2000/svg" p-id="16224" xmlns:xlink="http://www.w3.org/1999/xlink" width="15.859375" height="14"><defs><style type="text/css"></style></defs><path d="M566.613333 0c124.928 0 226.645333 101.512533 226.645334 226.645333 0 6.621867 0 13.1072-0.682667 19.524267a198.314667 198.314667 0 0 1 246.442667 295.048533 202.274133 202.274133 0 0 1 94.208 171.144534v137.6256a56.661333 56.661333 0 1 1-113.322667 0v-137.6256a88.746667 88.746667 0 0 0-88.746667-89.019734h-24.576c-3.413333 0-6.826667-0.341333-9.557333-0.887466a195.515733 195.515733 0 0 1-47.104-1.160534v342.016a56.661333 56.661333 0 1 1-113.322667 0v-339.968c0-93.934933-75.776-169.984-169.984-169.984a170.1888 170.1888 0 0 0-169.984 169.984v339.968a56.661333 56.661333 0 1 1-113.322666 0v-342.016a193.058133 193.058133 0 0 1-47.104 1.160534 50.5856 50.5856 0 0 1-9.557334 0.887466h-24.576a88.746667 88.746667 0 0 0-88.746666 89.019734v137.6256a56.661333 56.661333 0 1 1-113.322667 0v-137.6256C0 640.341333 37.546667 577.1264 94.208 541.218133a198.382933 198.382933 0 0 1 246.442667-295.048533c-0.682667-6.417067-0.682667-12.9024-0.682667-19.524267C339.968 101.512533 441.685333 0 566.613333 0z m311.978667 339.968c-47.104 0-85.333333 38.0928-85.333333 85.060267a85.060267 85.060267 0 1 0 85.333333-85.060267z m-623.274667 0c-47.104 0-85.333333 38.0928-85.333333 85.060267A85.060267 85.060267 0 1 0 255.317333 339.968zM566.613333 113.322667c-62.805333 0-113.322667 50.7904-113.322666 113.322666 0 62.600533 50.517333 113.322667 113.322666 113.322667 62.805333 0 113.322667-50.722133 113.322667-113.322667 0-62.532267-50.517333-113.322667-113.322667-113.322666z" p-id="16225"></path></svg>