<?xml version="1.0" encoding="UTF-8"?>
<svg width="23px" height="23px" viewBox="0 0 23 23" version="1.1" xmlns="http://www.w3.org/2000/svg" xmlns:xlink="http://www.w3.org/1999/xlink">
    <title>联系客服</title>
    <g id="深蓝色页面" stroke="none" stroke-width="1" fill="none" fill-rule="evenodd">
        <g id="0802引导悬浮弹窗" transform="translate(-1845.000000, -864.000000)" fill="#2C71F4">
            <g id="编组-34" transform="translate(1636.000000, 759.000000)">
                <g id="编组-2备份-2" transform="translate(181.000000, 0.000000)">
                    <path d="M39.5,105 C44.9036145,105 48.0903614,109.088735 48.6445783,113.228735 C49.8915663,113.687349 51,114.978675 51,116.5 L51,116.5 L51,118.8 C51,120.70512 49.3373494,122.25 47.5361446,122.25 L47.5361446,122.25 L47.5361446,122.963554 C47.5361446,125.745723 45.1807229,128.001386 42.4096386,128.001386 L42.4096386,128.001386 L41.7168675,128.001386 C41.1626506,128.001386 40.6084337,127.485964 40.6084337,126.85 C40.6084337,126.215422 41.1626506,125.7 41.7168675,125.7 L41.7168675,125.7 L42.4096386,125.7 C43.9337349,125.7 45.1807229,124.475181 45.1807229,122.963554 L45.1807229,122.963554 L45.1807229,121.371566 C44.4879518,120.739759 44.0722892,119.82253 44.0722892,118.8 L44.0722892,118.8 L44.0722892,116.5 C44.0722892,115.140783 44.7650602,113.964458 46.0120482,113.401928 C45.7349398,110.432711 43.6566265,107.3 39.5,107.3 C35.2048193,107.3 33.2650602,110.432711 32.8493976,113.401928 C34.0963855,113.964458 34.7891566,115.140783 34.7891566,116.5 L34.7891566,116.5 L34.7891566,118.8 C34.7891566,120.70512 33.2650602,122.25 31.3253012,122.25 C29.5240964,122.25 28,120.70512 28,118.8 L28,118.8 L28,116.5 C28,114.978675 28.9698795,113.687349 30.3554217,113.228735 C30.7710843,109.088735 33.9578313,105 39.5,105 Z M31.3253012,115.35 C30.7710843,115.35 30.2168675,115.865422 30.2168675,116.5 L30.2168675,118.8 C30.2168675,119.435964 30.7710843,119.95 31.3253012,119.95 C32.0180723,119.95 32.5722892,119.435964 32.5722892,118.8 L32.5722892,116.5 C32.5722892,115.865422 32.0180723,115.35 31.3253012,115.35 Z M47.5361446,115.35 C46.8433735,115.35 46.2891566,115.865422 46.2891566,116.5 L46.2891566,116.5 L46.2891566,118.8 C46.2891566,119.435964 46.8433735,119.95 47.5361446,119.95 C48.0903614,119.95 48.6445783,119.435964 48.6445783,118.8 L48.6445783,118.8 L48.6445783,116.5 C48.6445783,115.865422 48.0903614,115.35 47.5361446,115.35 Z" id="联系客服"></path>
                </g>
            </g>
        </g>
    </g>
</svg>