<?xml version="1.0" encoding="UTF-8"?>
<svg width="16px" height="16px" viewBox="0 0 16 16" version="1.1" xmlns="http://www.w3.org/2000/svg" xmlns:xlink="http://www.w3.org/1999/xlink">
    <title>形状</title>
    <g id="首页设计" stroke="none" stroke-width="1" fill="none" fill-rule="evenodd">
        <g id="右侧联系客服悬浮按钮" transform="translate(-1412.000000, -427.000000)" fill="#3051D7" fill-rule="nonzero" stroke="#3051D7" stroke-width="0.576">
            <g id="编组-9备份" transform="translate(1400.000000, 416.000000)">
                <g id="编组-5" transform="translate(12.000000, 11.083333)">
                    <g id="客服" transform="translate(0.806452, 0.808468)">
                        <path d="M0.763999668,7.97232266 L0.763999668,9.57029569 L0.763999668,9.57029587 C0.763999668,10.230878 1.2770866,10.7663842 1.91001,10.7663842 C2.54293477,10.7663842 3.05602032,10.2308766 3.05602032,9.57029587 L3.05602032,7.97232284 L3.05602032,7.97232284 C3.05602032,7.31174069 2.54293339,6.77623447 1.91001,6.77623447 C1.27708522,6.77623447 0.763999668,7.31174213 0.763999668,7.97232284 L0.763999668,7.97232266 Z M11.2969784,11.0199588 L11.2969783,11.0199587 C10.913256,10.6442325 10.6957298,10.1194458 10.6960873,9.57029561 L10.6960873,7.97232258 L10.6960873,7.97232937 C10.6968973,6.87740869 11.5436755,5.98810221 12.5927249,5.98043821 C12.3967629,3.0839068 10.0829641,0.797383782 7.25805627,0.797383782 C4.43276199,0.797383782 2.1193469,3.0839068 1.92337384,5.98043821 L1.92337378,5.98043821 C2.97216503,5.98875152 3.81858973,6.87767232 3.82002523,7.97232937 L3.82002523,9.5703024 L3.82002523,9.5703024 C3.82002523,10.6712722 2.96488125,11.5637782 1.91001261,11.5637782 C0.85513845,11.5637782 0,10.6712664 0,9.5703024 L0,7.97232937 L0,7.97230422 C0.000454916603,7.17849667 0.45211142,6.46062323 1.14985306,6.14469928 C1.26825209,2.73027156 3.95756249,0 7.25806175,0 C10.5585748,0 13.2478833,2.73027156 13.366298,6.14471368 L13.3662981,6.1447137 C14.0638354,6.4608984 14.5153851,7.17862346 14.516129,7.97233305 L14.516129,9.57030608 L14.516129,9.57033559 C14.5154006,10.6713039 13.6596655,11.5632064 12.6047913,11.5624428 C12.3869311,11.5622858 12.1707023,11.5232289 11.9654634,11.4469625 L11.9654634,11.4469625 C11.2441161,12.2398697 10.3497692,12.8389886 9.35866841,13.1932455 L9.35866839,13.1932467 C9.34019187,13.9512927 8.7447819,14.5550273 8.01824335,14.5524196 L6.87910823,14.5524196 C6.13802145,14.5524196 5.53865834,13.9304444 5.53865834,13.1569738 C5.53865834,12.3846989 6.13611252,11.7615364 6.87949056,11.7615364 L8.01786101,11.7615364 C8.50033181,11.7615364 8.92244546,12.0246752 9.15852411,12.4213781 L9.15852358,12.4213782 C9.96215389,12.1258993 10.69256,11.647147 11.2966009,11.0199609 L11.2969784,11.0199588 Z M11.4600938,7.97232266 L11.4600938,9.57029569 L11.4600938,9.57029584 C11.4600938,10.230878 11.9731807,10.7663842 12.6061041,10.7663842 C13.2390289,10.7663842 13.7521144,10.2308765 13.7521144,9.57029584 L13.7521144,7.97232281 L13.7521144,7.97232281 C13.7521144,7.31174066 13.2390275,6.77623443 12.6061041,6.77623443 C11.9731793,6.77623443 11.4600938,7.3117421 11.4600938,7.97232281 L11.4600938,7.97232266 Z M6.87987584,13.7550131 L8.01824629,13.7550131 C8.33989303,13.7550131 8.59507209,13.4886833 8.59507209,13.156969 C8.59507209,12.8248555 8.33874739,12.5589248 8.01824629,12.5589248 L6.87987584,12.5589248 C6.5582291,12.5589248 6.30305005,12.8252546 6.30305005,13.156969 C6.30305005,13.4890824 6.55937474,13.7550131 6.87987584,13.7550131 L6.87987584,13.7550131 Z" id="形状"></path>
                    </g>
                </g>
            </g>
        </g>
    </g>
</svg>