<?xml version="1.0" standalone="no"?><!DOCTYPE svg PUBLIC "-//W3C//DTD SVG 1.1//EN" "http://www.w3.org/Graphics/SVG/1.1/DTD/svg11.dtd"><svg t="1647438747893" class="icon" viewBox="0 0 1024 1024" version="1.1" xmlns="http://www.w3.org/2000/svg" p-id="4861" xmlns:xlink="http://www.w3.org/1999/xlink" width="200" height="200"><defs><style type="text/css"></style></defs><path d="M536.877176 4.577882L548.141176 8.131765l421.647059 147.456v1.566117c6.023529 1.505882 6.023529 3.433412 12.047059 5.662118 4.517647 4.156235 9.035294 9.577412 13.552941 16.022588l4.517647 6.746353v8.312471c0 3.734588 4.216471 7.408941 2.108236 11.083294l-2.108236 2.228706v528.082823c0 18.552471-4.758588 35.659294-18.492235 45.176471l-5.601882 3.19247-451.764706 211.727059a51.621647 51.621647 0 0 1-35.71953 2.529883L481.882353 995.388235 30.117647 783.661176a53.308235 53.308235 0 0 1-29.696-41.502117L0 735.292235V206.004706c0-20.48 14.637176-38.912 30.72-47.706353l5.421176-2.529882 421.647059-147.636706a128.963765 128.963765 0 0 1 79.088941-3.614118zM102.4 279.431529v421.466353l349.364706 164.683294V402.913882l-349.364706-123.482353z m801.129412 0l-349.364706 123.482353v462.667294l349.364706-164.683294V279.431529zM487.905882 108.604235L210.823529 206.004706l289.129412 103.002353 295.152941-103.002353-277.082353-97.400471a42.526118 42.526118 0 0 0-30.117647 0z" p-id="4862"></path></svg>