<?xml version="1.0" encoding="UTF-8"?>
<svg width="122px" height="114px" viewBox="0 0 122 114" version="1.1" xmlns="http://www.w3.org/2000/svg" xmlns:xlink="http://www.w3.org/1999/xlink">
    <title>暂无数据</title>
    <defs>
        <linearGradient x1="0%" y1="50%" x2="97.2339146%" y2="50%" id="linearGradient-1">
            <stop stop-color="#83A6FF" offset="0%"></stop>
            <stop stop-color="#5A78FF" offset="100%"></stop>
        </linearGradient>
        <linearGradient x1="0.89456869%" y1="51.5923567%" x2="97.9233227%" y2="51.5923567%" id="linearGradient-2">
            <stop stop-color="#FF66A9" offset="0%"></stop>
            <stop stop-color="#F53689" offset="100%"></stop>
        </linearGradient>
        <path d="M89.026,11.284571 C89.026,11.284571 88.928,15.794571 87.558,44.364571 C87.558,44.564571 87.558,44.764571 87.558,44.954571 C85.895,73.034571 60.948,78.924571 57.915,79.224571 C56.546,79.324571 53.904,79.514571 49.111,79.614571 C43.241,79.814571 34.241,79.914571 20.251,80.104571 C19.762,80.104571 19.468,79.614571 19.664,79.224571 C29.447,59.684571 29.545,11.374571 29.545,11.374571 L89.026,11.374571 L89.026,11.284571 Z" id="path-3"></path>
        <filter x="-55.5%" y="-40.0%" width="210.9%" height="211.9%" filterUnits="objectBoundingBox" id="filter-4">
            <feOffset dx="0" dy="11" in="SourceAlpha" result="shadowOffsetOuter1"></feOffset>
            <feGaussianBlur stdDeviation="11" in="shadowOffsetOuter1" result="shadowBlurOuter1"></feGaussianBlur>
            <feColorMatrix values="0 0 0 0 0.396078431   0 0 0 0 0.478431373   0 0 0 0 0.576470588  0 0 0 0.18 0" type="matrix" in="shadowBlurOuter1"></feColorMatrix>
        </filter>
        <path d="M105.573,75.104571 C105.475,75.794571 105.377,76.484571 105.279,77.174571 C105.279,77.264571 105.181,77.364571 105.181,77.464571 C105.181,77.564571 105.084,77.664571 105.084,77.854571 C104.79,79.234571 104.301,80.504571 103.714,81.684571 C101.953,85.024571 99.311,87.674571 96.083,89.344571 C95.692,89.544571 95.3,89.734571 94.909,89.934571 C93.931,90.324571 93.05,90.624571 91.974,90.814571 C91.681,90.914571 91.485,90.914571 91.192,91.014571 C89.039,91.404571 86.789,91.404571 84.539,90.914571 C75.05,88.954571 68.984,79.624571 70.941,70.104571 C72.897,60.574571 82.191,54.494571 91.681,56.454571 C95.007,57.144571 98.137,58.814571 100.485,61.264571 C104.203,64.894571 105.964,70.004571 105.573,75.104571 Z" id="path-6"></path>
        <filter x="-41.4%" y="-27.0%" width="182.7%" height="182.4%" filterUnits="objectBoundingBox" id="filter-6">
            <feOffset dx="0" dy="5" in="SourceAlpha" result="shadowOffsetOuter1"></feOffset>
            <feGaussianBlur stdDeviation="4" in="shadowOffsetOuter1" result="shadowBlurOuter1"></feGaussianBlur>
            <feColorMatrix values="0 0 0 0 0.11372549   0 0 0 0 0.294117647   0 0 0 0 1  0 0 0 0.22 0" type="matrix" in="shadowBlurOuter1"></feColorMatrix>
        </filter>
        <linearGradient x1="32.7114725%" y1="12.3455957%" x2="75.125568%" y2="63.5810682%" id="linearGradient-7">
            <stop stop-color="#4F6AFF" offset="0%"></stop>
            <stop stop-color="#657EFF" stop-opacity="0" offset="100%"></stop>
        </linearGradient>
        <linearGradient x1="58.1440252%" y1="76.8975682%" x2="32.713747%" y2="16.4002778%" id="linearGradient-8">
            <stop stop-color="#C2D1FF" offset="1.13208%"></stop>
            <stop stop-color="#FFFFFF" offset="100%"></stop>
        </linearGradient>
        <linearGradient x1="56.1301989%" y1="93.642776%" x2="46.7955779%" y2="29.4401811%" id="linearGradient-9">
            <stop stop-color="#C2D1FF" offset="1.13208%"></stop>
            <stop stop-color="#FFFFFF" offset="100%"></stop>
        </linearGradient>
    </defs>
    <g id="6.8表格-/-Table" stroke="none" stroke-width="1" fill="none" fill-rule="evenodd">
        <g transform="translate(-1014.000000, -9552.000000)" id="45">
            <g transform="translate(1017.000000, 9552.000000)">
                <g id="44" transform="translate(0.000000, 0.000000)">
                    <path d="M107.222,49.664571 C107.222,60.764571 103.505,70.974571 97.341,79.224571 C93.917,83.644571 89.808,87.564571 85.112,90.614571 C77.482,95.614571 68.383,98.564571 58.6,98.564571 C31.697,98.564571 9.979,76.674571 9.979,49.764571 C9.979,22.764571 31.795,0.97457103 58.6,0.97457103 C68.383,0.97457103 77.482,3.91457103 85.112,8.82457103 C89.808,11.864571 93.917,15.794571 97.341,20.214571 C103.602,28.364571 107.222,38.574571 107.222,49.664571 Z" id="Path" fill="#EAEEF9" fill-rule="nonzero"></path>
                    <path d="M18.67,11.264571 C19.955,10.844571 20.658,9.46457103 20.24,8.17457103 C19.823,6.88457103 18.443,6.17457103 17.158,6.59457103 C15.874,7.01457103 15.171,8.39457103 15.588,9.68457103 C16.006,10.974571 17.386,11.684571 18.67,11.264571 Z" id="Path" fill="#EAEEF9" fill-rule="nonzero"></path>
                    <path d="M24.009,3.25457103 C24.882,2.97457103 25.36,2.02457103 25.077,1.15457103 C24.793,0.27457103 23.854,-0.20542897 22.981,0.08457103 C22.107,0.36457103 21.629,1.30457103 21.913,2.18457103 C22.197,3.06457103 23.135,3.54457103 24.009,3.25457103 Z" id="Path" fill="#EAEEF9" fill-rule="nonzero"></path>
                    <path d="M1.663,56.154571 C2.582,56.154571 3.326,55.404571 3.326,54.484571 C3.326,53.554571 2.582,52.814571 1.663,52.814571 C0.745,52.814571 0,53.554571 0,54.484571 C0,55.404571 0.745,56.154571 1.663,56.154571 Z" id="Path" fill="url(#linearGradient-1)" fill-rule="nonzero"></path>
                    <path d="M117.256,35.454571 C118.771,34.064571 118.877,31.704571 117.492,30.174571 C116.107,28.654571 113.756,28.554571 112.24,29.944571 C110.724,31.334571 110.618,33.694571 112.003,35.214571 C113.388,36.734571 115.74,36.844571 117.256,35.454571 Z" id="Path" fill="#EAEEF9" fill-rule="nonzero"></path>
                    <path d="M116.516,19.134571 C117.38,19.134571 118.081,18.434571 118.081,17.564571 C118.081,16.694571 117.38,15.994571 116.516,15.994571 C115.651,15.994571 114.951,16.694571 114.951,17.564571 C114.951,18.434571 115.651,19.134571 116.516,19.134571 Z" id="Path" fill="url(#linearGradient-2)" fill-rule="nonzero"></path>
                    <line x1="10.859" y1="92.964571" x2="111.625" y2="92.964571" id="Path" stroke="#EBF0F6" stroke-width="2" stroke-linecap="round" stroke-linejoin="round"></line>
                    <path d="M92.058,8.53457103 L92.058,89.924571 C92.058,91.394571 90.884,92.674571 89.319,92.674571 L29.349,92.674571 C27.882,92.674571 26.61,91.494571 26.61,89.924571 L26.61,8.53457103 C26.61,7.05457103 27.882,5.88457103 29.349,5.88457103 L89.417,5.88457103 C90.884,5.88457103 92.058,7.05457103 92.058,8.53457103 Z" id="Path" fill="#CED7E2" fill-rule="nonzero"></path>
                    <path d="M92.058,14.424571 L92.058,89.924571 C92.058,91.394571 90.884,92.674571 89.319,92.674571 L34.534,92.674571 L29.74,87.864571 L84.232,13.044571 L88.928,11.284571 L92.058,14.424571 Z" id="Path" fill="#BCC4CF" fill-rule="nonzero"></path>
                    <path d="M89.612,12.554571 L30.229,12.554571 L30.229,88.154571 C30.229,88.744571 30.719,89.134571 31.208,89.134571 L89.612,89.134571 L89.612,12.554571 Z" id="Path" fill="#A6AFBA" fill-rule="nonzero"></path>
                    <path d="M88.145,11.184571 L30.621,11.184571 C30.132,11.184571 29.74,11.574571 29.74,12.064571 L29.74,86.784571 C29.74,87.274571 30.132,87.664571 30.621,87.664571 L88.145,87.664571 C88.634,87.664571 89.025,87.274571 89.025,86.784571 L89.025,12.164571 C89.123,11.674571 88.732,11.184571 88.145,11.184571 Z" id="Path" fill="#E3EAF2" fill-rule="nonzero"></path>
                    <g id="Path" fill-rule="nonzero">
                        <use fill="black" fill-opacity="1" filter="url(#filter-4)" xlink:href="#path-3"></use>
                        <use fill="#FFFFFF" xlink:href="#path-3"></use>
                    </g>
                    <path d="M78.362,25.714571 L39.524,25.714571 C39.23,25.714571 38.937,25.414571 38.937,25.124571 C38.937,24.824571 39.23,24.534571 39.524,24.534571 L78.362,24.534571 C78.656,24.534571 78.949,24.824571 78.949,25.124571 C78.949,25.414571 78.656,25.714571 78.362,25.714571 Z" id="Path" fill="#CED7E2" fill-rule="nonzero"></path>
                    <path d="M78.166,29.244571 L62.709,29.244571 C62.416,29.244571 62.122,28.954571 62.122,28.654571 C62.122,28.364571 62.416,28.064571 62.709,28.064571 L78.166,28.064571 C78.46,28.064571 78.753,28.364571 78.753,28.654571 C78.753,28.954571 78.46,29.244571 78.166,29.244571 Z" id="Path" fill="#CED7E2" fill-rule="nonzero"></path>
                    <path d="M58.405,29.244571 L39.23,29.244571 C38.937,29.244571 38.643,28.954571 38.643,28.654571 C38.643,28.364571 38.937,28.064571 39.23,28.064571 L58.405,28.064571 C58.698,28.064571 58.992,28.364571 58.992,28.654571 C58.992,28.954571 58.796,29.244571 58.405,29.244571 Z" id="Path" fill="#E3EAF2" fill-rule="nonzero"></path>
                    <path d="M52.535,32.684571 L39.034,32.684571 C38.741,32.684571 38.447,32.384571 38.447,32.094571 C38.447,31.804571 38.741,31.504571 39.034,31.504571 L52.633,31.504571 C52.926,31.504571 53.22,31.804571 53.22,32.094571 C53.22,32.384571 52.926,32.684571 52.535,32.684571 Z" id="Path" fill="#CED7E2" fill-rule="nonzero"></path>
                    <path d="M77.09,41.424571 L55.567,41.424571 C55.274,41.424571 54.98,41.124571 54.98,40.834571 C54.98,40.534571 55.274,40.244571 55.567,40.244571 L77.09,40.244571 C77.384,40.244571 77.677,40.534571 77.677,40.834571 C77.677,41.124571 77.384,41.424571 77.09,41.424571 Z" id="Path" fill="#CED7E2" fill-rule="nonzero"></path>
                    <path d="M51.165,41.424571 L38.447,41.424571 C38.154,41.424571 37.86,41.124571 37.86,40.834571 C37.86,40.534571 38.154,40.244571 38.447,40.244571 L51.165,40.244571 C51.459,40.244571 51.752,40.534571 51.752,40.834571 C51.752,41.124571 51.459,41.424571 51.165,41.424571 Z" id="Path" fill="#E3EAF2" fill-rule="nonzero"></path>
                    <path d="M76.895,44.854571 L67.796,44.854571 C67.503,44.854571 67.209,44.564571 67.209,44.264571 C67.209,43.974571 67.503,43.684571 67.796,43.684571 L76.895,43.684571 C77.188,43.684571 77.482,43.974571 77.482,44.264571 C77.482,44.564571 77.188,44.854571 76.895,44.854571 Z" id="Path" fill="#CED7E2" fill-rule="nonzero"></path>
                    <path d="M62.807,44.854571 L37.958,44.854571 C37.665,44.854571 37.371,44.564571 37.371,44.264571 C37.371,43.974571 37.665,43.684571 37.958,43.684571 L62.807,43.684571 C63.1,43.684571 63.394,43.974571 63.394,44.264571 C63.394,44.564571 63.1,44.854571 62.807,44.854571 Z" id="Path" fill="#E3EAF2" fill-rule="nonzero"></path>
                    <path d="M60.851,48.394571 L37.469,48.394571 C37.176,48.394571 36.882,48.094571 36.882,47.804571 C36.882,47.504571 37.176,47.214571 37.469,47.214571 L60.851,47.214571 C61.144,47.214571 61.437,47.504571 61.437,47.804571 C61.437,48.094571 61.144,48.394571 60.851,48.394571 Z" id="Path" fill="#E3EAF2" fill-rule="nonzero"></path>
                    <path d="M74.84,57.324571 L49.404,57.324571 C49.111,57.324571 48.817,57.034571 48.817,56.734571 C48.817,56.444571 49.111,56.144571 49.404,56.144571 L74.84,56.144571 C75.133,56.144571 75.427,56.444571 75.427,56.734571 C75.427,57.034571 75.133,57.324571 74.84,57.324571 Z" id="Path" fill="#E3EAF2" fill-rule="nonzero"></path>
                    <path d="M45.393,57.324571 L35.904,57.324571 C35.61,57.324571 35.317,57.034571 35.317,56.734571 C35.317,56.444571 35.61,56.144571 35.904,56.144571 L45.393,56.144571 C45.687,56.144571 45.98,56.444571 45.98,56.734571 C45.98,57.034571 45.785,57.324571 45.393,57.324571 Z" id="Path" fill="#CED7E2" fill-rule="nonzero"></path>
                    <path d="M74.547,60.864571 L55.959,60.864571 C55.666,60.864571 55.372,60.564571 55.372,60.274571 C55.372,59.974571 55.666,59.684571 55.959,59.684571 L74.645,59.684571 C74.938,59.684571 75.232,59.974571 75.232,60.274571 C75.232,60.564571 74.938,60.864571 74.547,60.864571 Z" id="Path" fill="#CED7E2" fill-rule="nonzero"></path>
                    <path d="M52.437,60.864571 L35.512,60.864571 C35.219,60.864571 34.925,60.564571 34.925,60.274571 C34.925,59.974571 35.219,59.684571 35.512,59.684571 L52.437,59.684571 C52.73,59.684571 53.024,59.974571 53.024,60.274571 C53.024,60.564571 52.73,60.864571 52.437,60.864571 Z" id="Path" fill="#E3EAF2" fill-rule="nonzero"></path>
                    <path d="M46.567,64.294571 L34.73,64.294571 C34.436,64.294571 34.143,64.004571 34.143,63.714571 C34.143,63.414571 34.436,63.124571 34.73,63.124571 L46.567,63.124571 C46.861,63.124571 47.154,63.414571 47.154,63.714571 C47.154,64.004571 46.861,64.294571 46.567,64.294571 Z" id="Path" fill="#E3EAF2" fill-rule="nonzero"></path>
                    <path d="M87.46,44.954571 C85.797,73.034571 60.851,78.924571 57.818,79.224571 C56.448,79.324571 53.807,79.514571 49.013,79.614571 C61.438,73.824571 68.188,63.514571 67.992,55.464571 C74.058,55.854571 84.428,55.364571 87.46,44.954571 Z" id="Path" fill="#EAEEF9" fill-rule="nonzero"></path>
                    <path d="M72.688,5.68457103 L63.296,5.68457103 C63.296,5.48457103 63.394,5.38457103 63.394,5.19457103 C63.394,3.32457103 61.829,1.75457103 59.97,1.75457103 C58.111,1.75457103 56.546,3.32457103 56.546,5.19457103 C56.546,5.38457103 56.546,5.58457103 56.644,5.68457103 L47.252,5.68457103 C46.763,5.68457103 46.274,6.07457103 46.274,6.66457103 L46.274,9.70457103 C46.274,11.964571 48.132,13.834571 50.383,13.834571 L69.557,13.834571 C71.807,13.834571 73.666,11.964571 73.666,9.70457103 L73.666,6.66457103 C73.666,6.07457103 73.177,5.68457103 72.688,5.68457103 Z" id="Path" fill="#1C3754" fill-rule="nonzero"></path>
                    <path d="M72.101,5.09457103 L62.709,5.09457103 C62.709,4.89457103 62.807,4.80457103 62.807,4.60457103 C62.807,2.73457103 61.242,1.16457103 59.383,1.16457103 C57.524,1.16457103 55.959,2.73457103 55.959,4.60457103 C55.959,4.80457103 55.959,4.99457103 56.057,5.09457103 L46.665,5.09457103 C46.176,5.09457103 45.687,5.48457103 45.687,6.07457103 L45.687,9.12457103 C45.687,11.374571 47.546,13.244571 49.796,13.244571 L68.97,13.244571 C71.22,13.244571 73.079,11.374571 73.079,9.12457103 L73.079,6.07457103 C73.079,5.48457103 72.59,5.09457103 72.101,5.09457103 Z" id="Path" fill="#2D5887" fill-rule="nonzero"></path>
                    <path d="M59.383,6.17457103 C60.248,6.17457103 60.948,5.47457103 60.948,4.60457103 C60.948,3.73457103 60.248,3.03457103 59.383,3.03457103 C58.519,3.03457103 57.818,3.73457103 57.818,4.60457103 C57.818,5.47457103 58.519,6.17457103 59.383,6.17457103 Z" id="Path" fill="#EAEEF9" fill-rule="nonzero"></path>
                    <g id="Path" fill-rule="nonzero">
                        <use fill="black" fill-opacity="1" filter="url(#filter-6)" xlink:href="#path-6"></use>
                        <use fill="#2C71F4" xlink:href="#path-6"></use>
                    </g>
                    <path d="M105.559,75.194571 C105.559,75.884571 105.363,76.574571 105.265,77.254571 C105.265,77.354571 105.265,77.454571 105.168,77.554571 C105.168,77.654571 105.168,77.754571 105.07,77.944571 C104.776,79.324571 104.287,80.594571 103.7,81.774571 C101.939,85.114571 99.298,87.764571 96.069,89.434571 C95.678,89.634571 95.287,89.824571 94.895,90.024571 L82.862,82.654571 L85.308,74.214571 L88.634,69.404571 L96.069,68.814571 L105.559,75.194571 Z" id="Path" fill="url(#linearGradient-7)" fill-rule="nonzero"></path>
                    <path d="M92.743,74.114571 C92.743,74.014571 92.743,74.014571 92.743,73.924571 C92.743,73.924571 92.743,73.824571 92.841,73.724571 C92.841,73.624571 92.841,73.624571 92.939,73.524571 C93.037,73.334571 93.135,73.034571 93.232,72.744571 C93.33,72.644571 93.624,71.954571 93.624,71.854571 L87.95,68.714571 C87.852,68.714571 87.754,69.014571 87.656,69.204571 C87.461,69.404571 87.363,69.694571 87.265,69.694571 C87.265,69.694571 86.971,69.994571 86.971,70.094571 L86.776,70.284571 C86.58,70.484571 86.287,70.774571 85.602,71.074571 C84.623,71.564571 83.841,71.274571 83.547,71.364571 L83.352,71.464571 C83.254,71.464571 83.156,71.564571 83.156,71.664571 C82.862,71.954571 82.96,71.954571 82.765,82.164571 C82.765,82.464571 83.156,82.564571 83.352,82.364571 L86.678,76.674571 C86.874,76.374571 87.167,76.274571 87.461,76.474571 C87.754,76.674571 87.852,76.964571 87.656,77.254571 L84.134,82.954571 C83.939,83.244571 84.232,83.544571 84.526,83.344571 L87.461,81.574571 L87.558,81.484571 L90.591,79.614571 C92.939,78.144571 93.33,78.044571 93.428,77.554571 C93.526,77.164571 93.232,76.964571 92.939,76.174571 C92.841,75.984571 92.548,75.004571 92.743,74.114571 Z M89.613,75.494571 C89.124,76.274571 88.145,76.574571 87.363,76.084571 C86.58,75.594571 86.287,74.604571 86.776,73.824571 C87.265,73.034571 88.243,72.744571 89.026,73.234571 C89.808,73.724571 90.102,74.704571 89.613,75.494571 Z" id="Shape" fill="url(#linearGradient-8)" fill-rule="nonzero"></path>
                    <path d="M93.722,71.764571 C93.624,71.854571 93.33,72.544571 93.33,72.644571 C93.232,72.934571 93.037,73.234571 93.037,73.424571 L87.265,69.794571 C87.363,69.694571 87.46,69.504571 87.656,69.304571 C87.754,69.104571 87.95,68.814571 87.95,68.814571 L93.722,71.764571 Z" id="Path" fill="#C4D1FF" fill-rule="nonzero"></path>
                    <path d="M93.232,72.934571 L87.46,69.304571 C86.971,69.014571 86.873,68.324571 87.167,67.934571 L88.732,65.374571 C89.026,64.884571 89.71,64.794571 90.102,65.084571 L95.874,68.714571 C96.363,69.014571 96.461,69.694571 96.167,70.094571 L94.602,72.644571 C94.308,73.134571 93.624,73.234571 93.232,72.934571 Z" id="Path" fill="url(#linearGradient-9)" fill-rule="nonzero"></path>
                </g>
            </g>
        </g>
    </g>
</svg>