<?xml version="1.0" encoding="UTF-8"?>
<svg width="16px" height="16px" viewBox="0 0 16 16" version="1.1" xmlns="http://www.w3.org/2000/svg" xmlns:xlink="http://www.w3.org/1999/xlink">
    <title>删除</title>
    <g id="页面-1" stroke="none" stroke-width="1" fill="none" fill-rule="evenodd">
        <g id="跨账户页面" transform="translate(-1335.000000, -399.000000)" fill-rule="nonzero">
            <g id="删除" transform="translate(1335.000000, 399.000000)">
                <rect id="矩形" fill="#000000" opacity="0" x="0" y="0" width="16" height="16"></rect>
                <path d="M3.16666667,4 L2.5,4 C2.22385763,4 2,3.77614237 2,3.5 C2,3.22385763 2.22385763,3 2.5,3 L13.5,3 C13.7761424,3 14,3.22385763 14,3.5 C14,3.77614237 13.7761424,4 13.5,4 L4.16666667,4 L4.16666667,12.8333333 C4.16666667,13.0543471 4.25446403,13.2663087 4.41074435,13.422589 C4.56702466,13.5788693 4.77898626,13.6666667 5,13.6666667 L11,13.6666667 C11.2210137,13.6666667 11.4329753,13.5788693 11.5892557,13.422589 C11.745536,13.2663087 11.8333333,13.0543471 11.8333333,12.8333333 L11.8333333,5.5 C11.8333333,5.22385763 12.057191,5 12.3333333,5 C12.6094757,5 12.8333333,5.22385763 12.8333333,5.5 L12.8333333,12.8333333 C12.8333333,13.8458333 12.0125,14.6666667 11,14.6666667 L5,14.6666667 C3.9875,14.6666667 3.16666667,13.8458333 3.16666667,12.8333333 L3.16666667,4 Z M6.66666667,2.33333333 C6.3905243,2.33333333 6.16666667,2.1094757 6.16666667,1.83333333 C6.16666667,1.55719095 6.3905243,1.33333333 6.66666667,1.33333333 L9.33333333,1.33333333 C9.6094757,1.33333333 9.83333333,1.55719095 9.83333333,1.83333333 C9.83333333,2.1094757 9.6094757,2.33333333 9.33333333,2.33333333 L6.66666667,2.33333333 L6.66666667,2.33333333 Z M6.16666667,6.83333333 C6.16666667,6.55719095 6.3905243,6.33333333 6.66666667,6.33333333 C6.94280905,6.33333333 7.16666667,6.55719095 7.16666667,6.83333333 L7.16666667,10.8333333 C7.16666667,11.1094757 6.94280905,11.3333333 6.66666667,11.3333333 C6.3905243,11.3333333 6.16666667,11.1094757 6.16666667,10.8333333 L6.16666667,6.83333333 Z M8.83333333,6.83333333 C8.83333333,6.55719095 9.05719095,6.33333333 9.33333333,6.33333333 C9.6094757,6.33333333 9.83333333,6.55719095 9.83333333,6.83333333 L9.83333333,10.8333333 C9.83333333,11.1094757 9.6094757,11.3333333 9.33333333,11.3333333 C9.05719095,11.3333333 8.83333333,11.1094757 8.83333333,10.8333333 L8.83333333,6.83333333 Z" id="形状" fill="#B1BAC8"></path>
            </g>
        </g>
    </g>
</svg>