<?xml version="1.0" encoding="UTF-8"?>
<svg width="16px" height="16px" viewBox="0 0 16 16" version="1.1" xmlns="http://www.w3.org/2000/svg" xmlns:xlink="http://www.w3.org/1999/xlink">
    <title>编辑</title>
    <g id="页面-1" stroke="none" stroke-width="1" fill="none" fill-rule="evenodd">
        <g id="添加视频空状态" transform="translate(-176.000000, -345.000000)" fill-rule="nonzero">
            <g id="编辑" transform="translate(176.000000, 345.000000)">
                <g id="edit_svg__a-link" opacity="0.01" fill="#000000">
                    <polygon id="edit_svg__a" points="0 0 16 0 16 16 0 16"></polygon>
                </g>
                <path d="M1.90833333,14.57 C1.5401435,14.57 1.24166667,14.2715232 1.24166667,13.9033333 C1.24166667,13.5351435 1.5401435,13.2366667 1.90833333,13.2366667 L13.9083333,13.2366667 C14.2765232,13.2366667 14.575,13.5351435 14.575,13.9033333 C14.575,14.2715232 14.2765232,14.57 13.9083333,14.57 L1.90833333,14.57 Z M2.575,8.81 C2.575,8.63336679 2.64517095,8.463968 2.77,8.339 L9.66833333,1.43233333 C9.79337884,1.30714864 9.9630605,1.2368089 10.14,1.2368089 C10.3169395,1.2368089 10.4866212,1.30714864 10.6116667,1.43233333 L13.0463333,3.86833333 C13.3063659,4.12862836 13.3063659,4.55037164 13.0463333,4.81066667 L6.152,11.708 C6.02700485,11.8330329 5.85746321,11.9033333 5.68066667,11.9033333 L3.24166667,11.9033333 C2.87347683,11.9033333 2.575,11.6048565 2.575,11.2366667 L2.575,8.81 Z M3.90833333,9.086 L3.90833333,10.57 L5.40433333,10.57 L11.6323333,4.34 L10.14,2.84666667 L3.90833333,9.086 Z" id="形状" fill="#0052FF"></path>
            </g>
        </g>
    </g>
</svg>