<?xml version="1.0" standalone="no"?><!DOCTYPE svg PUBLIC "-//W3C//DTD SVG 1.1//EN" "http://www.w3.org/Graphics/SVG/1.1/DTD/svg11.dtd"><svg t="1641967443077" class="icon" viewBox="0 0 1450 1024" version="1.1" xmlns="http://www.w3.org/2000/svg" p-id="12019" xmlns:xlink="http://www.w3.org/1999/xlink" width="19.82421875" height="14"><defs><style type="text/css"></style></defs><path d="M213.333333 425.045333C93.866667 425.045333 0 329.898667 0 212.48 0 95.146667 93.866667 0 213.333333 0c110.933333 0 204.8 95.146667 204.8 212.48 0 117.418667-93.866667 212.565333-204.8 212.565333zM136.533333 212.48c0 39.168 34.133333 70.826667 76.8 70.826667 34.133333 0 68.266667-31.658667 68.266667-70.826667 0-39.082667-34.133333-70.826667-68.266667-70.826667-42.666667 0-76.8 31.744-76.8 70.826667z m494.933334-70.826667c-34.133333 0-68.266667 31.744-68.266667 70.826667 0 39.168 34.133333 70.826667 68.266667 70.826667h708.266666c42.666667 0 76.8-31.658667 76.8-70.826667 0-39.082667-34.133333-70.826667-76.8-70.826667H631.466667zM0 779.178667c0 117.333333 93.866667 212.48 213.333333 212.48 110.933333 0 204.8-95.146667 204.8-212.48 0-117.418667-93.866667-212.48-204.8-212.48-119.466667 0-213.333333 95.061333-213.333333 212.48z m213.333333 70.826666c-42.666667 0-76.8-31.744-76.8-70.826666 0-39.168 34.133333-70.826667 76.8-70.826667 34.133333 0 68.266667 31.658667 68.266667 70.826667 0 39.082667-34.133333 70.826667-68.266667 70.826666z m418.133334-141.653333c-34.133333 0-68.266667 31.658667-68.266667 70.826667 0 39.082667 34.133333 70.826667 68.266667 70.826666h708.266666c42.666667 0 76.8-31.744 76.8-70.826666 0-39.168-34.133333-70.826667-76.8-70.826667H631.466667z" p-id="12020"></path></svg>