<?xml version="1.0" encoding="UTF-8"?>
<svg width="132px" height="133px" viewBox="0 0 132 133" version="1.1" xmlns="http://www.w3.org/2000/svg" xmlns:xlink="http://www.w3.org/1999/xlink">
    <title>支付失败</title>
    <g id="深蓝色页面" stroke="none" stroke-width="1" fill="none" fill-rule="evenodd">
        <g id="连山个人版-个人版购买-微信支付失败" transform="translate(-655.000000, -368.000000)" fill-rule="nonzero">
            <g id="支付失败" transform="translate(655.000000, 368.000000)">
                <path d="M66.0092209,5.01017321e-06 L66.0092184,5.01017321e-06 C30.2575522,-0.0137842528 0.993108986,28.4377893 0,64.1756606 L0,67.5861391 L0,67.5859898 C0.870811507,104.031528 31.1216006,132.87052 67.5671385,131.999635 C104.012676,131.128823 132.851669,100.878034 131.980784,64.4324965 C131.124822,28.6085037 101.843522,0.0103423299 66.0093437,5.01017321e-06 L66.0092209,5.01017321e-06 Z M92.3946511,85.9036933 L92.394651,85.9036932 C94.2707861,87.6484413 94.3772906,90.5837556 92.6325399,92.4598907 C90.8877917,94.3360258 87.9524774,94.4425304 86.0763423,92.6977796 C85.9846903,92.6125458 85.8965249,92.5236374 85.8120639,92.4312734 L66.0092607,72.5184976 L46.0781777,92.4312734 L46.0781776,92.4312735 C44.2020425,94.1760216 41.2667282,94.0695171 39.52198,92.1933846 C37.8762588,90.4237282 37.8647716,87.6870865 39.49559,85.9036868 L59.4083657,66.0092184 L39.49559,45.9864701 L39.4955901,45.9864702 C37.7666481,44.0957538 37.8977772,41.1614451 39.7884873,39.4325031 C41.571887,37.8016855 44.3085286,37.8131727 46.078185,39.4588931 L66.009268,59.3716689 L85.8120711,39.4405859 L85.812071,39.4405859 C87.6196828,37.6228536 90.5585941,37.6146411 92.3763264,39.4222498 C94.1940587,41.2298615 94.2022712,44.1687728 92.3946626,45.9865051 L72.4818868,66.0092534 L92.3946511,85.9036933 Z" id="形状" fill="#DE350B"></path>
                <path d="M92.3946511,85.9036933 L92.394651,85.9036932 C94.2707861,87.6484413 94.3772906,90.5837556 92.6325399,92.4598907 C90.8877917,94.3360258 87.9524774,94.4425304 86.0763423,92.6977796 C85.9846903,92.6125458 85.8965249,92.5236374 85.8120639,92.4312734 L66.0092607,72.5184976 L46.0781777,92.4312734 L46.0781776,92.4312735 C44.2020425,94.1760216 41.2667282,94.0695171 39.52198,92.1933846 C37.8762588,90.4237282 37.8647716,87.6870865 39.49559,85.9036868 L59.4083657,66.0092184 L39.49559,45.9864701 L39.4955901,45.9864702 C37.7666481,44.0957538 37.8977772,41.1614451 39.7884873,39.4325031 C41.571887,37.8016855 44.3085286,37.8131727 46.078185,39.4588931 L66.009268,59.3716689 L85.8120711,39.4405859 L85.812071,39.4405859 C87.6196828,37.6228536 90.5585941,37.6146411 92.3763264,39.4222498 C94.1940587,41.2298615 94.2022712,44.1687728 92.3946626,45.9865051 L72.4818868,66.0092534 L92.3946511,85.9036933 Z" id="路径" fill="#FFFFFF"></path>
            </g>
        </g>
    </g>
</svg>