<?xml version="1.0" standalone="no"?><!DOCTYPE svg PUBLIC "-//W3C//DTD SVG 1.1//EN" "http://www.w3.org/Graphics/SVG/1.1/DTD/svg11.dtd"><svg t="1650293413326" class="icon" viewBox="0 0 1024 1024" version="1.1" xmlns="http://www.w3.org/2000/svg" p-id="5226" xmlns:xlink="http://www.w3.org/1999/xlink" width="200" height="200"><defs><style type="text/css"></style></defs><path d="M504.32 31.872a472.256 472.256 0 1 1 0 944.512 472.256 472.256 0 0 1 0-944.512z m0 63.36a408.96 408.96 0 1 0 0 817.856 408.96 408.96 0 0 0 0-817.92z m228.864 487.808v0.192a217.856 217.856 0 1 1-435.712 0V583.04h435.712zM370.496 321.536a73.024 73.024 0 1 1 0 146.048 73.024 73.024 0 0 1 0-146.048z m289.664 0a73.024 73.024 0 1 1 0 146.048 73.024 73.024 0 0 1 0-146.048z" p-id="5227"></path></svg>