<?xml version="1.0" encoding="UTF-8"?>
<svg width="48px" height="44px" viewBox="0 0 48 44" version="1.1" xmlns="http://www.w3.org/2000/svg" xmlns:xlink="http://www.w3.org/1999/xlink">
    <title>上传</title>
    <defs>
        <linearGradient x1="-7.96206329%" y1="-15.5718384%" x2="56.3450459%" y2="97.0608762%" id="linearGradient-1">
            <stop stop-color="#8FC6FE" offset="0%"></stop>
            <stop stop-color="#56AAFF" offset="100%"></stop>
        </linearGradient>
    </defs>
    <g id="5.17--文件上传-/-Upload" stroke="none" stroke-width="1" fill="none" fill-rule="evenodd">
        <g transform="translate(-814.000000, -2905.000000)" id="点击上传/状态">
            <g transform="translate(580.000000, 2833.000000)">
                <g id="点击上传大图/1" transform="translate(2.000000, 0.000000)">
                    <g id="Group-24" transform="translate(232.000000, 72.000000)">
                        <path d="M8.91428571,0 L16.6231338,0 C17.8226373,6.67833204e-16 18.962412,0.52347343 19.744026,1.43335704 L21.7483819,3.76664499 C22.5299959,4.67652859 23.6697706,5.20000202 24.8692741,5.20000202 L39.7714286,5.20000202 C42.0436858,5.20000202 43.8857143,7.04203048 43.8857143,9.31428773 L43.8857143,32.9142857 C43.8857143,35.186543 42.0436858,37.0285714 39.7714286,37.0285714 L8.91428571,37.0285714 C6.64202846,37.0285714 4.8,35.186543 4.8,32.9142857 L4.8,4.11428571 C4.8,1.84202846 6.64202846,1.30558531e-15 8.91428571,0 Z" id="Rectangle" fill="#0080FF" transform="translate(24.342857, 18.514286) scale(1, -1) translate(-24.342857, -18.514286) "></path>
                        <path d="M5.48571429,5.48571429 L14.5954015,5.48571429 C16.0340386,5.48571429 17.4151014,6.05085642 18.4410418,7.05938155 L20.7250732,9.3046417 C21.7510136,10.3131668 23.1320764,10.878309 24.5707135,10.878309 L42.5142857,10.878309 C45.5439621,10.878309 48,13.3343469 48,16.3640233 L48,38.4 C48,41.4296763 45.5439621,43.8857143 42.5142857,43.8857143 L5.48571429,43.8857143 C2.45603794,43.8857143 -1.4053285e-15,41.4296763 0,38.4 L0,10.9714286 C-1.25920676e-15,7.94175223 2.45603794,5.48571429 5.48571429,5.48571429 Z" id="Rectangle" fill="url(#linearGradient-1)"></path>
                        <path d="M17.2236443,25.2703224 L23.2909226,18.8768465 C23.8122999,18.3274382 24.680343,18.3047146 25.2297513,18.8260918 C25.2471094,18.8425643 25.2640334,18.8594884 25.2805059,18.8768465 L31.3477843,25.2703224 C31.8550673,25.8048787 31.832958,26.6494564 31.2984017,27.1567394 C31.0504654,27.3920258 30.7216915,27.5231948 30.3798845,27.5231948 L27.9597689,27.5231948 C27.5810594,27.5231948 27.2740546,27.8301996 27.2740546,28.2089091 L27.2740546,30.8571429 C27.2740546,31.6145619 26.6600451,32.2285714 25.9026261,32.2285714 L22.6688025,32.2285714 C21.9113834,32.2285714 21.2973739,31.6145619 21.2973739,30.8571429 L21.2973739,28.2089091 C21.2973739,27.8301996 20.9903692,27.5231948 20.6116597,27.5231948 L18.1915441,27.5231948 C17.4546001,27.5231948 16.8571889,26.9257836 16.8571889,26.1888396 C16.8571889,25.8470325 16.9883579,25.5182586 17.2236443,25.2703224 Z" id="Path-5" fill-opacity="0.9" fill="#FFFFFF"></path>
                    </g>
                </g>
            </g>
        </g>
    </g>
</svg>