<?xml version="1.0" encoding="UTF-8"?>
<svg width="13px" height="17px" viewBox="0 0 13 17" version="1.1" xmlns="http://www.w3.org/2000/svg" xmlns:xlink="http://www.w3.org/1999/xlink">
    <title>Shape</title>
    <g id="深蓝色页面" stroke="none" stroke-width="1" fill="none" fill-rule="evenodd">
        <g id="连山个人版-个人版购买-月卡未悬浮状态" transform="translate(-335.000000, -318.000000)" fill="currentColor">
            <g id="编组-5" transform="translate(303.000000, 255.000000)">
                <g id="Shape-2" transform="translate(32.600000, 63.000000)">
                    <path d="M7.7,0.259346182 C7.9,0.522346182 8,0.916346182 7.8,1.23334618 C7.8,1.25434618 7.8,1.27534618 7.8,1.29734618 C7.5,1.73034618 7.3,2.11434618 7.3,2.59434618 C7.3,3.04234618 7.7,3.85734618 8.7,4.76034618 C10.2,5.98334618 10.9,7.49034618 11.3,8.67134618 C11.4,9.26334618 11.5,9.78134618 11.6,10.1543462 C11.6,10.3413462 11.6,10.4943462 11.6,10.6023462 C11.6,10.6563462 11.6,10.7003462 11.6,10.7323462 C11.6,10.7473462 11.6,10.7603462 11.6,10.7703462 L11.6,10.7823462 L11.6,10.7873462 L11.6,10.7883462 C11.6,10.7883462 11.6,10.7903462 10.8,10.7903462 L11.6,10.7903462 C11.6,13.9993462 9,16.6003462 5.8,16.6003462 C2.6,16.6003462 0,13.9993462 0,10.7903462 C0,9.18934618 0.2,7.79134618 0.5,6.75434618 C0.7,6.23834618 0.9,5.78534618 1.1,5.43334618 C1.2,5.25834618 1.3,5.08634618 1.5,4.94334618 C1.6,4.80534618 1.8,4.64834618 2.1,4.58534618 C2.3,4.53434618 2.6,4.58134618 2.8,4.71534618 C3,4.84934618 3.1,5.05834618 3.1,5.29034618 C3.1,5.50034618 3.2,5.80734618 3.4,6.13134618 C3.4,5.58034618 3.4,4.99634618 3.5,4.40834618 C3.8,2.77234618 4.7,1.05634618 6.7,0.0833461819 C7.1,-0.0746538181 7.4,-0.00365381815 7.7,0.259346182 Z M9.9,10.7923462 C9.9,13.0833462 8.1,14.9403462 5.8,14.9403462 C3.5,14.9403462 1.6,13.0823462 1.6,10.7903462 C1.6,9.37234618 1.8,8.16734618 2.1,7.31034618 C2.2,7.42934618 2.2,7.54734618 2.3,7.66034618 C2.7,8.30734618 3.5,9.13034618 4.5,9.13034618 C4.8,9.13034618 5,9.00734618 5.2,8.79734618 C5.3,8.58834618 5.4,8.31734618 5.3,8.06634618 C5.1,7.33234618 4.9,6.01634618 5.1,4.72134618 C5.3,4.16834618 5.4,3.63134618 5.7,3.14434618 C5.9,4.06834618 6.5,5.03334618 7.7,6.02934618 C8.8,6.98534618 9.4,8.17634618 9.7,9.14834618 C9.8,9.63234618 9.9,10.0553462 9.9,10.3523462 C9.9,10.5013462 9.9,10.6173462 9.9,10.6933462 C9.9,10.7313462 9.9,10.7583462 9.9,10.7753462 L9.9,10.7913462 L9.9,10.7923462 Z" id="Shape"></path>
                </g>
            </g>
        </g>
    </g>
</svg>