<?xml version="1.0" encoding="UTF-8"?>
<svg width="24px" height="24px" viewBox="0 0 24 24" version="1.1" xmlns="http://www.w3.org/2000/svg" xmlns:xlink="http://www.w3.org/1999/xlink">
    <title>百分堆积图</title>
    <g id="成分分析" stroke="none" stroke-width="1" fill="none" fill-rule="evenodd">
        <g id="数据/视频分析/成分分析/折线图" transform="translate(-474.000000, -324.000000)">
            <g id="百分堆积图" transform="translate(474.000000, 325.000000)">
                <path d="M2.59467781,17.8255709 L2.59467781,20.4846355 L21.253964,20.4846355 L21.253964,15.7563353 L16.4266165,18.3077644 C16.0147293,18.5254706 15.5136925,18.5106389 15.1162739,18.2689754 L7.91272997,13.8885923 L2.59467781,17.8255709 Z M0,17.2173413 C0,17.2087516 0,17.2001611 0,17.1915714 L0,11.6753886 C0,11.3721445 0.113091298,11.0791124 0.318312952,10.8502579 L6.36395694,4.10852723 C6.78772327,3.63591383 7.50559456,3.53756807 8.04787358,3.87780328 L15.7155404,8.68879521 L21.5718405,2.15262142 C21.6317086,2.08580539 21.2867388,1.55383644 21.253964,1.08553472 C21.2227508,0.639547538 21.5032121,0.2555251 21.5718405,0.221132862 C22.1947734,-0.0910418071 23.3209901,-0.211032333 23.7527424,0.818418 C23.7865398,0.899002874 23.83358,1.00933487 23.848574,1.22560547 C23.8900907,1.82443847 23.8487072,2.81154783 23.848574,2.97737247 L23.848574,13.612648 C23.8488964,13.6289497 23.8488964,13.6452513 23.848574,13.6615529 L23.848574,21.7423177 C23.848574,22.4369237 23.2677582,23 22.551269,23 L1.29737281,23 C0.580883594,23 0,22.4369237 0,21.7423177 L0,17.2173413 Z M7.05282774,11.3602758 C7.4827443,11.041992 8.07125363,11.015753 8.52950265,11.2943993 L15.8515133,15.7468223 L21.253964,12.8914459 L21.253964,6.34314633 L16.9357028,11.162691 C16.5119825,11.6355948 15.7938809,11.7341415 15.2514176,11.3937723 L7.58333612,6.58255706 L2.59467781,12.1456573 L2.59467781,14.6606868 L7.05282774,11.3602758 Z" id="形状备份" fill="#9FA9BA" fill-rule="nonzero"></path>
                <path d="M1.2383785,12.5401582 L1.2383785,1.268418 C1.2383785,1.01988986 1.43985037,0.818418 1.6883785,0.818418 L22.1432895,0.818418 C22.3918177,0.818418 22.5932895,1.01988986 22.5932895,1.268418 C22.5932895,1.43693627 22.4991343,1.59133123 22.3493152,1.66848476" id="路径-2" stroke="#9FA9BA" stroke-width="2.43"></path>
            </g>
        </g>
    </g>
</svg>