<?xml version="1.0" encoding="UTF-8"?>
<svg width="27px" height="27px" viewBox="0 0 27 27" version="1.1" xmlns="http://www.w3.org/2000/svg" xmlns:xlink="http://www.w3.org/1999/xlink">
    <title>百分堆积图</title>
    <g id="成分分析" stroke="none" stroke-width="1" fill="none" fill-rule="evenodd">
        <g id="数据/视频分析/成分分析/百分堆积图" transform="translate(-484.000000, -323.000000)">
            <g id="百分堆积图" transform="translate(484.000000, 324.084652)">
                <path d="M2.8287272,19.8828579 L2.8287272,22.8488107 L23.171149,22.8488107 L23.171149,17.5748074 L17.9083572,20.4207023 C17.4593163,20.6635345 16.9130841,20.646991 16.4798169,20.3774366 L8.62648705,15.4915042 L2.8287272,19.8828579 Z M0,19.2044312 C0,19.1948501 0,19.1852682 0,19.1756871 L0,13.02287 C0,12.6846279 0.123292545,12.3577763 0.34702594,12.1025092 L6.93800905,4.58270108 C7.40000065,4.05554236 8.18262654,3.94584631 8.7738211,4.32534878 L17.1331394,9.69158749 L23.5176992,2.40106003 C23.5829676,2.32653262 23.2068802,1.733168 23.171149,1.21081859 C23.1371203,0.713359076 23.4428802,0.285015793 23.5176992,0.246654275 C24.1968228,-0.101549135 25.4246284,-0.235388022 25.8953264,0.912873357 C25.9321724,1.0027587 25.9834558,1.12582434 25.9998022,1.3670552 C26.0450639,2.03500079 25.9999475,3.13603453 25.9998022,3.32099734 L25.9998022,15.1837126 C26.0001538,15.2018957 26.0001538,15.2200787 25.9998022,15.2382617 L25.9998022,24.2516448 C25.9998022,25.0264166 25.3665948,25.6544788 24.5854756,25.6544788 L1.41440056,25.6544788 C0.633281411,25.6544788 0,25.0264166 0,24.2516448 L0,19.2044312 Z M7.6890185,12.6713893 C8.15771511,12.3163717 8.79931012,12.2871044 9.29889488,12.5979099 L17.2813775,17.5641964 L23.171149,14.379275 L23.171149,7.0752223 L18.4633649,12.4510009 C18.0014235,12.9784834 17.2185465,13.0884036 16.627151,12.7087517 L8.26738068,7.34226393 L2.8287272,13.5474133 L2.8287272,16.3527078 L7.6890185,12.6713893 Z" id="形状备份" fill="#4585FF" fill-rule="nonzero"></path>
                <path d="M1.35008476,13.9874445 L1.35008476,1.41287336 C1.35008476,1.13673098 1.57394238,0.912873357 1.85008476,0.912873357 L24.1432796,0.912873357 C24.419422,0.912873357 24.6432796,1.13673098 24.6432796,1.41287336 C24.6432796,1.59843284 24.5405167,1.76873152 24.3763503,1.85522847" id="路径-2" stroke="#4585FF" stroke-width="2.7"></path>
            </g>
        </g>
    </g>
</svg>