<?xml version="1.0" standalone="no"?><!DOCTYPE svg PUBLIC "-//W3C//DTD SVG 1.1//EN" "http://www.w3.org/Graphics/SVG/1.1/DTD/svg11.dtd"><svg t="1641890469224" class="icon" viewBox="0 0 1024 1024" version="1.1" xmlns="http://www.w3.org/2000/svg" p-id="8266" width="14" height="14" xmlns:xlink="http://www.w3.org/1999/xlink"><defs><style type="text/css"></style></defs><path d="M433.699783 899.803809c0 55.291999-48.184749 100.164047-102.392592 100.164047H204.822225c-78.300217 0-144.554247-67.277956-144.554247-150.215955V427.111422c0-42.161655 12.046187-82.275459 48.184749-110.704461l301.154681-276.881614c54.207843-51.196296 138.531153-52.822531 198.76209-3.915011L903.501086 288.941654c36.138562 28.549464 54.207843 70.470195 54.207842 114.679703v446.130544c0 82.937999-66.25403 150.215955-150.57734 150.215955h-126.484967c-54.207843 0-96.369498-44.872047-96.369498-100.164047v-248.512842H433.699783v248.512842zM542.115468 112.103625c-18.069281-16.322584-48.184749-15.720274-66.25403 1.325081l-301.154681 276.821383c-12.046187 9.456257-18.069281 22.887756-18.069281 36.921564v422.580248c0 27.646 24.092374 49.991677 48.184749 49.991678h126.484966V601.178828c0-27.706231 24.092374-50.051908 54.207843-50.051908h246.946838c30.115468 0 48.184749 22.405908 48.184749 49.991677v298.685212h126.484967c30.115468 0 48.184749-22.405908 48.184749-50.051908V403.621357c0-14.756579-6.023094-28.730157-18.069281-38.246645L542.115468 112.103625z" p-id="8267"></path></svg>