<?xml version="1.0" standalone="no"?><!DOCTYPE svg PUBLIC "-//W3C//DTD SVG 1.1//EN" "http://www.w3.org/Graphics/SVG/1.1/DTD/svg11.dtd"><svg t="1644915651028" class="icon" viewBox="0 0 1389 1024" version="1.1" xmlns="http://www.w3.org/2000/svg" p-id="4839" width="271.2890625" height="200" xmlns:xlink="http://www.w3.org/1999/xlink"><defs><style type="text/css"></style></defs><path d="M1054.738103 4.049545a70.598462 70.598462 0 0 1 71.621628 14.835909l129.576681 117.444854 101.805029 92.304201c22.144238 20.024823 33.472149 50.35439 30.329567 81.049373a94.27745 94.27745 0 0 1-46.261725 72.644794 1327.33879 1327.33879 0 0 1-306.58442 125.922516l-98.150864 464.882835c-6.065913 29.233318-30.548817 50.062057-58.758969 50.062057H510.340644c-28.210152 0-52.693055-20.828739-58.905135-50.062057l-71.987045-341.445151c22.363488-41.876728 67.748214-63.801716 112.109773-54.447054l67.017381 317.91233h271.504438L1005.772296 61.566098a76.737459 76.737459 0 0 1 48.965807-57.516553zM262.369026 19.031621a70.233046 70.233046 0 0 1 71.621629-14.835909c24.84832 8.769995 43.119144 30.329567 48.892724 57.516553l71.475461 339.691151a1186.361116 1186.361116 0 0 0 384.198878 15.712908c30.475734 34.349148 37.857146 84.338122 20.609489 126.287933-54.666304 7.015996-109.624941 10.670161-164.875912 10.670161-225.242713 0-449.096843-59.416718-647.37182-171.672658a94.27745 94.27745 0 0 1-46.334809-72.644795 96.469948 96.469948 0 0 1 30.329567-81.122456l110.355775-99.904864a62.632383 62.632383 0 0 1 0.657749-0.584666z m19.586323 150.405419l-61.90155 56.12797-0.4385 0.511583L146.166589 292.436224c57.224219 29.452568 116.494771 54.154721 177.226988 74.033378l-41.584394-197.105645z m824.671893 0l-41.438228 197.105645A1204.412689 1204.412689 0 0 0 1242.416002 292.363141l-64.824882-58.758968-71.036962-64.313299z" p-id="4840"></path></svg>