<?xml version="1.0" encoding="UTF-8"?>
<svg width="26px" height="26px" viewBox="0 0 26 26" version="1.1" xmlns="http://www.w3.org/2000/svg" xmlns:xlink="http://www.w3.org/1999/xlink">
    <title>折线图</title>
    <g id="成分分析" stroke="none" stroke-width="1" fill="none" fill-rule="evenodd" opacity="0.818188622">
        <g id="数据/视频分析/成分分析/堆积图" transform="translate(-384.000000, -324.000000)" fill="#9FA9BA" fill-rule="nonzero">
            <g id="形状-3" transform="translate(384.000000, 324.000000)">
                <path d="M17.5691736,16.0990835 L17.5190344,16.1493325 C16.8841477,16.7837115 15.8567994,16.7837115 15.2219127,16.1493325 L11.7734448,12.6895949 L8.32311978,16.1493325 C7.69955594,16.7968736 6.67026814,16.8152047 6.02414113,16.1902761 C5.37801413,15.5653475 5.35972307,14.533807 5.98328691,13.8862659 L6.02414113,13.8453222 L10.6220984,9.23916276 C10.9730734,8.88741967 11.461467,8.71806189 11.9535747,8.77389412 C12.3119777,8.81111561 12.6536676,8.96930695 12.9285051,9.2428849 L16.371402,12.6933171 L22.1169916,6.93143033 C22.5276646,6.51985854 23.1262335,6.35912146 23.6872233,6.50976719 C24.248213,6.66041292 24.6863958,7.0995548 24.8367126,7.66177233 C24.9870293,8.22398985 24.8266433,8.82386881 24.4159703,9.23544061 L17.5673166,16.0990835 L17.5691736,16.0990835 Z M3.25162488,22.7431196 L24.3751161,22.7431196 C25.2725147,22.7431196 26,23.4721971 26,24.3715598 C26,25.2709225 25.2725147,26 24.3751161,26 L1.62302693,26 C0.726353601,25.998973 0,25.2701962 0,24.3715598 L0,1.57339675 C0.0296106503,0.695961141 0.747935429,0 1.62395543,0 C2.49997543,0 3.21830021,0.695961141 3.24791086,1.57339675 L3.24791086,22.7431196 L3.24976787,22.7431196 L3.25162488,22.7431196 Z" id="形状"></path>
            </g>
        </g>
    </g>
</svg>