<?xml version="1.0" standalone="no"?><!DOCTYPE svg PUBLIC "-//W3C//DTD SVG 1.1//EN" "http://www.w3.org/Graphics/SVG/1.1/DTD/svg11.dtd"><svg t="1652165990674" class="icon" viewBox="0 0 4377 1024" version="1.1" xmlns="http://www.w3.org/2000/svg" p-id="6968" xmlns:xlink="http://www.w3.org/1999/xlink" width="854.8828125" height="200"><defs><style type="text/css">@font-face { font-family: feedback-iconfont; src: url("//at.alicdn.com/t/font_1031158_u69w8yhxdu.woff2?t=1630033759944") format("woff2"), url("//at.alicdn.com/t/font_1031158_u69w8yhxdu.woff?t=1630033759944") format("woff"), url("//at.alicdn.com/t/font_1031158_u69w8yhxdu.ttf?t=1630033759944") format("truetype"); }
</style></defs><path d="M2209.4592 716.8v-69.0688H2355.2v-75.8528h-145.7408v-62.976h136.2432V437.76h-136.2432v-86.7072h-107.1104v86.7072h-62.3616l46.08-120.576h266.4192v-70.4H2112.512L2128.7936 204.8h-103.7312l-16.9472 41.984h-77.2608v70.4512h48.7936l-48.7936 121.216v70.4256h171.52v62.976H1920v75.8784h182.3488V716.8h107.1104zM1920 332.8l-23.7312-102.4H1792l24.9856 102.4H1920z m-147.072 486.4l84.224-59.264 41.7536 34.8928H2355.2v-71.7568H1938.7392l-37.2224-31.5904V384H1766.4v69.12h35.8912v250.88l-29.3632 21.7088V819.2zM3020.8 819.2V314.88h-103.8592v424.448h-125.4656V230.4h-103.8848v508.928h-126.1312V314.88H2457.6V819.2h563.2z m201.1648-281.6l57.4208-110.8736h6.8352L3331.9936 537.6H3430.4l-49.8944-110.8736h45.1072v-60.672h-114.7904l27.3152-52.8128h77.2352v-61.952h-186.5728l8.8832-20.8896h-99.7632L3097.6 340.6336h95.6672l10.9312-27.392h29.3888l-26.6496 52.8128h-96.3584v60.672h64.9216L3119.4624 537.6h102.5024zM3686.4 512V230.4h-256v281.6h256z m-76.8-51.2h-76.8v-153.6h76.8v153.6z m51.2 332.8V537.6h-512v256h512z m-102.4-137.728h-307.2v-31.744h307.2v31.744z m0 76.8h-307.2v-31.744h307.2v31.744zM3833.4208 819.2l82.56-62.592v-155.8528l52.0192-9.1136v-86.0672l-52.0192 9.1136v-140.8256h51.3792v-76.9536h-51.3792V230.4h-92.9536v66.5088H3763.2v76.9536h59.8272v156.4928l-55.936 9.1136v86.0672l55.936-9.1136v97.152l-47.4624 38.4768 57.856 67.1488z m525.6448-358.4l18.5344-78.08h-48.0256l-6.8608 24.7552h-8.9088V230.4h-308.736v165.0176H3968l23.3216 62.848h118.016v-166.912h98.816V460.8h150.912z m-254.976 358.4l66.4064-69.0944 71.68 69.0944H4377.6l-145.3056-134.1952 122.9568-128.2048V486.4H3998.208v70.4h220.2624l-58.5216 61.1328-33.536-31.232h-124.2624l97.3056 94.976L3968 819.2h136.0896z" fill="#404547" p-id="6969"></path><path d="M477.184 87.296L238.592 377.8816 0 668.4928h258.816l331.4432-256.7424 16.3072-166.8352z" fill="#0D73B2" p-id="6970"></path><path d="M529.8176 338.4064L258.816 668.4928H647.296l103.9104-58.1632 49.6128-128.8448 7.68-186.8288-201.9328-49.7408z" fill="#028CBF" p-id="6971"></path><path d="M606.5664 244.9152l109.184 132.9664 85.0688 103.6032 145.5104-28.8256 48.7424-207.744L800.8192 8.3456z" fill="#17A6A4" p-id="6972"></path><path d="M800.8192 481.4848l-153.5232 187.008h307.0464l18.9696-133.888z" fill="#11AA7C" p-id="6973"></path><path d="M800.8192 481.4848l153.5232 187.008H1342.8224l-113.6896-263.68-234.0608-159.8976-109.184 132.9664z" fill="#68C46F" p-id="6974"></path><path d="M1071.8208 338.4064l271.0016 330.0864h258.816l-238.592-290.6112-238.592-290.56-129.3824 157.5936z" fill="#8BD17B" p-id="6975"></path><path d="M477.184 981.4784l-238.592-156.4928L0 668.4928h258.816l271.0016 177.7664 76.7488 50.3296z" fill="#40555B" p-id="6976"></path><path d="M529.8176 846.2592L258.816 668.4928H647.296l153.5232 100.6848-85.0688 55.808-109.184 71.6032z" fill="#616E72" p-id="6977"></path><path d="M606.5664 896.5888l109.184-71.6032 85.0688-55.808 85.0688 55.808 109.184 71.6032L800.8192 1024z" fill="#C8C8CA" p-id="6978"></path><path d="M800.8192 769.1776l-153.5232-100.6848h307.0464z" fill="#747D7F" p-id="6979"></path><path d="M800.8192 769.1776l153.5232-100.6848H1342.8224l-271.0016 177.7664-76.7488 50.3296-109.184-71.6032z" fill="#999999" p-id="6980"></path><path d="M1071.8208 846.2592l271.0016-177.7664h258.816l-238.592 156.4928-238.592 156.4928-129.3824-84.8896z" fill="#D2D3D5" p-id="6981"></path></svg>