<?xml version="1.0" standalone="no"?><!DOCTYPE svg PUBLIC "-//W3C//DTD SVG 1.1//EN" "http://www.w3.org/Graphics/SVG/1.1/DTD/svg11.dtd"><svg t="1652170194151" class="icon" viewBox="0 0 1612 1024" version="1.1" xmlns="http://www.w3.org/2000/svg" p-id="7124" xmlns:xlink="http://www.w3.org/1999/xlink" width="314.84375" height="200"><defs><style type="text/css">@font-face { font-family: feedback-iconfont; src: url("//at.alicdn.com/t/font_1031158_u69w8yhxdu.woff2?t=1630033759944") format("woff2"), url("//at.alicdn.com/t/font_1031158_u69w8yhxdu.woff?t=1630033759944") format("woff"), url("//at.alicdn.com/t/font_1031158_u69w8yhxdu.ttf?t=1630033759944") format("truetype"); }
</style></defs><path d="M477.8496 87.296l-238.592 290.5856-238.592 290.6112h258.816l331.4688-256.7424 16.3072-166.8352z" fill="#0D73B2" p-id="7125"></path><path d="M530.4832 338.4064L259.5072 668.4928H647.936l103.936-58.1632 49.6128-128.8448 7.68-186.8288-201.9328-49.7408z" fill="#028CBF" p-id="7126"></path><path d="M607.232 244.9152l109.2096 132.9664 85.0688 103.6032 145.4848-28.8256 48.7424-207.744L801.536 8.3456z" fill="#17A6A4" p-id="7127"></path><path d="M801.5104 481.4848l-153.5488 187.008h307.0464l18.9952-133.888z" fill="#11AA7C" p-id="7128"></path><path d="M801.5104 481.4848l153.4976 187.008H1343.5136l-113.7152-263.68-234.0608-159.8976-109.184 132.9664z" fill="#68C46F" p-id="7129"></path><path d="M1072.512 338.4064L1343.488 668.4928h258.816l-238.592-290.6112-238.592-290.56-129.408 157.5936z" fill="#8BD17B" p-id="7130"></path><path d="M477.8496 981.4784l-238.592-156.4928-238.592-156.4928h258.816l271.0016 177.7664 76.7744 50.3296z" fill="#40555B" p-id="7131"></path><path d="M530.4832 846.2592l-270.976-177.7664H647.936l153.5488 100.6848-85.0688 55.808-109.184 71.6032z" fill="#616E72" p-id="7132"></path><path d="M607.232 896.5888l109.2096-71.6032 85.0688-55.808 85.0432 55.808 109.184 71.6032L801.536 1024z" fill="#C8C8CA" p-id="7133"></path><path d="M801.5104 769.1776l-153.5488-100.6848h307.0464z" fill="#747D7F" p-id="7134"></path><path d="M801.5104 769.1776l153.4976-100.6848H1343.5136l-271.0016 177.7664-76.7744 50.3296-109.184-71.6032z" fill="#999999" p-id="7135"></path><path d="M1072.512 846.2592l271.0016-177.7664h258.816l-238.592 156.4928-238.592 156.4928-129.408-84.8896z" fill="#D2D3D5" p-id="7136"></path></svg>