<?xml version="1.0" encoding="UTF-8"?>
<svg width="110px" height="36px" viewBox="0 0 110 36" version="1.1" xmlns="http://www.w3.org/2000/svg" xmlns:xlink="http://www.w3.org/1999/xlink">
    <title>连山+ Tradeplus - 一站式跨平台程序化广告投放和数据管理平台</title>
    <defs>
        <polygon id="path-1" points="0 0 35.9982604 0 35.9982604 19.7802568 0 19.7802568"></polygon>
        <polygon id="path-3" points="0 36 110 36 110 0 0 0"></polygon>
    </defs>
    <g id="首页设计" stroke="none" stroke-width="1" fill="none" fill-rule="evenodd">
        <g id="连山logo矢量文件" transform="translate(-23.000000, -13.000000)">
            <g id="编组" transform="translate(23.000000, 13.000000)">
                <path d="M3.17012382,21.7083032 C3.16936596,22.0182821 9.79229499,22.2861979 17.9629614,22.3066611 C26.1336278,22.3271242 32.757883,22.0923663 32.7586409,21.7823874 C32.7593987,21.4724084 26.1364697,21.2044926 17.9658033,21.1840295 C9.79513696,21.1635663 3.17088168,21.3983242 3.17012382,21.7083032" id="Fill-1" fill="#FFFFFF"></path>
                <path d="M13.4614501,24.3746337 C13.4620184,24.1557916 11.7223532,23.9740863 9.57571786,23.9685916 C7.42927196,23.9632863 5.6886595,24.1362758 5.68809097,24.3551179 C5.68752271,24.57396 7.42718784,24.7558547 9.57382321,24.76116 C11.7204586,24.7664653 13.461071,24.5934758 13.4614501,24.3746337" id="Fill-3" fill="#FFFFFF"></path>
                <path d="M30.2274112,24.4166211 C30.2279795,24.1977789 28.4883143,24.0160737 26.341679,24.0105789 C24.1952331,24.0052737 22.4546206,24.1782632 22.4540521,24.3971053 C22.4534838,24.6159474 24.193149,24.7978421 26.3397843,24.8031474 C28.4864197,24.8084526 30.2268427,24.6354632 30.2274112,24.4166211" id="Fill-5" fill="#FFFFFF"></path>
                <path d="M21.8444307,24.3956274 C21.8449989,24.1767853 20.1053338,23.99508 17.9586984,23.9895853 C15.8122525,23.98428 14.0716401,24.1572695 14.0710715,24.3761116 C14.0705033,24.5949537 15.8101684,24.7768484 17.9568038,24.7821537 C20.1034391,24.7874589 21.8438621,24.6144695 21.8444307,24.3956274" id="Fill-7" fill="#FFFFFF"></path>
                <path d="M26.0289297,27.2117368 C26.0294979,26.9928947 24.2898328,26.8111895 22.1431974,26.8056947 C19.9965621,26.8003895 18.2561391,26.9733789 18.2555706,27.1922211 C18.2550023,27.4110632 19.9946674,27.5927684 22.1411133,27.5982632 C24.2877487,27.6035684 26.0283611,27.4305789 26.0289297,27.2117368" id="Fill-9" fill="#FFFFFF"></path>
                <path d="M13.7582275,27.5771747 C15.9048629,27.5826695 17.6454753,27.4094905 17.6460438,27.1906484 C17.6464226,26.9719958 15.9067575,26.7901011 13.7603116,26.7847958 C11.6136763,26.7794905 9.8730638,26.95248 9.87249527,27.1711326 C9.87192701,27.3901642 11.6115921,27.5718695 13.7582275,27.5771747" id="Fill-11" fill="#FFFFFF"></path>
                <path d="M17.8480889,30.3930947 C19.9947243,30.3984 21.7353367,30.2254105 21.7359052,30.0065684 C21.736284,29.7877263 19.9966189,29.6060211 17.850173,29.6005263 C15.7035377,29.5952211 13.9629252,29.7682105 13.9623567,29.9870526 C13.9617884,30.2058947 15.7014535,30.3877895 17.8480889,30.3930947" id="Fill-13" fill="#FFFFFF"></path>
                <path d="M19.7469991,7.03390737 C18.9512473,6.04277053 17.4438659,6.03917053 16.6429985,7.02613895 L10.2182496,14.9451916 C10.0884662,15.1052968 10.0875189,15.3341811 10.215976,15.4950442 L13.5064099,19.6166653 C13.589206,19.7206863 13.7148211,19.7786653 13.8478254,19.7788547 L30.0068931,19.7788547 L29.3359985,18.9548337 L26.6402943,15.6136547 L26.6385891,15.6157389 L25.8695518,14.6583284 L25.8583734,14.6444968 L25.8583734,14.6444968 L19.7469991,7.03390737 Z" id="Fill-15" fill="#FFFFFF"></path>
                <path d="M35.996271,19.1875074 C35.9941869,19.0668126 35.9553466,18.9436547 35.8683823,18.8356547 L30.871629,12.61296 C30.3960726,12.0208547 29.4953573,12.0185811 29.0169588,12.6084126 L27.3919198,14.6113389 C27.2543685,14.7809179 27.2539895,15.0232547 27.391162,15.1932126 L30.9462781,19.5998021 C31.0338108,19.7083705 31.1654888,19.7714653 31.3049349,19.7718442 L34.1037078,19.7788547 L34.1037078,31.2630442 C34.1037078,32.8328337 32.8312627,34.1051495 31.2617369,34.1051495 L4.73667503,34.1051495 C3.16714923,34.1051495 1.89470412,32.8328337 1.89470412,31.2630442 L1.89470412,25.1388758 C1.89470412,24.6439705 1.53301595,24.2021179 1.04040766,24.1551284 C0.475423841,24.1013179 5.68394183e-05,24.5441179 5.68394183e-05,25.0979495 L5.68394183e-05,31.2630442 C5.68394183e-05,33.8792968 2.12073554,35.9998863 4.73667503,35.9998863 L31.2617369,35.9998863 C33.8776764,35.9998863 35.9983551,33.8792968 35.9983551,31.2630442 L35.9983551,19.2443495 L35.9966499,19.2445389 L35.996271,19.1875074 Z" id="Fill-17" fill="#FFFFFF"></path>
                <g>
                    <mask id="mask-2" fill="white">
                        <use xlink:href="#path-1"></use>
                    </mask>
                    <g id="Clip-20"></g>
                    <path d="M31.2519795,-3.7894737e-05 L4.74643247,-3.7894737e-05 C2.12499849,-3.7894737e-05 -3.78929453e-05,2.12509895 -3.78929453e-05,4.74646737 L-3.78929453e-05,18.9895832 C-3.78929453e-05,18.9954568 0.00204621906,19.0583621 0.00204621906,19.0583621 C0.0103826671,19.4337095 0.298747983,19.7793095 0.760094595,19.7802568 L12.5470742,19.7789305 L11.9061151,18.9793516 L11.6918305,18.7138989 C11.6893674,18.7089726 11.6853887,18.7044253 11.6825467,18.6993095 L8.33356815,14.5041726 L6.84191235,12.6467621 C6.36275606,12.04992 5.45522001,12.0476463 4.97284281,12.6420253 L1.91185067,16.4150147 C1.90616673,16.4222147 1.89460938,16.4180463 1.89460938,16.4089516 L1.89460938,4.74646737 C1.89460938,3.17156211 3.17141218,1.89469895 4.74643247,1.89469895 L31.2519795,1.89469895 C32.8269998,1.89469895 34.1036131,3.17156211 34.1036131,4.74646737 L34.1036131,10.6574779 C34.1036131,11.1569305 34.4685222,11.6069305 34.966246,11.6501305 C35.5274405,11.6990147 35.9982604,11.25792 35.9982604,10.7065516 L35.9982604,4.74646737 C35.9982604,2.12509895 33.873224,-3.7894737e-05 31.2519795,-3.7894737e-05" id="Fill-19" fill="#FFFFFF" mask="url(#mask-2)"></path>
                </g>
                <polygon id="Fill-21" fill="#FFFFFF" points="109.640794 6.24944842 106.984688 6.24944842 106.984688 3.59340632 105.090041 3.59340632 105.090041 6.24944842 102.434313 6.24944842 102.434313 8.14418526 105.090041 8.14418526 105.090041 10.8002274 106.984688 10.8002274 106.984688 8.14418526 109.640794 8.14418526"></polygon>
                <polygon id="Fill-23" fill="#FFFFFF" points="96.5977009 6.80417053 94.3241242 6.80417053 94.3241242 22.89996 87.3849785 22.89996 87.3849785 3.58633895 85.1114018 3.58633895 85.1114018 22.89996 78.1455416 22.89996 78.1455416 6.80417053 75.8719649 6.80417053 75.8719649 25.1664442 75.8719649 25.1736442 75.8789751 25.1736442 96.5975115 25.1738337 96.5977009 25.1664442"></polygon>
                <mask id="mask-4" fill="white">
                    <use xlink:href="#path-3"></use>
                </mask>
                <g id="Clip-26"></g>
                <polygon id="Fill-25" fill="#FFFFFF" mask="url(#mask-4)" points="47.5605727 6.60524211 50.5920084 6.60524211 50.5920084 3.57366316 47.5605727 3.57366316"></polygon>
                <polygon id="Fill-27" fill="#FFFFFF" mask="url(#mask-4)" points="54.730979 22.8999221 52.0879461 21.2143642 52.0879461 12.0582379 52.0879461 11.9682379 52.0879461 9.78455368 46.7927859 9.78455368 46.7927859 12.0582379 49.8143693 12.0582379 49.8143693 22.8999221 46.7927859 22.8999221 46.7927859 25.1736063 49.8143693 25.1736063 52.0879461 25.1736063 52.0879461 23.9109537 54.0670946 25.1732274 54.0670946 25.1736063 68.6719832 25.1736063 68.6719832 22.8999221"></polygon>
                <polygon id="Fill-28" fill="#FFFFFF" mask="url(#mask-4)" points="57.431685 7.62210947 68.6165458 7.62210947 68.6165458 5.34842526 58.259267 5.34842526 58.64047 4.30063579 56.5040657 3.52303579 55.8398024 5.34842526 53.5086284 5.34842526 53.5086284 7.62210947 55.0122205 7.62210947 53.5319326 11.6891621 53.499913 11.6891621 53.499913 13.9628463 60.3052966 13.9628463 60.3052966 17.0031411 53.4942291 17.0031411 53.4942291 19.2768253 60.3052966 19.2768253 60.3052966 21.7505937 62.5788733 21.7505937 62.5788733 19.2768253 68.3367064 19.2768253 68.3367064 17.0031411 62.5788733 17.0031411 62.5788733 13.9628463 68.3367064 13.9628463 68.3367064 11.6891621 62.5788733 11.6891621 62.5788733 9.36943579 60.3052966 9.36943579 60.3052966 11.6891621 55.9515866 11.6891621"></polygon>
                <polygon id="Fill-29" fill="#FFFFFF" mask="url(#mask-4)" points="50.2570158 30.2362863 50.2570158 34.7207495 48.7187517 34.7207495 48.7187517 30.2362863 46.7003839 30.2362863 46.7003839 29.27016 52.2753835 29.27016 52.2753835 30.2362863"></polygon>
                <path d="M55.3916236,31.8619895 C55.7989728,31.8619895 56.1153789,31.8384947 56.3408419,31.7913158 C56.5663049,31.7441368 56.7317076,31.6577368 56.8372395,31.5321158 C56.9425819,31.4064947 56.9954425,31.2206211 56.9954425,30.9744947 C56.9954425,30.7494 56.9425819,30.5792526 56.8372395,30.4640526 C56.7317076,30.3490421 56.5663049,30.2690842 56.3408419,30.2243684 C56.1153789,30.1800316 55.7989728,30.1576737 55.3916236,30.1576737 L54.6934461,30.1576737 L54.6934461,31.8619895 L55.3916236,31.8619895 Z M55.5880985,32.6945368 L54.6934461,32.6945368 L54.6934461,34.7207684 L53.1551819,34.7207684 L53.1551819,29.2701789 L55.609887,29.2701789 C56.3006754,29.2701789 56.8590279,29.3266421 57.2845657,29.4391895 C57.7101035,29.5519263 58.0246149,29.7324947 58.2282895,29.9808947 C58.4317746,30.2298632 58.5337066,30.5610632 58.5337066,30.9744947 C58.5337066,31.4248737 58.4154806,31.7784316 58.1792181,32.0347895 C57.9427662,32.2915263 57.5772887,32.4720947 57.0827858,32.5766842 L59.2428731,34.7207684 L57.4319692,34.7207684 L55.5880985,32.6945368 Z" id="Fill-30" fill="#FFFFFF" mask="url(#mask-4)"></path>
                <path d="M64.4945322,32.3959832 L63.4691491,30.2520884 L63.3380395,30.2520884 L62.2800685,32.3959832 L64.4945322,32.3959832 Z M61.8325528,33.3228884 L61.1345647,34.7208253 L59.5525343,34.7208253 L62.3782112,29.2702358 L64.4401558,29.2702358 L67.2550333,34.7208253 L65.618437,34.7208253 L64.9530369,33.3228884 L61.8325528,33.3228884 Z" id="Fill-31" fill="#FFFFFF" mask="url(#mask-4)"></path>
                <path d="M70.6042013,33.7704063 C71.1059039,33.7704063 71.5132531,33.7167853 71.8260593,33.6093537 C72.1386761,33.5021116 72.3751281,33.3188905 72.5352258,33.0596905 C72.695134,32.8004905 72.7752776,32.4459853 72.7752776,31.9956063 C72.7752776,31.5243853 72.6934288,31.1579432 72.5297313,30.8959011 C72.3662233,30.6342379 72.1278766,30.45348 71.8152598,30.3541958 C71.5022641,30.2545326 71.0985148,30.2048905 70.6042013,30.2048905 L69.6985599,30.2048905 L69.6985599,33.7704063 L70.6042013,33.7704063 Z M74.3573081,31.9956063 C74.3573081,32.9903432 74.0424177,33.6932905 73.4133948,34.1042589 C72.7843719,34.5154168 71.873236,34.7208063 70.6803661,34.7208063 L68.1602958,34.7208063 L68.1602958,29.2702168 L70.6803661,29.2702168 C71.4878648,29.2702168 72.1551596,29.3437326 72.6826294,29.4901958 C73.2097202,29.6368484 73.6208587,29.9091221 73.9154763,30.3070168 C74.2099045,30.7049116 74.3573081,31.2678379 74.3573081,31.9956063 L74.3573081,31.9956063 Z" id="Fill-32" fill="#FFFFFF" mask="url(#mask-4)"></path>
                <polygon id="Fill-33" fill="#FFFFFF" mask="url(#mask-4)" points="80.6302958 34.7207495 75.9061822 34.7207495 75.9061822 29.27016 80.4557987 29.27016 80.4557987 30.2283284 77.4446358 30.2283284 77.4446358 31.4614232 80.2377248 31.4614232 80.2377248 32.3801811 77.4446358 32.3801811 77.4446358 33.7546232 80.6302958 33.7546232"></polygon>
                <path d="M87.1325926,32.1054821 C87.5323632,32.1054821 87.8453589,32.0768716 88.0708219,32.0190821 C88.2962849,31.9614821 88.4580878,31.8620084 88.55642,31.7206611 C88.6545627,31.5793137 88.7036341,31.3803663 88.7036341,31.1236295 C88.7036341,30.7624926 88.5873028,30.5110611 88.3544506,30.3697137 C88.1217879,30.2283663 87.7144388,30.1576926 87.1325926,30.1576926 L86.3688603,30.1576926 L86.3688603,32.1054821 L87.1325926,32.1054821 Z M90.2746756,31.1001347 C90.2746756,31.56624 90.1746383,31.9364716 89.974753,32.2115874 C89.7744887,32.4863242 89.4618719,32.6854611 89.0365236,32.8084295 C88.6109859,32.9313979 88.0418338,32.9929768 87.328878,32.9929768 L86.3688603,32.9929768 L86.3688603,34.7207874 L84.8305961,34.7207874 L84.8305961,29.2701979 L87.328878,29.2701979 C88.0780216,29.2701979 88.6655517,29.3317768 89.0909,29.4549347 C89.5164378,29.5779032 89.8201497,29.7717347 90.0020359,30.0360505 C90.1837326,30.3005558 90.2746756,30.6552505 90.2746756,31.1001347 L90.2746756,31.1001347 Z" id="Fill-34" fill="#FFFFFF" mask="url(#mask-4)"></path>
                <polygon id="Fill-35" fill="#FFFFFF" mask="url(#mask-4)" points="96.2642809 34.7207495 91.6710875 34.7207495 91.6710875 29.27016 93.2093516 29.27016 93.2093516 33.7546232 96.2642809 33.7546232"></polygon>
                <path d="M97.2460303,32.9222274 L97.2460303,29.2703116 L98.7844839,29.2703116 L98.7844839,32.7888379 C98.7844839,33.1657011 98.8972154,33.4366484 99.1224889,33.60168 C99.347952,33.7665221 99.7590904,33.8491326 100.355525,33.8491326 C100.777274,33.8491326 101.102774,33.8097221 101.331837,33.73128 C101.5609,33.6524589 101.720998,33.5374484 101.81213,33.3854905 C101.902884,33.2339116 101.948355,33.0349642 101.948355,32.7888379 L101.948355,29.2703116 L103.47582,29.2703116 L103.47582,32.9222274 C103.47582,33.5768589 103.211896,34.0531958 102.684805,34.3516168 C102.157335,34.6500379 101.377309,34.7991537 100.344536,34.7991537 C99.3043751,34.7991537 98.5281381,34.6566695 98.0152571,34.3711326 C97.5025655,34.0859747 97.2460303,33.6030063 97.2460303,32.9222274" id="Fill-36" fill="#FFFFFF" mask="url(#mask-4)"></path>
                <path d="M104.915828,34.6028779 L104.915828,33.6212147 C105.163079,33.6839305 105.490285,33.7379305 105.897823,33.7822674 C106.304983,33.8267937 106.697743,33.8489621 107.075915,33.8489621 C107.592396,33.8489621 107.954274,33.7966674 108.161548,33.6918884 C108.369012,33.5872989 108.47246,33.4067305 108.47246,33.1499937 C108.47246,32.9878042 108.436082,32.8608568 108.363328,32.7689621 C108.290573,32.6776358 108.154348,32.5990042 107.954274,32.5334463 C107.754009,32.4680779 107.450676,32.3987305 107.043327,32.3252147 C106.490659,32.2310463 106.066826,32.1251305 105.772398,32.0072779 C105.47778,31.8896147 105.266716,31.7350042 105.139586,31.5438253 C105.012265,31.3528358 104.948605,31.0923095 104.948605,30.7624358 C104.948605,30.2127726 105.177668,29.8122253 105.635983,29.5609832 C106.094109,29.3095516 106.774287,29.1837411 107.67595,29.1837411 C108.0689,29.1837411 108.436082,29.2023095 108.778066,29.2386884 C109.119671,29.2756358 109.3961,29.3226253 109.607164,29.3802253 L109.607164,30.3069411 C109.403489,30.2546463 109.116261,30.2087937 108.745289,30.1695726 C108.374317,30.1303516 108.036122,30.1106463 107.730516,30.1106463 C107.27239,30.1106463 106.945184,30.1551726 106.748709,30.2440358 C106.552424,30.3332779 106.454092,30.49812 106.454092,30.7387516 C106.454092,30.8751726 106.484975,30.9812779 106.54674,31.0568779 C106.608695,31.1330463 106.732416,31.2010674 106.917712,31.2611305 C107.103387,31.3215726 107.392321,31.3856147 107.785271,31.4536358 C108.388906,31.5584147 108.847031,31.6775937 109.159838,31.8109832 C109.472644,31.9445621 109.690718,32.1160358 109.814438,32.3252147 C109.938159,32.5347726 109.999924,32.8174674 109.999924,33.1734884 C109.999924,33.7182253 109.770861,34.1252147 109.312546,34.3948358 C108.85442,34.6644568 108.126876,34.7991726 107.130481,34.7991726 C106.715932,34.7991726 106.304983,34.7796568 105.897823,34.7404358 C105.490285,34.7012147 105.163079,34.6553621 104.915828,34.6028779" id="Fill-37" fill="#FFFFFF" mask="url(#mask-4)"></path>
            </g>
        </g>
    </g>
</svg>