<?xml version="1.0" encoding="UTF-8"?>
<svg width="27px" height="27px" viewBox="0 0 27 27" version="1.1" xmlns="http://www.w3.org/2000/svg" xmlns:xlink="http://www.w3.org/1999/xlink">
    <title></title>
    <g id="页面-1" stroke="none" stroke-width="1" fill="none" fill-rule="evenodd" stroke-linecap="round" stroke-linejoin="round">
        <g id="0421首页" transform="translate(-310.000000, -624.000000)" stroke-width="0.81">
            <g id="编组" transform="translate(311.000000, 625.000000)">
                <path d="M18.7499106,6.2500004 C18.7499106,9.70178633 15.9516963,12.5 12.4999106,12.5 C9.04812488,12.5 6.2499106,9.70178633 6.2499106,6.2500004 C6.2499106,2.79821446 9.04812488,0 12.4999106,0 C15.9516963,0 18.7499106,2.79821446 18.7499106,6.2500004 Z" id="Stroke-1" stroke="#333333"></path>
                <path d="M14.2124133,4.36964267 C14.0231275,3.8017855 13.4874133,3.3928569 12.8570561,3.3928569 L12.1427704,3.3928569 C11.3543775,3.3928569 10.714199,4.03214265 10.714199,4.82142842 C10.714199,5.61071418 11.3543775,6.24999994 12.1427704,6.24999994 L12.8570561,6.24999994 C13.645449,6.24999994 14.2856275,6.88928569 14.2856275,7.67857146 C14.2856275,8.46785722 13.645449,9.10714298 12.8570561,9.10714298 L12.1427704,9.10714298 C11.4945561,9.10714298 10.9472347,8.67500009 10.7722347,8.08303577" id="Stroke-3" stroke="#3056D3"></path>
                <line x1="12.4999109" y1="9.37500002" x2="12.499911" y2="10.2678572" id="Stroke-5" stroke="#3056D3"></line>
                <line x1="12.4999109" y1="2.24989616" x2="12.499911" y2="3.14275334" id="Stroke-7" stroke="#3056D3"></line>
                <path d="M9.59285714,20.535714 L12.5,20.535714 C13.4857143,20.535714 14.2857143,19.7357139 14.2857143,18.7499996 C14.2857143,17.7642853 13.4857143,16.9642852 12.5,16.9642852 L8.03571429,16.9642852 C8.03571429,16.9642852 5.35714286,15.1785708 3.57142857,15.1785708 C1.78571429,15.1785708 0,16.9642852 0,16.9642852 L0,25 L14.2857143,25 L25,18.7499996 C25,17.4758924 23.7035714,16.6116066 22.5267857,17.1017852 L14.2857143,20.535714 L7.14285714,20.535714" id="Stroke-9" stroke="#333333"></path>
            </g>
        </g>
    </g>
</svg>