<?xml version="1.0" standalone="no"?><!DOCTYPE svg PUBLIC "-//W3C//DTD SVG 1.1//EN" "http://www.w3.org/Graphics/SVG/1.1/DTD/svg11.dtd"><svg t="1650510888430" class="icon" viewBox="0 0 1024 1024" version="1.1" xmlns="http://www.w3.org/2000/svg" p-id="5303" xmlns:xlink="http://www.w3.org/1999/xlink" width="200" height="200"><defs><style type="text/css">@font-face { font-family: feedback-iconfont; src: url("//at.alicdn.com/t/font_1031158_u69w8yhxdu.woff2?t=1630033759944") format("woff2"), url("//at.alicdn.com/t/font_1031158_u69w8yhxdu.woff?t=1630033759944") format("woff"), url("//at.alicdn.com/t/font_1031158_u69w8yhxdu.ttf?t=1630033759944") format("truetype"); }
</style></defs><path d="M512 0a512 512 0 1 0 0 1024 512 512 0 0 0 0-1024zM318.042353 576.150588H284.310588a33.008941 33.008941 0 0 1-23.913412-9.637647 31.683765 31.683765 0 0 1-9.938823-23.67247v-84.329412c0-9.276235 3.312941-17.106824 9.938823-23.552a33.008941 33.008941 0 0 1 23.913412-9.637647h33.792v150.829176zM496.579765 771.011765c-1.264941 4.999529-6.384941 7.529412-15.299765 7.529411h-30.599529a48.670118 48.670118 0 0 1-19.877647-4.035764 57.946353 57.946353 0 0 1-17.468236-12.348236 151.009882 151.009882 0 0 1-17.167059-21.202823 457.246118 457.246118 0 0 1-19.034353-30.599529 171.068235 171.068235 0 0 1-17.227294-35.71953 182.512941 182.512941 0 0 1-6.445176-25.479529 48.730353 48.730353 0 0 1 0-20.419765 1521.423059 1521.423059 0 0 1 21.985882 4.818824c4.698353 1.084235 10.059294 2.168471 16.143059 3.252705 5.481412 1.264941 10.962824 2.590118 16.384 4.035765 4.818824 1.204706 9.216 2.590118 13.131294 4.035765 4.336941 1.385412 8.252235 2.831059 11.806118 4.21647 1.807059 4.336941 3.975529 9.035294 6.445176 14.034824 2.168471 4.638118 5.059765 9.999059 8.613647 16.082823 3.614118 6.083765 7.830588 12.709647 12.890353 19.877648 6.324706 8.914824 12.468706 17.950118 18.492236 27.105882 6.264471 9.456941 11.023059 18.070588 14.275764 25.780706 3.192471 7.649882 4.216471 14.034824 2.95153 19.034353z m254.976-200.764236a338.522353 338.522353 0 0 1-11.806118 53.428706 231.544471 231.544471 0 0 1-18.251294 43.730824 82.763294 82.763294 0 0 1-23.371294 27.888941 35.237647 35.237647 0 0 1-27.648 6.445176c-9.818353-1.807059-20.118588-8.734118-30.840471-20.901647a118.964706 118.964706 0 0 0-42.164706-30.358588 367.134118 367.134118 0 0 0-57.946353-20.419765c-20.961882-5.541647-42.224941-9.999059-63.668705-13.372235-19.636706-3.132235-39.333647-6.204235-59.030589-9.155765a821.007059 821.007059 0 0 1-44.815059-7.830588c-12.047059-2.409412-18.672941-5.481412-20.118588-9.035294v-168.05647c1.385412-5.059765 7.047529-9.155765 16.865883-12.348236 9.878588-3.252706 22.407529-6.264471 37.586823-9.155764 15.239529-2.831059 32.406588-6.023529 51.561412-9.396706 19.154824-3.373176 38.671059-8.011294 58.48847-13.974589 19.877647-5.903059 39.273412-13.372235 58.24753-22.528 18.974118-9.095529 36.141176-20.841412 51.561412-35.177411 15.36-14.637176 29.334588-22.708706 41.863529-24.094118a42.465882 42.465882 0 0 1 33.310118 9.878588c9.637647 8.071529 17.889882 19.877647 24.69647 35.418353 6.806588 15.600941 12.348235 32.948706 16.624941 52.10353a586.992941 586.992941 0 0 1 12.890353 119.988705c0 19.034353-1.325176 38.068706-4.035764 56.922353z" p-id="5304"></path></svg>