<?xml version="1.0" encoding="UTF-8"?>
<svg width="26px" height="26px" viewBox="0 0 26 26" version="1.1" xmlns="http://www.w3.org/2000/svg" xmlns:xlink="http://www.w3.org/1999/xlink">
    <title></title>
    <g id="页面-1" stroke="none" stroke-width="1" fill="none" fill-rule="evenodd" stroke-linecap="round" stroke-linejoin="round">
        <g id="0421首页" transform="translate(-310.000000, -761.000000)" stroke-width="0.81">
            <g id="编组" transform="translate(310.725547, 762.025271)">
                <path d="M23.2007425,8.90730776 C23.5561242,10.0067104 23.748658,11.1763228 23.748658,12.3897131 C23.748658,18.7763255 18.4323513,23.9536776 11.874329,23.9536776 C5.31630672,23.9536776 0,18.7763255 0,12.3897131 C0,6.00310068 5.31630672,0.825748568 11.874329,0.825748568 C13.0380132,0.825748568 14.1618337,0.989296066 15.2237379,1.29243714" id="Stroke-3" stroke="#333333"></path>
                <path d="M16.8792768,11.4889641 C16.9344076,11.7813672 16.9632452,12.0820303 16.9632452,12.3901274 C16.9632452,15.126657 14.6850704,17.3461121 11.8742471,17.3461121 C9.06427196,17.3461121 6.78524896,15.126657 6.78524896,12.3901274 C6.78524896,9.65277176 9.06427196,7.43414257 11.8742471,7.43414257 C12.1575347,7.43414257 12.4348851,7.4564445 12.7054501,7.49939637" id="Stroke-5" stroke="#333333"></path>
                <line x1="11.8743321" y1="12.389963" x2="23.7486611" y2="0.825998523" id="Stroke-7" stroke="#3056D3"></line>
                <polygon id="Stroke-9" stroke="#3056D3" points="21.2041606 3.30398986 21.2041606 0 17.8114952 3.30398986 17.8114952 6.60797972 21.2041606 6.60797972 24.596826 3.30398986"></polygon>
            </g>
        </g>
    </g>
</svg>