<?xml version="1.0" encoding="UTF-8"?>
<svg width="52px" height="52px" viewBox="0 0 52 52" version="1.1" xmlns="http://www.w3.org/2000/svg" xmlns:xlink="http://www.w3.org/1999/xlink">
    <title>素材管理</title>
    <defs>
        <linearGradient x1="49.868%" y1="2.976%" x2="49.868%" y2="101.08%" id="linearGradient-1">
            <stop stop-color="#777777" stop-opacity="0.3" offset="0%"></stop>
            <stop stop-color="#A2A6AB" stop-opacity="0" offset="100%"></stop>
        </linearGradient>
    </defs>
    <g id="深蓝色页面" stroke="none" stroke-width="1" fill="none" fill-rule="evenodd">
        <g id="连山个人版-个人版购买-月卡未悬浮状态" transform="translate(-623.000000, -671.000000)" fill-rule="nonzero">
            <g id="素材管理" transform="translate(623.000000, 671.000000)">
                <circle id="椭圆形" fill="url(#linearGradient-1)" opacity="0.4" cx="26" cy="26" r="26"></circle>
                <g id="阿里云-全球云计算服务及云解决方案提供商" transform="translate(8.000000, 7.000000)">
                    <g id="编组" fill="#444444">
                        <path d="M22.749451,16.8880313 L21.391432,27.5684063 L24.7300152,27.5684063 L23.2021241,38 L34.1959536,22.4088375 L29.4669321,22.4088375 L31.53638,16.8478938 L22.749451,16.8880313 Z M30.7926516,24.2303438 L26.0960493,30.8904375 L26.7913283,25.7870375 L23.4204455,25.7870375 L24.301507,18.6695188 L28.957675,18.6695188 L26.8963618,24.2303438 L30.7926516,24.2303438 Z" id="形状"></path>
                        <path d="M20.54267,13.6783375 L17.139368,17.0485812 L16.2824714,16.1899 L15.0700398,20.6915937 L19.6049048,19.4879437 L18.7075738,18.6213062 L22.1108758,15.2510625 C22.7354545,14.6307125 23.4770296,14.1384937 24.2932527,13.8027875 C25.1095954,13.4669625 25.9844362,13.2941812 26.8681296,13.2941812 C27.7517033,13.2941812 28.6265442,13.4669625 29.4428869,13.8027875 C30.2591099,14.1384937 31.000685,14.6307125 31.6252637,15.2510625 C32.2892001,15.9489562 32.8039601,16.7729625 33.1387994,17.6734437 C33.4736387,18.573925 33.6214991,19.5322375 33.5734086,20.4909062 L35.8207435,20.4909062 C35.8719444,19.2433187 35.6715672,17.9979875 35.2315747,16.8280625 C34.7915823,15.6582562 34.1205879,14.5873687 33.2581883,13.6783375 C32.4256958,12.8512437 31.4370886,12.1950312 30.3489507,11.7474031 C29.2608128,11.2997394 28.094438,11.0693169 26.916579,11.0693169 C25.73872,11.0693169 24.5723452,11.2997394 23.4842073,11.7474031 C22.3960694,12.1950312 21.4074621,12.8512437 20.5749697,13.6783375" id="路径"></path>
                        <path d="M8.77278859,28.8682438 L16.7755787,28.8682438 L16.7755787,26.6456 L8.79704918,26.6456 C7.69681687,26.6238688 6.61875166,26.334475 5.65743158,25.8028313 C4.69611151,25.2711875 3.88089333,24.5134438 3.28329076,23.5962188 C2.68567624,22.6789938 2.32394456,21.6301938 2.22979718,20.54185 C2.1356498,19.4533875 2.31198174,18.35875 2.7433131,17.3537688 C3.17465642,16.3489063 3.84781614,15.4643375 4.70376771,14.777725 C5.55970732,14.0912313 6.57228807,13.6235938 7.65268603,13.4160188 C8.733084,13.2084438 9.8482818,13.267225 10.9005193,13.5871375 C11.9526491,13.90705 12.9096745,14.478475 13.6876166,15.2510625 L15.3043914,13.6461563 C14.2657796,12.61505 12.9879114,11.8530194 11.582998,11.4271581 C10.1781326,11.0012969 8.6893599,10.9246438 7.24764895,11.2039438 C5.80592604,11.4832319 4.45543158,12.1098875 3.31495634,13.0288938 C2.17446915,13.9477813 1.27894457,15.1308875 0.707133843,16.47395 C0.135311153,17.8171313 -0.0952542154,19.2790625 0.0356967695,20.7314938 C0.166641773,22.1838063 0.655095586,23.58185 1.45809973,24.8028375 C2.26110387,26.023825 3.35405083,27.0302313 4.6408074,27.7335875 C5.92756397,28.436825 7.3687007,28.8155188 8.83745958,28.8361813" id="路径"></path>
                        <path d="M17.8992462,2.24372187 C19.8002576,2.24449375 21.6358323,2.9336475 23.061561,4.18197125 C24.48717,5.43028312 25.4051966,7.15200375 25.6433763,9.02426375 L27.8663071,8.74342 C27.5640067,6.32983812 26.3836355,4.1090825 24.5473429,2.49888 C22.7110504,0.888679875 20.3452836,0 17.8951788,0 C15.4449545,0 13.0793073,0.888679875 11.2430148,2.49888 C9.40666242,4.1090825 8.22632707,6.32983812 7.92397882,8.74342 L10.1469814,9.02426375 C10.3852807,7.15063812 11.3045036,5.42781312 12.7319071,4.17931125 C14.1593105,2.93080937 15.9966797,2.24253437 17.8992462,2.24372187 Z" id="路径"></path>
                    </g>
                    <polygon id="路径" fill="#3056D3" points="16.7837134 32.2384875 6.84079352 32.2384875 6.84079352 34.46125 16.7837134 34.46125"></polygon>
                </g>
            </g>
        </g>
    </g>
</svg>