<?xml version="1.0" encoding="UTF-8"?>
<svg width="138px" height="144px" viewBox="0 0 138 144" version="1.1" xmlns="http://www.w3.org/2000/svg" xmlns:xlink="http://www.w3.org/1999/xlink">
    <title></title>
    <defs>
        <linearGradient x1="49.9684134%" y1="-2.3164557%" x2="49.9684134%" y2="101.075949%" id="linearGradient-1">
            <stop stop-color="#FDFEFF" offset="0%"></stop>
            <stop stop-color="#ECF0F5" offset="99.64%"></stop>
        </linearGradient>
        <path d="M32.382298,116.108036 L37.1008974,61.3671919 C37.2696613,59.3336602 38.9553603,57.808268 40.9776172,57.808268 L108.058352,57.808268 C109.910875,57.808268 111.259046,59.3336602 111.084463,61.197812 L106.370713,107.803556 L32.382298,116.108036 Z" id="path-2"></path>
        <filter x="-40.7%" y="-56.6%" width="181.3%" height="209.8%" filterUnits="objectBoundingBox" id="filter-3">
            <feOffset dx="0" dy="-1" in="SourceAlpha" result="shadowOffsetOuter1"></feOffset>
            <feGaussianBlur stdDeviation="10.5" in="shadowOffsetOuter1" result="shadowBlurOuter1"></feGaussianBlur>
            <feColorMatrix values="0 0 0 0 0.396078431   0 0 0 0 0.478431373   0 0 0 0 0.576470588  0 0 0 0.27 0" type="matrix" in="shadowBlurOuter1"></feColorMatrix>
        </filter>
        <linearGradient x1="49.9684134%" y1="-2.3164557%" x2="49.9684134%" y2="101.075949%" id="linearGradient-4">
            <stop stop-color="#FDFEFF" offset="0%"></stop>
            <stop stop-color="#ECF0F5" offset="99.64%"></stop>
        </linearGradient>
        <path d="M59.1788993,110.175847 L34.5733188,115.938656 L49.7417004,74.0784687 C50.415786,72.2143168 52.1005152,71.0276844 54.1227721,71.0276844 L113.615921,71.0276844 C115.807912,71.0276844 117.320968,73.3999758 116.312264,75.4335076 L100.134209,108.651428 L59.1788993,110.175847 Z" id="path-5"></path>
        <filter x="-39.6%" y="-67.9%" width="179.2%" height="244.7%" filterUnits="objectBoundingBox" id="filter-6">
            <feOffset dx="0" dy="2" in="SourceAlpha" result="shadowOffsetOuter1"></feOffset>
            <feGaussianBlur stdDeviation="10.5" in="shadowOffsetOuter1" result="shadowBlurOuter1"></feGaussianBlur>
            <feColorMatrix values="0 0 0 0 0.396078431   0 0 0 0 0.478431373   0 0 0 0 0.576470588  0 0 0 0.27 0" type="matrix" in="shadowBlurOuter1"></feColorMatrix>
        </filter>
        <path d="M85.1520492,117.004581 C84.819371,118.422894 84.3208386,119.922976 83.7388942,121.173856 C82.1608549,124.259685 79.6681929,126.677728 76.5945564,128.261527 C73.4365379,129.8463 69.6985148,130.513111 65.9595218,129.67984 C57.1527628,127.844892 51.5030522,119.172448 53.3313277,110.333546 C55.1586332,101.494643 63.7161261,95.7415683 72.5228851,97.6592598 C75.6799337,98.3260713 78.4218619,99.9108437 80.7486697,102.078711 C84.6535169,105.997811 86.3130284,111.668142 85.1520492,117.004581 Z" id="path-7"></path>
        <filter x="-44.6%" y="-29.0%" width="189.2%" height="188.5%" filterUnits="objectBoundingBox" id="filter-8">
            <feOffset dx="0" dy="5" in="SourceAlpha" result="shadowOffsetOuter1"></feOffset>
            <feGaussianBlur stdDeviation="4" in="shadowOffsetOuter1" result="shadowBlurOuter1"></feGaussianBlur>
            <feColorMatrix values="0 0 0 0 0.11372549   0 0 0 0 0.294117647   0 0 0 0 1  0 0 0 0.22 0" type="matrix" in="shadowBlurOuter1"></feColorMatrix>
        </filter>
        <linearGradient x1="80.8011382%" y1="80.9932903%" x2="28.3084864%" y2="28.3877845%" id="linearGradient-9">
            <stop stop-color="#C2D1FF" offset="1.13208%"></stop>
            <stop stop-color="#FFFFFF" offset="100%"></stop>
        </linearGradient>
    </defs>
    <g id="6.12-默认图片-视频图-/-Default-picture" stroke="none" stroke-width="1" fill="none" fill-rule="evenodd">
        <g id="6.14空状态" transform="translate(-991.000000, -2533.000000)" fill-rule="nonzero">
            <g id="5备份" transform="translate(991.000000, 2533.000000)">
                <path d="M118.426662,84.5488695 C118.426662,98.3718233 112.801199,110.831951 103.78106,119.787667 C94.9549032,128.646039 82.7331002,134 69.2513875,134 C55.8666656,134 43.6458325,128.548694 34.7226845,119.787667 C25.7025458,110.831951 20.0770829,98.3718233 20.0770829,84.5488695 C20.0770829,57.1949961 42.0939807,35.097739 69.2513875,35.097739 C96.4097643,35.097739 118.426662,57.2923409 118.426662,84.5488695 Z" id="Path" fill="#EAEEF9"></path>
                <path d="M123.518676,65.7905371 C125.710667,65.7905371 127.495296,64.004261 127.495296,61.7994026 C127.495296,59.5955175 125.710667,57.808268 123.518676,57.808268 C121.326685,57.808268 119.542056,59.5955175 119.542056,61.7994026 C119.542056,64.004261 121.326685,65.7905371 123.518676,65.7905371 Z" id="Path" fill="#EAEEF9"></path>
                <path d="M119.978514,36.5579102 C121.48187,36.5579102 122.694255,35.337207 122.694255,33.8322573 C122.694255,32.3263341 121.48187,31.1066044 119.978514,31.1066044 C118.475157,31.1066044 117.262773,32.3263341 117.262773,33.8322573 C117.262773,35.337207 118.475157,36.5579102 119.978514,36.5579102 Z" id="Path" fill="#EAEEF9"></path>
                <path d="M21.6289348,52.0357246 C23.1293815,52.0357246 24.3446754,50.8150215 24.3446754,49.3100718 C24.3446754,47.8041486 23.1293815,46.5844189 21.6289348,46.5844189 C20.1294579,46.5844189 18.9131941,47.8041486 18.9131941,49.3100718 C18.9131941,50.8150215 20.1294579,52.0357246 21.6289348,52.0357246 Z" id="Path" fill="#EAEEF9"></path>
                <path d="M5.04351842,104.601887 C7.82909244,104.601887 10.0870368,102.335701 10.0870368,99.5399602 C10.0870368,96.7442192 7.82909244,94.4780335 5.04351842,94.4780335 C2.2579444,94.4780335 0,96.7442192 0,99.5399602 C0,102.335701 2.2579444,104.601887 5.04351842,104.601887 Z" id="Path" fill="#EAEEF9"></path>
                <path d="M106.535597,55.4359766 L102.491084,84.9246202 L97.4378661,121.361732 C96.2545791,122.039251 94.9064079,122.547391 93.5582366,122.547391 L35.2474044,122.547391 C32.7188558,122.547391 30.527835,121.700491 28.674342,120.344479 C28.1690203,120.005719 27.6627286,119.49758 27.1574069,118.988467 C25.13515,116.954935 23.7869787,113.904151 23.7869787,110.68496 L23.7869787,47.6396359 C23.7869787,44.7592049 26.1467634,42.5553199 28.8431059,42.5553199 L46.5390662,42.5553199 C47.7184736,42.5553199 48.8988509,43.0644329 49.9094944,44.0807121 L55.6397072,50.3516605 C56.4825568,51.1985598 57.662934,51.7076728 58.8423414,51.7076728 L103.170019,51.7076728 C105.187426,51.7076728 106.710181,53.4024448 106.535597,55.4359766 Z" id="Path" fill="#CED7E2"></path>
                <g id="Path">
                    <use fill="black" fill-opacity="1" filter="url(#filter-3)" xlink:href="#path-2"></use>
                    <use fill="url(#linearGradient-1)" xlink:href="#path-2"></use>
                </g>
                <g id="Path">
                    <use fill="black" fill-opacity="1" filter="url(#filter-6)" xlink:href="#path-5"></use>
                    <use fill="url(#linearGradient-4)" xlink:href="#path-5"></use>
                </g>
                <path d="M122.044417,88.9916837 L99.4552735,119.49758 C98.9509217,120.175099 98.1071022,120.852619 97.4378661,121.361732 C96.2545791,122.039251 94.9064079,122.547391 93.5582366,122.547391 L35.2474044,122.547391 C32.7188558,122.547391 30.527835,121.700491 28.674342,120.344479 L50.2373231,95.099093 C51.5272999,93.589276 53.4098902,92.7199874 55.3914109,92.7199874 L89.3488385,92.7199874 C91.0364774,92.7199874 92.7144172,92.2118478 94.0625884,91.0252154 L100.473676,86.1102792 C101.142912,85.6021396 101.821848,85.2633799 102.491084,84.9246202 C103.334903,84.584887 104.343607,84.4155072 105.187426,84.4155072 L119.687542,84.4155072 C122.044417,84.2461273 123.392588,87.1275318 122.044417,88.9916837 Z" id="Path" fill="#CED7E2"></path>
                <path d="M109.484116,48.6685699 L83.0269822,31.4697003 C81.5051975,30.4709432 81.0619498,28.4403319 82.0522252,26.8974176 L98.4853661,1.50990813 C99.4746717,-0.0164574759 101.501778,-0.463269856 103.043931,0.528673097 L129.493305,17.7275427 C131.01606,18.7262997 131.462217,20.7559377 130.472912,22.2998253 L114.05238,47.7048569 C113.053375,49.2312225 111.00687,49.667327 109.484116,48.6685699 Z" id="Path" fill="#EAEEF9"></path>
                <path d="M110.483121,43.915226 L87.2150423,28.7927198 C86.5652043,28.3721905 86.3809219,27.4912206 86.8076812,26.8321967 L100.386385,5.84077584 C100.813144,5.18077847 101.68606,5.00263758 102.345598,5.42219343 L125.603977,20.545673 C126.263514,20.9652289 126.438097,21.8461988 126.021037,22.5061962 L112.432634,43.4966436 C112.015574,44.156641 111.132958,44.3347818 110.483121,43.915226 Z" id="Path" fill="#FFFFFF"></path>
                <polygon id="Path" fill="#B0B7C4" points="104.459996 28.7099768 95.9636069 23.186636 103.325204 21.1170867"></polygon>
                <polygon id="Path" fill="#CED6E2" points="111.482125 33.272525 99.251593 25.3291938 109.842982 22.3562853"></polygon>
                <path d="M102.694764,17.8015247 C103.102125,18.7808128 104.217519,19.249041 105.187426,18.8479807 C106.167033,18.4459469 106.632588,17.3264823 106.234926,16.3471942 C105.837264,15.367906 104.721871,14.8996778 103.742264,15.3017116 C102.762658,15.702772 102.297102,16.8222365 102.694764,17.8015247 Z" id="Path" fill="#B0B7C4"></path>
                <g id="Path">
                    <use fill="black" fill-opacity="1" filter="url(#filter-8)" xlink:href="#path-7"></use>
                    <use fill="#2C71F4" xlink:href="#path-7"></use>
                </g>
                <path d="M74.4336027,112.25221 L70.6955796,112.25221 L70.6955796,108.499571 C70.6955796,107.749043 70.1136352,107.082231 69.2824246,107.082231 C68.534626,107.082231 67.8702394,107.665326 67.8702394,108.499571 L67.8702394,112.25221 L64.1312464,112.25221 C63.3834478,112.25221 62.7190613,112.835306 62.7190613,113.66955 C62.7190613,114.503794 63.3010057,115.086889 64.1312464,115.086889 L67.8702394,115.086889 L67.8702394,118.839529 C67.8702394,119.590057 68.4521838,120.256869 69.2824246,120.256869 C70.0302232,120.256869 70.6955796,119.6728 70.6955796,118.839529 L70.6955796,115.086889 L74.4336027,115.086889 C75.1814013,115.086889 75.8467578,114.503794 75.8467578,113.66955 C75.8467578,112.835306 75.1814013,112.25221 74.4336027,112.25221 Z" id="Path" fill="url(#linearGradient-9)"></path>
            </g>
        </g>
    </g>
</svg>