<?xml version="1.0" encoding="UTF-8"?>
<svg width="152px" height="40px" viewBox="0 0 152 40" version="1.1" xmlns="http://www.w3.org/2000/svg" xmlns:xlink="http://www.w3.org/1999/xlink">
    <title></title>
    <g id="页面-1" stroke="none" stroke-width="1" fill="none" fill-rule="evenodd" opacity="0.1">
        <g id="0421首页" transform="translate(-769.000000, -550.000000)" fill="#FF991F">
            <g id="形状结合备份-9" transform="translate(770.000000, 550.000000)">
                <path d="M136.680485,0 C137.366617,-1.78701636e-14 138.004854,0.351721209 138.371321,0.931789203 L149.74309,18.9317892 C150.155309,19.584277 150.155309,20.415723 149.74309,21.0682108 L138.371321,39.0682108 C138.004854,39.6482788 137.366617,40 136.680485,40 L-0.246785646,40 C0.439346023,40 1.07758352,39.6482788 1.44405015,39.0682108 L1.44405015,39.0682108 L12.8158193,21.0682108 C13.2280382,20.415723 13.2280382,19.584277 12.8158193,18.9317892 L12.8158193,18.9317892 L1.44405015,0.931789203 C1.07758352,0.351721209 0.439346023,-1.78701636e-14 -0.246785646,0 L-0.246785646,0 L136.680485,0 Z" id="形状结合备份-2"></path>
            </g>
        </g>
    </g>
</svg>