<?xml version="1.0" encoding="UTF-8"?>
<svg width="26px" height="26px" viewBox="0 0 26 26" version="1.1" xmlns="http://www.w3.org/2000/svg" xmlns:xlink="http://www.w3.org/1999/xlink">
    <title>环形图</title>
    <g id="页面-1" stroke="none" stroke-width="1" fill="none" fill-rule="evenodd">
        <g id="内部_数据/概览/视频消耗/分组详情1.3" transform="translate(-976.000000, -740.000000)" fill="#2396FF" fill-rule="nonzero">
            <g id="编组-19" transform="translate(772.000000, 693.000000)">
                <g id="编组-18" transform="translate(0.000000, 44.000000)">
                    <g id="编组-9" transform="translate(104.000000, 3.000000)">
                        <g id="环形图" transform="translate(100.000000, 0.000000)">
                            <path d="M19.7011968,21.2162983 L16.2840748,19.2249446 C12.8655699,21.0231321 8.65007151,19.7355408 6.79284394,16.3259218 C4.93561638,12.9163027 6.11699106,8.63365242 9.45271915,6.68349798 L9.45271915,2.75764472 C5.20294408,4.27587167 2.36158994,8.33170068 2.35995221,12.8820602 C2.35976915,17.0229395 4.71907504,20.7947356 8.42300939,22.5750024 C12.1269437,24.3552692 16.5150413,23.8265593 19.6997526,21.2162983 L19.7011968,21.2162983 Z M22.5348374,21.7950446 C18.7147384,25.9578773 12.6763248,27.1702282 7.5687775,24.7998264 C2.46123022,22.4294247 -0.557881818,17.0134956 0.0859824386,11.3765791 C0.729846695,5.73966268 4.89076256,1.15930343 10.3987102,0.0242711906 C10.7460896,-0.0465733049 11.1066283,0.0437339867 11.3808929,0.270287154 C11.6551576,0.49684032 11.8141738,0.835705257 11.8140863,1.19342616 L11.8140863,7.4138554 C11.8140863,7.88909795 11.5367881,8.31769091 11.1063982,8.50720479 C9.47006543,9.23128356 8.37800259,10.8247244 8.28383786,12.6256336 C8.18967314,14.4265427 9.10949841,16.1271612 10.6612307,17.0210752 C12.212963,17.9149891 14.1314254,17.8494366 15.6197146,16.8516475 C15.99371,16.5987339 16.4776012,16.5823399 16.8675563,16.8093713 L22.2589835,19.9523864 C22.9161223,20.3343298 23.0504386,21.2337919 22.5348374,21.7950446 L22.5348374,21.7950446 Z M23.6324808,12.8820602 C23.6310549,8.33207876 20.7903586,4.27636294 16.5411533,2.75764472 L16.5411533,6.68349798 C18.8256114,8.01366101 20.1898098,10.5138001 20.0824818,13.1736201 L23.4042826,15.1095774 C23.5567099,14.3770745 23.6331864,13.6305465 23.6324808,12.8820602 Z M23.5328219,17.9406235 L18.2410488,14.8559204 C17.8170775,14.6089718 17.5878925,14.1236938 17.6647885,13.6357424 C18.0055441,11.4878314 16.8638968,9.37918916 14.8889184,8.50866259 C14.4586951,8.31858582 14.1808629,7.88934634 14.1812301,7.4153132 L14.1812301,1.19342616 C14.1812301,0.439743957 14.864366,-0.125882114 15.5966064,0.0242711906 C19.2916045,0.785206343 22.477297,3.12788355 24.327485,6.44473713 C26.1776729,9.76159071 26.5100789,13.7258497 25.2384944,17.3093965 C25.1202759,17.6424847 24.8616209,17.9053843 24.5324552,18.0270221 C24.2032894,18.1486598 23.8376064,18.1164739 23.5342662,17.9391657 L23.5328219,17.9406235 Z" id="形状"></path>
                        </g>
                    </g>
                </g>
            </g>
        </g>
    </g>
</svg>