<?xml version="1.0" standalone="no"?><!DOCTYPE svg PUBLIC "-//W3C//DTD SVG 1.1//EN" "http://www.w3.org/Graphics/SVG/1.1/DTD/svg11.dtd"><svg t="1646290526765" class="icon" viewBox="0 0 1024 1024" version="1.1" xmlns="http://www.w3.org/2000/svg" p-id="4634" xmlns:xlink="http://www.w3.org/1999/xlink" width="200" height="200"><defs><style type="text/css"></style></defs><path d="M999.905882 124.988235C999.905882 55.958588 945.694118 0 879.435294 0h-126.494118c-30.117647 0-48.188235 22.407529-48.188235 49.995294 0 27.648 18.070588 49.995294 48.188235 49.995294h126.494118c12.047059 0 24.094118 11.203765 24.094118 24.997647V249.976471c0 27.648 24.094118 49.995294 48.188235 49.995294 30.117647 0 48.188235-22.347294 48.188235-49.995294V124.988235zM451.764706 199.981176c138.541176 0 252.988235 111.977412 252.988235 250.036706 0 57.344-24.094118 110.230588-54.211765 152.395294l114.447059 112.218353c18.070588 19.516235 18.070588 51.2 0 70.716236-24.094118 19.516235-54.211765 19.516235-72.282353 0l-120.470588-117.278118c-36.141176 20.299294-72.282353 31.924706-120.470588 31.924706-138.541176 0-246.964706-111.917176-246.964706-249.976471 0-138.059294 108.423529-250.036706 246.964706-250.036706z m0 99.990589C367.435294 299.971765 301.176471 367.134118 301.176471 450.017882c0 82.823529 66.258824 149.985882 150.588235 149.985883S602.352941 532.841412 602.352941 450.017882C602.352941 367.134118 536.094118 299.971765 451.764706 299.971765zM126.494118 0C60.235294 0 0 55.958588 0 124.988235V249.976471c0 27.648 24.094118 49.995294 54.211765 49.995294 24.094118 0 48.188235-22.347294 48.188235-49.995294V124.988235c0-13.793882 12.047059-24.997647 24.094118-24.997647h126.494117c30.117647 0 48.188235-22.347294 48.188236-49.995294C301.176471 22.407529 283.105882 0 252.988235 0H126.494118zM999.905882 874.977882c0 69.029647-54.211765 124.988235-120.470588 124.988236h-126.494118c-30.117647 0-48.188235-22.407529-48.188235-49.995294 0-27.648 18.070588-49.995294 48.188235-49.995295h126.494118c12.047059 0 24.094118-11.203765 24.094118-24.997647v-124.988235c0-27.648 24.094118-49.995294 48.188235-49.995294 30.117647 0 48.188235 22.347294 48.188235 49.995294v124.988235zM126.494118 999.966118c-66.258824 0-126.494118-55.958588-126.494118-124.988236v-124.988235c0-27.648 24.094118-49.995294 54.211765-49.995294 24.094118 0 48.188235 22.347294 48.188235 49.995294v124.988235c0 13.793882 12.047059 24.997647 24.094118 24.997647h126.494117c30.117647 0 48.188235 22.347294 48.188236 49.995295 0 27.587765-18.070588 49.995294-48.188236 49.995294H126.494118z" p-id="4635"></path></svg>