<?xml version="1.0" encoding="UTF-8"?>
<svg width="52px" height="51px" viewBox="0 0 52 51" version="1.1" xmlns="http://www.w3.org/2000/svg" xmlns:xlink="http://www.w3.org/1999/xlink">
    <title>关闭</title>
    <g id="6.13-视频预览-/-PreviewImage" stroke="none" stroke-width="1" fill="none" fill-rule="evenodd" opacity="0.5">
        <g transform="translate(-1383.000000, -1811.000000)" fill="#FFFFFF" fill-rule="nonzero" id="编组-16备份">
            <g transform="translate(190.000000, 1594.000000)">
                <g id="关闭" transform="translate(1193.860465, 217.750000)">
                    <path d="M42.8752568,7.35803731 L42.8752585,7.35803903 C33.0662211,-2.45337379 17.1634923,-2.45258863 7.35548504,7.35984848 C-2.45252222,17.1722918 -2.45173733,33.0805424 7.35729386,42.8919552 C17.1655955,52.702681 33.0669507,52.702681 42.8752523,42.8919586 L42.875254,42.8919569 C52.6842914,33.0805441 52.6850763,17.1722445 42.8770628,7.35985019 C42.8764588,7.35924587 42.8758547,7.35864158 42.8752506,7.35803732 L42.8752568,7.35803731 Z M33.7436723,31.2178124 L33.7436723,31.2178124 C34.2390763,31.7104342 34.2414751,32.5115244 33.7490255,33.0071004 C33.7472465,33.0088908 33.745462,33.0106758 33.7436723,33.0124555 L32.9812116,33.775181 L32.9812116,33.775181 C32.4887607,34.270757 31.6879486,34.2731566 31.1925446,33.780536 C31.1907549,33.7787564 31.1889705,33.7769713 31.1871914,33.775181 L25.1144466,27.6644067 L19.0237476,33.7572206 L19.0237476,33.7572206 C18.5312968,34.2527966 17.7304846,34.2551962 17.2350806,33.7625756 C17.2332909,33.7607959 17.2315065,33.7590109 17.2297274,33.7572206 L16.4672667,32.9944951 L16.4672667,32.9944951 C15.9718627,32.5018733 15.9694639,31.7007831 16.4619135,31.205207 C16.4636925,31.2034167 16.4654769,31.2016317 16.4672666,31.199852 L22.5759199,25.1249986 L16.4852208,19.0321848 L16.4852209,19.0321848 C15.9898169,18.5395629 15.9874181,17.7384728 16.4798676,17.2428967 C16.4816467,17.2411064 16.4834311,17.2393213 16.4852208,17.2375417 L17.2476816,16.4748162 L17.2476815,16.4748162 C17.7401324,15.9792402 18.5409445,15.9768406 19.0363485,16.4694611 C19.0381382,16.4712408 19.0399226,16.4730258 19.0417017,16.4748162 L25.1144465,22.5855905 L31.2051455,16.4927766 L31.2051455,16.4927766 C31.6975963,15.9972006 32.4984085,15.994801 32.9938125,16.4874215 C32.9956022,16.4892012 32.9973866,16.4909862 32.9991657,16.4927766 L33.7616264,17.2555021 L33.7616264,17.2555021 C34.2570304,17.748124 34.2594292,18.5492142 33.7669795,19.0447902 C33.7652005,19.0465805 33.7634161,19.0483655 33.7616264,19.0501452 L27.6529731,25.1249986 L33.7436723,31.2178124 Z" id="形状"></path>
                </g>
            </g>
        </g>
    </g>
</svg>