<?xml version="1.0" encoding="UTF-8"?>
<svg width="132px" height="40px" viewBox="0 0 132 40" version="1.1" xmlns="http://www.w3.org/2000/svg" xmlns:xlink="http://www.w3.org/1999/xlink">
    <title></title>
    <g id="页面-1" stroke="none" stroke-width="1" fill="none" fill-rule="evenodd" fill-opacity="0.1">
        <g id="0421首页" transform="translate(-1049.000000, -686.000000)" fill="#DF5BFC">
            <g id="形状结合备份-19" transform="translate(1050.000000, 686.000000)">
                <path d="M118.226523,0 C118.957266,7.72254178e-15 119.629839,0.398535267 119.980782,1.03949144 L129.836315,19.0394914 C130.16397,19.637916 130.16397,20.362084 129.836315,20.9605086 L119.980782,38.9605086 C119.629839,39.6014647 118.957266,40 118.226523,40 L-0.443778324,40 C0.286964752,40 0.959537803,39.6014647 1.31048029,38.9605086 L1.31048029,38.9605086 L11.1660136,20.9605086 C11.4936687,20.362084 11.4936687,19.637916 11.1660136,19.0394914 L11.1660136,19.0394914 L1.31048029,1.03949144 C0.959537803,0.398535267 0.286964752,7.72254178e-15 -0.443778324,0 L-0.443778324,0 L118.226523,0 Z" id="形状结合备份-13"></path>
            </g>
        </g>
    </g>
</svg>