<?xml version="1.0" encoding="UTF-8"?>
<svg width="52px" height="52px" viewBox="0 0 52 52" version="1.1" xmlns="http://www.w3.org/2000/svg" xmlns:xlink="http://www.w3.org/1999/xlink">
    <title>报表推送</title>
    <defs>
        <linearGradient x1="49.868%" y1="2.976%" x2="49.868%" y2="101.08%" id="linearGradient-1">
            <stop stop-color="#777777" stop-opacity="0.3" offset="0%"></stop>
            <stop stop-color="#A2A6AB" stop-opacity="0" offset="100%"></stop>
        </linearGradient>
    </defs>
    <g id="深蓝色页面" stroke="none" stroke-width="1" fill="none" fill-rule="evenodd">
        <g id="连山个人版-个人版购买-月卡未悬浮状态" transform="translate(-623.000000, -753.000000)" fill-rule="nonzero">
            <g id="编组-17" transform="translate(623.000000, 671.000000)">
                <g id="推送时报日报" transform="translate(0.000000, 82.000000)">
                    <circle id="椭圆形备份" fill="url(#linearGradient-1)" opacity="0.4" cx="26" cy="26" r="26"></circle>
                    <g id="阿里云-全球云计算服务及云解决方案提供商" transform="translate(11.000000, 7.000000)">
                        <path d="M15.4913484,0 L0,5.13860938 L0,18.8415875 C0,28.4679375 6.43754268,36.5269063 15.3106795,38 L15.6893205,38 C24.5625051,36.5269063 31,28.4679375 31,18.8415875 L31,5.13860938 L15.4913484,0 L15.4913484,2.50079187 L28.6332844,6.88573062 L28.6332844,18.8757875 C28.6332844,27.2689188 23.125268,34.291675 15.5086516,35.6533813 L15.4913484,35.6533813 C7.87479165,34.291675 2.36673942,27.2689188 2.36673942,18.8757875 L2.36673942,6.88573062 L15.4913484,2.50079187 L15.4913484,0 Z" id="路径" fill="#444444"></path>
                        <polygon id="路径" fill="#3056D3" points="20.9133263 24.519975 10.3276054 24.519975 10.3276054 26.8923625 20.9133263 26.8923625"></polygon>
                        <polygon id="路径" fill="#444444" points="14.1172381 18.6449375 22.636364 10.1673869 24.4620273 11.9841313 14.6029202 21.7951375 14.6008915 21.7931188 14.2551861 22.1371375 8.61506896 16.5244188 10.3007556 14.8469563"></polygon>
                    </g>
                </g>
            </g>
        </g>
    </g>
</svg>