<?xml version="1.0" encoding="UTF-8"?>
<svg width="52px" height="52px" viewBox="0 0 52 52" version="1.1" xmlns="http://www.w3.org/2000/svg" xmlns:xlink="http://www.w3.org/1999/xlink">
    <title>运营托管</title>
    <defs>
        <linearGradient x1="49.868%" y1="2.976%" x2="49.868%" y2="101.08%" id="linearGradient-1">
            <stop stop-color="#777777" stop-opacity="0.3" offset="0%"></stop>
            <stop stop-color="#A2A6AB" stop-opacity="0" offset="100%"></stop>
        </linearGradient>
    </defs>
    <g id="深蓝色页面" stroke="none" stroke-width="1" fill="none" fill-rule="evenodd">
        <g id="连山个人版-个人版购买-月卡未悬浮状态" transform="translate(-1140.000000, -668.000000)" fill-rule="nonzero">
            <g id="运营托管" transform="translate(1140.000000, 668.000000)">
                <circle id="椭圆形备份-3" fill="url(#linearGradient-1)" opacity="0.4" cx="26" cy="26" r="26"></circle>
                <g id="阿里云-全球云计算服务及云解决方案提供商" transform="translate(7.000000, 8.000000)">
                    <g id="编组" fill="#444444">
                        <path d="M27.8835687,36.9998791 L25.4527562,36.9998791 L25.4527562,30.8314393 L31.5122125,30.8314393 L31.5122125,22.5445551 L34.7385312,21.449671 L31.5208812,13.8125608 L31.5208812,13.5632893 C31.5287187,10.8091183 30.5302687,8.15036432 28.719925,6.10372758 C26.9094625,4.05710293 24.4161875,2.76877351 21.7247187,2.48911081 C19.03325,2.20946021 16.335725,2.95845914 14.156425,4.59054616 C11.977125,6.22263318 10.471755,8.62123583 9.93278437,11.3202093 L7.55450687,10.8217511 C8.219115,7.55444608 10.042545,4.65078474 12.6766812,2.66518443 C15.310675,0.67959622 18.5708375,-0.248803176 21.8346812,0.057251825 C25.098525,0.363304408 28.1372187,1.88237308 30.3706687,4.32439876 C32.6041187,6.76643653 33.8758125,9.96033828 33.9429062,13.2962474 L38,22.9450577 L33.9429062,24.3158086 L33.9429062,33.2970744 L27.8835687,33.2970744 L27.8835687,36.9998791 Z" id="路径"></path>
                        <polygon id="路径" points="13.3340813 30.8315602 10.9121156 30.8315602 10.9121156 37 13.3340813 37"></polygon>
                        <polygon id="路径" points="3.63739563 19.8476609 1.21540625 19.8476609 1.21540625 22.0729704 3.63739563 22.0729704"></polygon>
                        <polygon id="路径" points="21.8154437 19.8476609 19.3934187 19.8476609 19.3934187 22.0729704 21.8154437 22.0729704"></polygon>
                        <polygon id="路径" points="2.42200125 26.0249256 0 26.0249256 0 28.2501142 2.42200125 28.2501142"></polygon>
                        <polygon id="路径" points="20.608825 26.0249256 18.1868 26.0249256 18.1868 28.2501142 20.608825 28.2501142"></polygon>
                        <polygon id="路径" points="15.764775 26.0249256 4.85270688 26.0249256 4.85270688 28.2501142 15.764775 28.2501142"></polygon>
                        <polygon id="路径" points="4.85273063 13.6789793 2.43074125 13.6789793 2.43074125 15.9042888 4.85273063 15.9042888"></polygon>
                        <polygon id="路径" points="23.0307312 13.6789793 20.6087062 13.6789793 20.6087062 15.9042888 23.0307312 15.9042888"></polygon>
                        <polygon id="路径" points="18.1868 13.6789793 7.2746725 13.6789793 7.2746725 15.9042888 18.1868 15.9042888"></polygon>
                    </g>
                    <polygon id="路径" fill="#3056D3" points="16.81405 19.7317292 6.0593375 19.7317292 6.0593375 22.1972434 16.81405 22.1972434"></polygon>
                </g>
            </g>
        </g>
    </g>
</svg>