<?xml version="1.0" encoding="UTF-8"?>
<svg width="16px" height="16px" viewBox="0 0 16 16" version="1.1" xmlns="http://www.w3.org/2000/svg" xmlns:xlink="http://www.w3.org/1999/xlink">
    <title>快速</title>
    <g id="页面-1" stroke="none" stroke-width="1" fill="none" fill-rule="evenodd">
        <g id="跨账户-多素材混搭投放" transform="translate(-576.000000, -822.000000)" fill="#FFFFFF">
            <g id="编组-20" transform="translate(568.000000, 815.000000)">
                <g id="s" transform="translate(8.000000, 7.000000)">
                    <rect id="矩形" fill-rule="nonzero" opacity="0" x="0" y="0" width="16" height="16"></rect>
                    <path d="M8.224,13.184 L11.968,7.584 C12.128,7.36 12.064,7.072 11.84,6.912 C11.776,6.848 11.68,6.816 11.584,6.816 L8.64,6.816 L8.64,3.296 C8.64,3.04 8.416,2.816 8.16,2.816 C8,2.816 7.84,2.912 7.776,3.04 L4.032,8.64 C3.872,8.864 3.936,9.152 4.16,9.312 C4.224,9.376 4.32,9.408 4.416,9.408 L7.36,9.408 L7.36,12.928 C7.36,13.184 7.584,13.408 7.84,13.408 C8,13.408 8.16,13.312 8.224,13.184 L8.224,13.184 Z" id="路径"></path>
                </g>
            </g>
        </g>
    </g>
</svg>