<?xml version="1.0" encoding="UTF-8"?>
<svg width="52px" height="52px" viewBox="0 0 52 52" version="1.1" xmlns="http://www.w3.org/2000/svg" xmlns:xlink="http://www.w3.org/1999/xlink">
    <title>投放策略</title>
    <defs>
        <linearGradient x1="49.868%" y1="2.976%" x2="49.868%" y2="101.08%" id="linearGradient-1">
            <stop stop-color="#777777" stop-opacity="0.3" offset="0%"></stop>
            <stop stop-color="#A2A6AB" stop-opacity="0" offset="100%"></stop>
        </linearGradient>
    </defs>
    <g id="深蓝色页面" stroke="none" stroke-width="1" fill="none" fill-rule="evenodd">
        <g id="连山个人版-个人版购买-月卡未悬浮状态" transform="translate(-335.000000, -753.000000)" fill-rule="nonzero">
            <g id="编组-16" transform="translate(335.000000, 669.000000)">
                <g id="投放策略" transform="translate(0.000000, 84.000000)">
                    <circle id="椭圆形" fill="url(#linearGradient-1)" opacity="0.4" cx="26" cy="26" r="26"></circle>
                    <g id="阿里云-全球云计算服务及云解决方案提供商备份" transform="translate(8.000000, 10.000000)">
                        <path d="M31.2956973,1.54599369e-06 C30.4089402,-0.000739306095 29.5416648,0.264801673 28.8019168,0.763537634 C28.0621687,1.26226217 27.4826416,1.97210373 27.1357762,2.80454483 C26.7887989,3.63698593 26.6898225,4.55518047 26.8509391,5.44464966 C27.0121677,6.33411885 27.4265475,7.15549241 28.0423511,7.80635278 L22.3468398,16.832713 C21.3980545,16.4687063 20.3518602,16.4687063 19.4029629,16.832713 L15.9907393,11.381065 C16.6177393,10.7332314 17.0428677,9.91076132 17.2127175,9.01703187 C17.3825673,8.12333668 17.289525,7.19835771 16.9454587,6.35843546 C16.6012805,5.51852462 16.0213055,4.80117907 15.2785345,4.29664093 C14.5357634,3.7921028 13.6632257,3.52289548 12.7708704,3.52289548 C11.878515,3.52289548 11.0060109,3.7921028 10.2632174,4.29664093 C9.52042398,4.80117907 8.94047137,5.51852462 8.59631555,6.35843546 C8.25215973,7.19835771 8.1591622,8.12333668 8.32903441,9.01703187 C8.49889543,9.91076132 8.92404621,10.7332314 9.55099023,11.381065 L6.147108,16.8412792 C5.24344425,16.5247864 4.26458529,16.5094815 3.35180764,16.7974202 C2.4390188,17.085359 1.63952662,17.6616934 1.06870023,18.4431598 C0.497872709,19.2247405 0.185235954,20.171135 0.175695597,21.1457409 C0.166584943,22.1203467 0.461053254,23.0727947 1.01681598,23.8655685 C1.57258318,24.6583424 2.36089012,25.2504386 3.26799118,25.5565377 C4.17509223,25.8625226 5.15405196,25.8667486 6.06360504,25.5683019 C6.97314691,25.2699695 7.76624593,24.6844978 8.32841861,23.8964069 C8.89059129,23.1083159 9.19278289,22.1584949 9.19136095,21.1837748 C9.18871859,19.9765108 8.71646443,18.8197303 7.87832218,17.9674498 L11.2821932,12.5072356 C12.2329939,12.8599349 13.2752695,12.8599349 14.2260702,12.5072356 L17.6300084,17.9674498 C17.0090545,18.6175678 16.5897482,19.440152 16.4247129,20.3321797 C16.2596775,21.2240931 16.3560787,22.1459311 16.7019364,22.9823355 C17.0479061,23.8187399 17.6278811,24.5324762 18.3693086,25.0343417 C19.110848,25.5362072 19.9809225,25.8038155 20.8707027,25.8038155 C21.7605948,25.8038155 22.6306693,25.5362072 23.3722087,25.0343417 C24.1136362,24.5324762 24.6936112,23.8187399 25.0394689,22.9823355 C25.3854386,22.1459311 25.4818398,21.2240931 25.3168045,20.3321797 C25.1517691,19.440152 24.7324629,18.6175678 24.1115089,17.9674498 L29.8070202,8.94957585 C30.2865632,9.12980884 30.7928657,9.22500794 31.3039827,9.23117561 C32.5040159,9.23117561 33.6547848,8.74484352 34.5033621,7.87925691 C35.3518275,7.0136703 35.8285714,5.83968884 35.8285714,4.61556651 C35.8285714,3.39144419 35.3518275,2.2174513 34.5033621,1.35187612 C33.6547848,0.486289507 32.5040159,1.54599369e-06 31.3039827,1.54599369e-06 L31.2956973,1.54599369e-06 Z M4.64171459,23.6579237 C4.15666291,23.6663757 3.68012052,23.5273747 3.27288402,23.2583958 C2.86563632,22.9895311 2.54612384,22.6029097 2.35510157,22.147987 C2.1640793,21.6931786 2.11020209,21.1905136 2.20033334,20.7042957 C2.29046459,20.2179636 2.5205288,19.7701223 2.86118014,19.4177657 C3.20183148,19.0654091 3.63763007,18.8245273 4.11300804,18.7259589 C4.5883972,18.6272762 5.08181261,18.6752469 5.53034154,18.8638177 C5.97887046,19.0523884 6.36219139,19.3728788 6.63142071,19.7846278 C6.90065004,20.1962625 7.04357245,20.6804245 7.04199568,21.1752086 C7.04199568,21.8336643 6.78557314,22.4651651 6.32916193,22.9308241 C5.87275071,23.3963688 5.25372257,23.6579237 4.60825966,23.6579237 L4.64171459,23.6579237 Z M10.2869539,8.16468291 C10.2869539,7.67365653 10.4296971,7.19365201 10.6971126,6.78537519 C10.9645393,6.37710979 11.3446693,6.05889235 11.7893914,5.87098404 C12.2340016,5.68307574 12.7233975,5.63391714 13.1954389,5.72971017 C13.6675923,5.8255032 14.10123,6.06195334 14.4416014,6.40915882 C14.7819729,6.75637572 15.0137389,7.19874605 15.107677,7.68033817 C15.201503,8.1619303 15.1533584,8.6611117 14.9691771,9.11475516 C14.7849959,9.56845571 14.4730634,9.95610511 14.0727911,10.2289673 C13.6725187,10.5017154 13.2020448,10.6473409 12.7207104,10.6473409 C12.0752362,10.6473409 11.4561857,10.385786 10.9997745,9.92024126 C10.5433633,9.45458228 10.2869539,8.82312722 10.2869539,8.16468291 L10.2869539,8.16468291 Z M20.86656,23.6579237 C20.3832102,23.6579237 19.9107209,23.5116129 19.508993,23.2374943 C19.1071532,22.9633756 18.794213,22.5737846 18.6095839,22.1180624 C18.4249548,21.6623402 18.3771461,21.1610458 18.4719798,20.6775691 C18.5669255,20.1940924 18.8003711,19.7502487 19.1427579,19.4021181 C19.4851446,19.0541017 19.9210216,18.8175602 20.3953023,18.7223039 C20.869583,18.6271619 21.3608823,18.6777597 21.806948,18.8675868 C22.2530138,19.0575281 22.6338043,19.3781327 22.901175,19.7888537 C23.1685457,20.199689 23.3102925,20.6821378 23.3086278,21.1752086 C23.3064857,21.8344639 23.0481841,22.4659646 22.5904741,22.9312809 C22.1326521,23.3965973 21.5128179,23.6579237 20.86656,23.6579237 Z M31.2956973,7.11529977 C30.8142509,7.11529977 30.343777,6.96969711 29.9435046,6.69689198 C29.5433443,6.42409828 29.2314118,6.03635752 29.0471186,5.58270264 C28.8629373,5.12905919 28.8147927,4.62987779 28.9087307,4.14828566 C29.0025568,3.66669353 29.2343229,3.22432321 29.5746943,2.87710631 C29.9150657,2.52990083 30.3487034,2.29345069 30.8208568,2.19765765 C31.2928982,2.10186462 31.7822941,2.15102323 32.2270162,2.33893153 C32.6717384,2.52683984 33.0517452,2.84505727 33.3192279,3.25332267 C33.5865986,3.6615995 33.729353,4.14160402 33.729353,4.6326304 C33.7271137,5.29037799 33.4700437,5.92055383 33.0141252,6.38566457 C32.5582066,6.8507639 31.9403877,7.11304972 31.2956973,7.11529977 Z" id="形状" fill="#444444"></path>
                        <polygon id="路径" fill="#444444" points="34.7830489 30.636755 12.7540757 30.636755 12.7540757 33 34.7830489 33"></polygon>
                        <polygon id="路径" fill="#3056D3" points="10.2868979 30.6284172 0 30.6284172 0 32.9916622 10.2868979 32.9916622"></polygon>
                    </g>
                </g>
            </g>
        </g>
    </g>
</svg>