<?xml version="1.0" encoding="UTF-8"?>
<svg width="132px" height="132px" viewBox="0 0 132 132" version="1.1" xmlns="http://www.w3.org/2000/svg" xmlns:xlink="http://www.w3.org/1999/xlink">
    <title>成功支付</title>
    <g id="深蓝色页面" stroke="none" stroke-width="1" fill="none" fill-rule="evenodd">
        <g id="连山个人版-个人版购买-微信支付成功" transform="translate(-655.000000, -368.000000)" fill-rule="nonzero">
            <g id="01_icon_支付成功_成功支付@2x" transform="translate(655.000000, 368.000000)">
                <path d="M132,66 C132,102.452367 102.452367,132 66,132 C29.5476328,132 0,102.452367 0,66 C0,29.5476328 29.5476328,0 66,0 C102.452367,0 132,29.5476328 132,66" id="路径" fill="#07C160"></path>
                <path d="M103.665633,40.7067891 L103.665633,40.7067895 C101.088449,38.1309461 96.9114356,38.1309461 94.3342516,40.7067886 L57.7550407,77.2961832 L37.6656461,57.2067886 L37.6656463,57.2067888 C35.0860517,54.6300044 30.9059701,54.6322732 28.3291857,57.2118653 C25.7524013,59.7914599 25.7546701,63.9715415 28.3342623,66.5483259 C28.3342623,66.5483259 28.3342623,66.5483259 28.3342623,66.5483259 L53.0842623,91.2932985 C54.3687241,92.582838 56.0542623,93.2225353 57.7550256,93.2225353 C59.4456439,93.2225353 61.1261045,92.5828431 62.4156439,91.2932985 L103.665644,50.0432985 L103.665644,50.0432984 C106.242648,47.4626339 106.242648,43.2824234 103.665644,40.7017589" id="路径" fill="#FFFFFF"></path>
            </g>
        </g>
    </g>
</svg>