<?xml version="1.0" standalone="no"?><!DOCTYPE svg PUBLIC "-//W3C//DTD SVG 1.1//EN" "http://www.w3.org/Graphics/SVG/1.1/DTD/svg11.dtd"><svg t="1653373579179" class="icon" viewBox="0 0 1740 1024" version="1.1" xmlns="http://www.w3.org/2000/svg" p-id="5787" xmlns:xlink="http://www.w3.org/1999/xlink" width="339.84375" height="200"><defs><style type="text/css">@font-face { font-family: feedback-iconfont; src: url("//at.alicdn.com/t/font_1031158_u69w8yhxdu.woff2?t=1630033759944") format("woff2"), url("//at.alicdn.com/t/font_1031158_u69w8yhxdu.woff?t=1630033759944") format("woff"), url("//at.alicdn.com/t/font_1031158_u69w8yhxdu.ttf?t=1630033759944") format("truetype"); }
</style></defs><path d="M0 849.92C0 380.5184 378.88 0 849.92 0c460.8 0 849.92 380.5184 849.92 849.92v84.992c0 46.8992-40.96 84.992-92.16 84.992-40.96 0-81.92-38.0928-81.92-84.992V849.92c0-375.5008-307.2-679.936-675.84-679.936-378.88 0-686.08 304.4352-686.08 679.936v84.992c0 46.8992-40.96 84.992-81.92 84.992-51.2 0-81.92-38.0928-81.92-84.992V849.92z m1146.88-407.9616c40.96 28.16 51.2 81.408 20.48 118.9888L1003.52 783.0528c10.24 20.5824 10.24 43.1104 10.24 66.8672 0 93.9008-71.68 169.984-163.84 169.984-102.4 0-174.08-76.0832-174.08-169.984 0-93.9008 71.68-169.984 174.08-169.984 0 0 10.24 0.4096 20.48 1.2288l163.84-222.208c30.72-37.5808 81.92-45.1584 112.64-16.9984z" p-id="5788"></path></svg>