<?xml version="1.0" standalone="no"?><!DOCTYPE svg PUBLIC "-//W3C//DTD SVG 1.1//EN" "http://www.w3.org/Graphics/SVG/1.1/DTD/svg11.dtd"><svg t="1656053425466" class="icon" viewBox="0 0 1934 1024" version="1.1" xmlns="http://www.w3.org/2000/svg" p-id="5855" xmlns:xlink="http://www.w3.org/1999/xlink" width="377.734375" height="200"><defs><style type="text/css">@font-face { font-family: feedback-iconfont; src: url("//at.alicdn.com/t/font_1031158_u69w8yhxdu.woff2?t=1630033759944") format("woff2"), url("//at.alicdn.com/t/font_1031158_u69w8yhxdu.woff?t=1630033759944") format("woff"), url("//at.alicdn.com/t/font_1031158_u69w8yhxdu.ttf?t=1630033759944") format("truetype"); }
</style></defs><path d="M659.911111 0c45.511111 0 91.022222 42.211556 91.022222 94.435556 0 52.110222-45.511111 94.435556-91.022222 94.435555H466.488889c-147.911111 0-284.444444 126.862222-284.444445 283.306667 0 156.444444 136.533333 283.306667 284.444445 283.306666h193.422222c45.511111 0 91.022222 42.325333 91.022222 94.435556 0 52.110222-45.511111 94.435556-91.022222 94.435556H466.488889C204.8 944.355556 0 732.956444 0 472.177778 0 211.399111 204.8 0 466.488889 0h193.422222z m750.933333 0c261.688889 0 477.866667 211.399111 477.866667 472.177778 0 260.778667-216.177778 472.177778-477.866667 472.177778h-182.044444c-56.888889 0-102.4-42.325333-102.4-94.435556 0-52.110222 45.511111-94.435556 102.4-94.435556h182.044444c159.288889 0 284.444444-126.862222 284.444445-283.306666 0-156.444444-125.155556-283.306667-284.444445-283.306667h-182.044444c-56.888889 0-102.4-42.325333-102.4-94.435555 0-52.224 45.511111-94.435556 102.4-94.435556z m-91.022222 377.742222c56.888889 0 91.022222 42.211556 91.022222 94.435556 0 52.110222-34.133333 94.435556-91.022222 94.435555H568.888889c-56.888889 0-102.4-42.325333-102.4-94.435555 0-52.224 45.511111-94.435556 102.4-94.435556z" p-id="5856"></path></svg>