<?xml version="1.0" encoding="UTF-8"?>
<svg width="23px" height="23px" viewBox="0 0 23 23" version="1.1" xmlns="http://www.w3.org/2000/svg" xmlns:xlink="http://www.w3.org/1999/xlink">
    <title>使用引导</title>
    <g id="深蓝色页面" stroke="none" stroke-width="1" fill="none" fill-rule="evenodd">
        <g id="0802引导悬浮弹窗" transform="translate(-1845.000000, -771.000000)" fill="#444444">
            <g id="编组-34" transform="translate(1636.000000, 759.000000)">
                <g id="编组-2备份-2" transform="translate(181.000000, 0.000000)">
                    <path d="M47.5349678,12 C49.4099552,12 50.8965524,13.4435171 50.9935756,15.2605362 L50.9986145,15.4497922 L50.9986145,31.5488224 C50.9986145,33.3916672 49.5745169,34.8966125 47.7275055,34.9948945 L47.5349678,35 L31.4636468,35 C29.5886593,35 28.1020621,33.5564829 28.005039,31.7382123 L28,31.5488224 L28,15.4497922 C28,13.6082866 29.4240976,12.103386 31.2711091,12.0051054 L31.4636468,12 L47.5349678,12 Z M47.5349678,14.2998615 L31.4636468,14.2998615 C30.9464089,14.2998615 30.4291709,14.748824 30.3625047,15.3245902 L30.3552798,15.4497922 L30.3552798,31.5488224 C30.3552798,32.1423529 30.8380352,32.6296772 31.3529743,32.6920159 L31.4636468,32.6987531 L47.5349678,32.6987531 C48.1844015,32.6987531 48.7120665,32.2469907 48.7754877,31.6665339 L48.7818806,31.5488224 L48.7818806,15.4497922 C48.7818806,14.8152521 48.2276971,14.2998615 47.5349678,14.2998615 Z M39.2222155,26.5764111 C39.9149449,26.5764111 40.6076742,27.1721583 40.6076742,27.9452443 L40.6076742,27.9452443 L40.6076742,27.9771098 C40.6076742,28.7501958 39.9149449,29.345943 39.2222155,29.345943 C38.3909403,29.345943 37.8367568,28.7501958 37.8367568,27.9771098 L37.8367568,27.9771098 L37.8367568,27.9452443 C37.8367568,27.1721583 38.3909403,26.5764111 39.2222155,26.5764111 Z M39.4993073,17.8341666 C41.8545871,17.8341666 43.3785917,19.0256611 43.3785917,21.1675803 L43.3785917,21.1675803 L43.3785917,21.1994458 C43.3785917,23.2443829 41.9931329,24.0811999 40.1920366,24.4358774 L40.1920366,24.4358774 L40.1920366,24.7254382 C40.0534908,25.1438468 39.776399,25.5137642 39.3607614,25.5137642 L39.3607614,25.5137642 L39.2222155,25.5137642 C38.668032,25.5137642 38.3909403,25.1604723 38.2523944,24.7254382 L38.2523944,24.7254382 L38.1138486,23.6309258 C38.1138486,23.0989097 38.3909403,22.7289922 38.9451238,22.6652611 C40.3305825,22.4879224 40.884766,22.0528884 40.884766,21.2645624 L40.884766,21.2645624 L40.884766,21.2313114 C40.884766,20.5067165 40.3305825,20.0883079 39.4993073,20.0883079 C38.8065779,20.0883079 38.1138486,20.2975122 37.5596651,20.7325462 C37.4211192,20.8780194 37.1440275,20.9902416 36.8669357,20.9902416 C36.1742064,20.9902416 35.7585688,20.4748509 35.7585688,19.8638636 C35.7585688,19.5576772 35.8971146,19.2348654 36.1742064,18.9937956 C37.0054816,18.2858262 38.1138486,17.8341666 39.4993073,17.8341666 Z" id="使用引导"></path>
                </g>
            </g>
        </g>
    </g>
</svg>