<?xml version="1.0" encoding="UTF-8"?>
<svg width="36px" height="37px" viewBox="0 0 36 37" version="1.1" xmlns="http://www.w3.org/2000/svg" xmlns:xlink="http://www.w3.org/1999/xlink">
    <title></title>
    <g id="6.13-视频预览-/-PreviewImage" stroke="none" stroke-width="1" fill="none" fill-rule="evenodd">
        <g transform="translate(-1215.000000, -1964.000000)" id="编组-50">
            <g transform="translate(550.000000, 1669.000000)">
                <g id="编组-41备份-2" transform="translate(564.000000, 234.000000)">
                    <g id="编组-3" transform="translate(101.000000, 61.000000)">
                        <ellipse id="Oval" fill="#171717" opacity="0.800000012" cx="17.9909502" cy="18.0377358" rx="17.9909502" ry="18.0377358"></ellipse>
                        <path d="M15.9090909,13 L15.9090909,13 C15.4070142,13 15,13.3730963 15,13.8333333 C15,13.8333333 15,13.8333333 15,13.8333333 L15,22.1666666 L15,22.1666667 C15,22.6269037 15.4070142,23 15.9090909,23 C16.4111676,23 16.8181818,22.6269037 16.8181818,22.1666667 L16.8181818,13.8333334 L16.8181818,13.8333335 C16.8181818,13.3730966 16.4111676,13 15.9090909,13 L15.9090909,13 Z M20.7575758,13 L20.7575758,13 C20.2554991,13 19.8484848,13.3730963 19.8484848,13.8333333 C19.8484848,13.8333333 19.8484848,13.8333333 19.8484848,13.8333333 L19.8484848,22.1666666 L19.8484848,22.1666667 C19.8484848,22.6269037 20.2554991,23 20.7575758,23 C21.2596525,23 21.6666667,22.6269037 21.6666667,22.1666667 L21.6666667,13.8333334 L21.6666667,13.8333335 C21.6666667,13.3730966 21.2596525,13 20.7575758,13 L20.7575758,13 Z" id="形状" fill="#FFFFFF" fill-rule="nonzero"></path>
                    </g>
                </g>
            </g>
        </g>
    </g>
</svg>