<?xml version="1.0" standalone="no"?><!DOCTYPE svg PUBLIC "-//W3C//DTD SVG 1.1//EN" "http://www.w3.org/Graphics/SVG/1.1/DTD/svg11.dtd"><svg t="1641900927325" class="icon" viewBox="0 0 1450 1024" version="1.1" xmlns="http://www.w3.org/2000/svg" p-id="10238" xmlns:xlink="http://www.w3.org/1999/xlink" width="19.82421875" height="14"><defs><style type="text/css"></style></defs><path d="M853.333333 0c106.325333 0 196.949333 84.565333 211.797334 192.597333l1.536 14.250667 119.466666-99.242667c90.709333-71.765333 221.354667-12.458667 229.973334 98.901334l0.426666 11.690666v555.178667c0 114.858667-127.573333 180.394667-220.842666 117.589333l-9.557334-6.912-119.466666-99.328c-8.192 109.994667-94.72 199.168-199.594667 206.336L853.333333 991.573333H213.333333A211.797333 211.797333 0 0 1 0.426667 793.088L0 779.093333V212.48C0 99.84 86.528 7.68 199.082667 0.426667L213.333333 0H853.333333z m0 141.653333H213.333333c-34.133333 0-68.266667 31.658667-68.266666 70.826667v566.613333c0 39.168 34.133333 70.826667 68.266666 70.826667H853.333333c34.133333 0 68.266667-31.658667 68.266667-70.826667V212.48c0-39.168-34.133333-70.826667-68.266667-70.826667z m426.666667 76.544l-213.333333 169.984v215.210667L1280 773.376V218.197333z" p-id="10239"></path></svg>