<?xml version="1.0" encoding="UTF-8"?>
<svg width="53px" height="43px" viewBox="0 0 53 43" version="1.1" xmlns="http://www.w3.org/2000/svg" xmlns:xlink="http://www.w3.org/1999/xlink">
    <title>微信</title>
    <g id="深蓝色页面" stroke="none" stroke-width="1" fill="none" fill-rule="evenodd">
        <g id="连山个人版-个人版购买-确认订单" transform="translate(-497.000000, -528.000000)" fill="#00C800" fill-rule="nonzero">
            <g id="编组-28" transform="translate(418.000000, 318.000000)">
                <g id="编组-27" transform="translate(0.000000, 176.000000)">
                    <g id="微信" transform="translate(79.000000, 34.000000)">
                        <path d="M53,27.5748216 C53,20.1030027 45.4930834,14.0175978 37.0670609,14.0175978 C28.1416399,14.0175978 21.1128709,20.1082944 21.1128709,27.5748216 C21.1128709,35.0572237 28.1416399,41.1320453 37.0670609,41.1320453 C38.9371492,41.1320453 40.8231756,40.6610879 42.6985766,40.1954221 L47.8413192,43 L46.4281275,38.332759 C50.1948677,35.5175978 53,31.7869801 53,27.5748216 Z M32.1315156,25.5004922 C30.9573978,25.5004922 30.0064154,24.5532857 30.0064154,23.3838297 C30.0064154,22.2143736 30.9573978,21.2671671 32.1315156,21.2671671 C33.3056335,21.2671671 34.2566159,22.2143736 34.2566159,23.3838297 C34.2566159,24.5479941 33.3056335,25.5004922 32.1315156,25.5004922 Z M42.4541901,25.4846173 C41.2800722,25.4846173 40.3290898,24.5374108 40.3290898,23.3679547 C40.3290898,22.1984986 41.2800722,21.2512921 42.4541901,21.2512921 C43.6283079,21.2512921 44.5792903,22.1984986 44.5792903,23.3679547 C44.5792903,24.5374108 43.6283079,25.4846173 42.4541901,25.4846173 Z" id="形状"></path>
                        <path d="M18.7593224,0 C8.44727346,0 0,7.00086143 0,15.8908442 C0,21.0237509 2.81044507,25.2359094 7.5069166,28.5061531 L5.63151564,34.1258922 L12.1874499,30.8503569 C14.5356856,31.310731 16.4163994,31.7869801 18.7593224,31.7869801 C19.3490377,31.7869801 19.9334403,31.7605218 20.5125301,31.7128969 C20.1459503,30.464066 19.9334403,29.1570268 19.9334403,27.7970711 C19.9334403,19.6320453 26.9728348,13.0068915 35.8823176,13.0068915 C36.4932839,13.0068915 37.0936247,13.0492247 37.6886528,13.1180162 C36.0629511,5.59328083 27.9822574,0 18.7593224,0 L18.7593224,0 Z M12.4584002,12.8216835 C11.0505213,12.8216835 9.90827987,11.6839774 9.90827987,10.2816884 C9.90827987,8.87939946 11.0505213,7.74169333 12.4584002,7.74169333 C13.8662791,7.74169333 15.0085204,8.87939946 15.0085204,10.2816884 C15.0085204,11.6839774 13.8662791,12.8216835 12.4584002,12.8216835 L12.4584002,12.8216835 Z M25.5596431,12.8216835 C24.1517642,12.8216835 23.0095229,11.6839774 23.0095229,10.2816884 C23.0095229,8.87939946 24.1517642,7.74169333 25.5596431,7.74169333 C26.9675221,7.74169333 28.1097634,8.87939946 28.1097634,10.2816884 C28.1097634,11.6839774 26.9675221,12.8216835 25.5596431,12.8216835 L25.5596431,12.8216835 Z" id="形状"></path>
                    </g>
                </g>
            </g>
        </g>
    </g>
</svg>