<?xml version="1.0" standalone="no"?><!DOCTYPE svg PUBLIC "-//W3C//DTD SVG 1.1//EN" "http://www.w3.org/Graphics/SVG/1.1/DTD/svg11.dtd"><svg t="1652165734577" class="icon" viewBox="0 0 4352 1024" version="1.1" xmlns="http://www.w3.org/2000/svg" p-id="6667" xmlns:xlink="http://www.w3.org/1999/xlink" width="850" height="200"><defs><style type="text/css">@font-face { font-family: feedback-iconfont; src: url("//at.alicdn.com/t/font_1031158_u69w8yhxdu.woff2?t=1630033759944") format("woff2"), url("//at.alicdn.com/t/font_1031158_u69w8yhxdu.woff?t=1630033759944") format("woff"), url("//at.alicdn.com/t/font_1031158_u69w8yhxdu.ttf?t=1630033759944") format("truetype"); }
</style></defs><path d="M2190.3616 711.9104V643.84h143.616v-74.7264h-143.616v-62.0544h134.272V436.992H2190.336v-85.4016h-105.5488v85.4016h-61.44l45.4144-118.784h262.528V248.832H2094.848l16.0256-41.3696h-102.1952L1991.936 248.832h-76.1344v69.376h48.0768l-48.0768 119.4496v69.4016h168.9856v62.0544H1905.152v74.752h179.712v68.0448h105.5232zM1883.7504 324.224l-25.3952-111.4112h-111.5392l26.7264 111.4112h110.208z m-136.2688 497.1008l86.1696-60.032 42.752 35.3536h466.944v-72.7296H1917.1328L1879.04 691.8912V380.288H1740.8v70.0672h36.736v254.208l-30.0544 22.016v94.7456z m1240.4736-20.0192V291.5328h-102.8864v429.056h-124.2368V206.1312h-102.8608v514.4576h-124.928v-429.056h-102.8608v509.7728h557.7728z m197.7344-282.24l56.0896-113.408h6.6816l44.7744 113.408h96.1792l-48.768-113.408h44.0832V343.552h-112.2048l26.7008-54.016h75.4944V226.1248h-182.3744l8.704-21.3504h-97.536l-39.424 112.768h93.5424l10.6752-28.032h28.7232l-26.0608 54.0416h-94.1824v62.0544h63.488l-54.784 113.4336h100.1984z m480.256-14.0032v-281.6h-258.4832v281.6h258.5088z m-95.488-65.3824h-67.4816v-151.4752h67.456v151.4752z m63.4368 358.2976V535.7568H3112.192V797.952h521.728z m-104.192-162.1504h-311.9616v-37.376h311.9616v37.376z m0 100.096h-311.9616v-37.376h311.9616v37.376z m278.528 74.752l84.864-64.0768v-159.488l53.4272-9.3184v-88.064l-53.4272 9.3184v-144.128h52.7616V276.224h-52.7616V208.128h-95.5392v68.0704h-61.44v78.72h61.44v160.1536l-57.4464 9.344v88.064l57.4464-9.344v99.4304l-48.768 39.3728 59.4688 68.7104z m523.0592-359.68l18.048-82.048h-46.7712l-6.656 26.0096h-8.704V208.7936h-300.5952v173.4912h-36.096l22.7328 66.048h114.8928V272.896h96.1792v178.1504h146.9696z m-257.1776 356.3264l67.4816-69.376 72.8064 69.376H4352l-147.6352-134.784 124.928-128.768v-70.7328h-362.7264v70.7328h223.7696l-59.4432 61.3888-34.048-31.36H3970.56l98.8416 95.4112-133.5808 138.112h138.2656z" fill="#FFFFFF" p-id="6668"></path><path d="M312.1152 645.1456h376.1664l146.816-177.792-188.0832-227.7888zM51.2 645.1456h241.5104l344.576-417.3568-120.7296-146.2272zM1377.4848 645.1456L1042.5856 239.5648l-188.0832 227.7888 146.816 177.792zM844.8 0l-188.0832 227.7888L844.8 455.6032l188.0832-227.8144zM844.8 479.104l-137.088 166.0416h274.176zM973.056 660.1472H716.544L844.8 745.8304zM1629.5936 660.1472h-233.9584l-339.5584 226.816 116.992 78.08zM633.5232 886.9376l-339.5584-226.7904H60.032l456.5248 304.896zM1052.3136 227.7888l344.576 417.3568H1638.4L1173.0688 81.5616zM1000.064 660.1472l-141.7728 94.6944 184.32 123.0848 326.0416-217.7792zM831.3088 754.8416l-141.7728-94.6944H320.9472l326.0672 217.7792zM660.48 886.9376l184.32 123.1104 184.32-123.1104-184.32-123.0848z" fill="#FFFFFF" p-id="6669"></path></svg>